<svg xmlns="http://www.w3.org/2000/svg" xmlns:xlink="http://www.w3.org/1999/xlink" width="82" zoomAndPan="magnify" viewBox="0 0 61.5 106.499998" height="142" preserveAspectRatio="xMidYMid meet" version="1.0"><defs><clipPath id="32a295af72"><path d="M 3.160156 50.695312 L 58.289062 50.695312 L 58.289062 105.824219 L 3.160156 105.824219 Z M 3.160156 50.695312 " clip-rule="nonzero"/></clipPath><clipPath id="995257ce08"><path d="M 30.726562 50.695312 C 15.503906 50.695312 3.160156 63.035156 3.160156 78.257812 C 3.160156 93.480469 15.503906 105.824219 30.726562 105.824219 C 45.949219 105.824219 58.289062 93.480469 58.289062 78.257812 C 58.289062 63.035156 45.949219 50.695312 30.726562 50.695312 Z M 30.726562 50.695312 " clip-rule="nonzero"/></clipPath><clipPath id="f5abc8abeb"><path d="M 13.375 61.117188 L 47.085938 61.117188 L 47.085938 94.828125 L 13.375 94.828125 Z M 13.375 61.117188 " clip-rule="nonzero"/></clipPath><clipPath id="15c5e31b1b"><path d="M 30.230469 61.117188 C 20.921875 61.117188 13.375 68.664062 13.375 77.972656 C 13.375 87.28125 20.921875 94.828125 30.230469 94.828125 C 39.539062 94.828125 47.085938 87.28125 47.085938 77.972656 C 47.085938 68.664062 39.539062 61.117188 30.230469 61.117188 Z M 30.230469 61.117188 " clip-rule="nonzero"/></clipPath><clipPath id="4df238f259"><path d="M 24.867188 72.335938 L 36.136719 72.335938 L 36.136719 83.609375 L 24.867188 83.609375 Z M 24.867188 72.335938 " clip-rule="nonzero"/></clipPath><clipPath id="06e741e31c"><path d="M 30.503906 72.335938 C 27.390625 72.335938 24.867188 74.859375 24.867188 77.972656 C 24.867188 81.085938 27.390625 83.609375 30.503906 83.609375 C 33.613281 83.609375 36.136719 81.085938 36.136719 77.972656 C 36.136719 74.859375 33.613281 72.335938 30.503906 72.335938 Z M 30.503906 72.335938 " clip-rule="nonzero"/></clipPath><clipPath id="52fae610e8"><path d="M 2.4375 0.179688 L 58.234375 0.179688 L 58.234375 73.832031 L 2.4375 73.832031 Z M 2.4375 0.179688 " clip-rule="nonzero"/></clipPath><clipPath id="0e87a83460"><path d="M 7 3.453125 L 54 3.453125 L 54 20 L 7 20 Z M 7 3.453125 " clip-rule="nonzero"/></clipPath><clipPath id="5bc2935a9f"><path d="M 7 36 L 54 36 L 54 52.554688 L 7 52.554688 Z M 7 36 " clip-rule="nonzero"/></clipPath><clipPath id="0372c3e316"><path d="M 6.324219 19 L 55.425781 19 L 55.425781 37 L 6.324219 37 Z M 6.324219 19 " clip-rule="nonzero"/></clipPath></defs><g clip-path="url(#32a295af72)"><g clip-path="url(#995257ce08)"><path fill="#e6f5f0" d="M 3.160156 50.695312 L 58.289062 50.695312 L 58.289062 105.824219 L 3.160156 105.824219 Z M 3.160156 50.695312 " fill-opacity="1" fill-rule="nonzero"/></g></g><g clip-path="url(#f5abc8abeb)"><g clip-path="url(#15c5e31b1b)"><path fill="#bbe5d6" d="M 13.375 61.117188 L 47.085938 61.117188 L 47.085938 94.828125 L 13.375 94.828125 Z M 13.375 61.117188 " fill-opacity="1" fill-rule="nonzero"/></g></g><g clip-path="url(#4df238f259)"><g clip-path="url(#06e741e31c)"><path fill="#0ca273" d="M 24.867188 72.335938 L 36.136719 72.335938 L 36.136719 83.609375 L 24.867188 83.609375 Z M 24.867188 72.335938 " fill-opacity="1" fill-rule="nonzero"/></g></g><g clip-path="url(#52fae610e8)"><path fill="#000000" d="M 58.179688 28.011719 C 58.152344 12.613281 45.664062 0.15625 30.296875 0.1875 C 14.925781 0.214844 2.488281 12.71875 2.515625 28.113281 C 2.527344 33.453125 4.136719 38.375 6.640625 42.671875 C 12.292969 52.375 30.433594 73.8125 30.433594 73.8125 C 30.433594 73.8125 48.742188 51.988281 54.316406 42.234375 C 56.714844 38.027344 58.191406 33.203125 58.179688 28.011719 Z M 30.308594 6.625 C 42.132812 6.601562 51.730469 16.183594 51.753906 28.023438 C 51.777344 39.863281 42.210938 49.480469 30.386719 49.503906 C 18.566406 49.523438 8.964844 39.941406 8.941406 28.101562 C 8.921875 16.261719 18.484375 6.644531 30.308594 6.625 Z M 30.308594 6.625 " fill-opacity="1" fill-rule="nonzero"/></g><g clip-path="url(#0e87a83460)"><path fill="#64b5f6" d="M 30.875 3.453125 C 20.34375 3.453125 11.386719 10.097656 7.898438 19.414062 L 53.847656 19.414062 C 50.363281 10.097656 41.40625 3.453125 30.875 3.453125 Z M 30.875 3.453125 " fill-opacity="1" fill-rule="nonzero"/></g><g clip-path="url(#5bc2935a9f)"><path fill="#64b5f6" d="M 53.847656 36.597656 L 7.898438 36.597656 C 11.386719 45.914062 20.34375 52.554688 30.875 52.554688 C 41.40625 52.554688 50.363281 45.914062 53.847656 36.597656 Z M 53.847656 36.597656 " fill-opacity="1" fill-rule="nonzero"/></g><g clip-path="url(#0372c3e316)"><path fill="#f5f5f5" d="M 55.425781 28.003906 C 55.425781 24.976562 54.851562 22.089844 53.847656 19.414062 L 7.898438 19.414062 C 6.898438 22.089844 6.324219 24.976562 6.324219 28.003906 C 6.324219 31.035156 6.898438 33.917969 7.898438 36.597656 L 53.847656 36.597656 C 54.851562 33.917969 55.425781 31.035156 55.425781 28.003906 Z M 55.425781 28.003906 " fill-opacity="1" fill-rule="nonzero"/></g><path fill="#ffc107" d="M 30.554688 28.167969 L 33.132812 33.65625 C 33.132812 33.65625 33.132812 33.824219 33.296875 33.65625 L 33.296875 33.492188 L 31.199219 27.84375 M 31.039062 29.941406 C 31.039062 30.75 31.519531 31.234375 31.519531 32.042969 C 31.519531 32.851562 31.847656 33.171875 32.003906 33.492188 C 32.167969 33.820312 31.847656 33.980469 32.003906 33.980469 C 32.167969 33.980469 32.328125 33.824219 32.167969 33.335938 C 32.167969 32.851562 31.847656 32.851562 31.847656 31.878906 C 31.847656 30.914062 31.519531 30.75 31.519531 29.941406 " fill-opacity="1" fill-rule="nonzero"/><path fill="#bf360c" d="M 32.003906 34.144531 C 32.003906 34.144531 31.84375 34.144531 32.003906 34.144531 C 31.847656 34.144531 31.847656 33.976562 32.003906 33.976562 C 32.003906 33.820312 32.003906 33.820312 32.003906 33.65625 C 32.003906 33.65625 32.003906 33.492188 31.847656 33.335938 C 31.683594 33.011719 31.519531 32.6875 31.519531 32.042969 C 31.519531 31.722656 31.519531 31.398438 31.363281 31.070312 C 31.199219 30.75 31.199219 30.429688 31.199219 29.941406 L 31.363281 29.941406 C 31.363281 30.429688 31.519531 30.75 31.519531 30.914062 C 31.683594 31.234375 31.683594 31.554688 31.683594 31.878906 C 31.683594 32.363281 31.847656 32.847656 32.003906 33.011719 C 32.003906 33.171875 32.167969 33.171875 32.167969 33.335938 C 32.003906 33.65625 32.003906 33.820312 32.003906 34.144531 C 32.003906 33.976562 32.003906 33.976562 32.003906 34.144531 C 32.003906 33.976562 32.003906 33.976562 32.003906 34.144531 C 32.167969 33.976562 32.167969 33.820312 32.167969 33.492188 C 32.167969 33.335938 32.167969 33.335938 32.003906 33.171875 C 31.847656 33.015625 31.847656 32.6875 31.847656 32.042969 C 31.847656 31.554688 31.847656 31.398438 31.683594 31.070312 C 31.683594 30.914062 31.519531 30.589844 31.519531 30.265625 L 30.554688 28.167969 L 30.710938 28.167969 L 31.519531 30.105469 L 31.683594 30.105469 L 31.683594 30.265625 L 33.296875 33.65625 L 31.195312 28.003906 L 31.359375 28.003906 L 33.460938 33.65625 L 33.460938 33.820312 C 33.460938 33.820312 33.296875 33.820312 33.296875 33.65625 L 31.84375 30.425781 C 31.84375 30.589844 31.84375 30.75 32.003906 30.914062 C 32.167969 31.234375 32.167969 31.398438 32.167969 31.878906 C 32.167969 32.527344 32.167969 32.6875 32.324219 33.011719 C 32.324219 33.171875 32.488281 33.171875 32.488281 33.335938 C 32.167969 33.65625 32.167969 33.976562 32.003906 34.144531 C 32.003906 33.976562 32.003906 34.144531 32.003906 34.144531 Z M 32.003906 34.144531 " fill-opacity="1" fill-rule="nonzero"/><path fill="#ffc107" d="M 30.554688 28.003906 L 30.710938 33.976562 L 30.710938 34.144531 L 30.710938 33.976562 L 30.875 28.003906 M 30.230469 29.941406 C 29.902344 30.75 30.230469 31.398438 29.902344 32.042969 C 29.582031 32.6875 29.746094 33.171875 29.746094 33.492188 C 29.746094 33.820312 29.425781 33.820312 29.582031 33.980469 C 29.746094 34.144531 29.902344 33.980469 30.066406 33.492188 C 30.234375 33.011719 29.902344 32.851562 30.390625 32.042969 C 30.875 31.234375 30.554688 30.914062 30.875 30.105469 " fill-opacity="1" fill-rule="nonzero"/><path fill="#bf360c" d="M 30.875 34.144531 C 30.710938 34.144531 30.710938 33.976562 30.710938 33.976562 L 30.554688 30.589844 C 30.554688 30.746094 30.554688 30.910156 30.554688 31.070312 C 30.554688 31.398438 30.554688 31.71875 30.230469 32.042969 C 29.902344 32.527344 29.902344 32.847656 30.066406 33.011719 C 30.066406 33.167969 30.066406 33.332031 30.066406 33.332031 C 30.066406 33.65625 29.746094 33.820312 29.746094 33.820312 L 29.582031 33.820312 L 29.582031 33.65625 C 29.582031 33.65625 29.746094 33.492188 29.746094 33.332031 C 29.746094 33.332031 29.746094 33.167969 29.746094 33.011719 C 29.746094 32.683594 29.582031 32.203125 29.902344 31.71875 C 30.066406 31.398438 30.066406 31.070312 30.066406 30.75 C 30.066406 30.425781 30.066406 30.105469 30.230469 29.621094 L 30.386719 29.621094 C 30.230469 29.941406 30.230469 30.261719 30.230469 30.589844 C 30.230469 30.910156 30.230469 31.234375 30.066406 31.554688 C 29.746094 32.042969 29.902344 32.527344 29.902344 32.683594 C 29.902344 32.847656 29.902344 32.847656 29.902344 33.011719 C 29.902344 33.167969 29.746094 33.332031 29.746094 33.332031 C 29.746094 33.332031 29.902344 33.167969 30.066406 32.847656 C 30.066406 32.683594 30.066406 32.683594 30.066406 32.527344 C 30.066406 32.203125 30.066406 32.039062 30.386719 31.398438 C 30.554688 31.070312 30.554688 30.746094 30.710938 30.425781 C 30.710938 30.261719 30.710938 29.941406 30.875 29.617188 L 30.554688 28.003906 L 30.710938 28.003906 L 30.710938 30.105469 L 30.875 30.105469 C 30.875 30.105469 30.875 30.261719 30.710938 30.261719 L 30.875 33.976562 L 30.875 34.144531 C 30.875 33.976562 30.875 33.976562 30.875 33.976562 L 31.039062 28.003906 L 31.195312 28.003906 L 30.875 34.144531 C 31.039062 34.144531 31.039062 34.144531 30.875 34.144531 Z M 30.875 34.144531 " fill-opacity="1" fill-rule="nonzero"/><path fill="#ffc107" d="M 30.554688 27.839844 L 28.453125 33.492188 L 28.453125 33.65625 L 28.617188 33.65625 L 31.199219 28.167969 M 29.582031 29.621094 C 28.9375 30.105469 28.9375 30.914062 28.453125 31.398438 C 27.964844 31.878906 27.808594 32.527344 27.808594 32.6875 C 27.808594 32.851562 27.480469 33.011719 27.480469 33.011719 C 27.480469 33.171875 27.808594 33.011719 28.132812 32.6875 C 28.453125 32.363281 28.289062 32.042969 28.9375 31.398438 C 29.582031 30.75 29.425781 30.265625 30.066406 29.785156 " fill-opacity="1" fill-rule="nonzero"/><path fill="#bf360c" d="M 28.617188 33.65625 C 28.617188 33.65625 28.453125 33.65625 28.617188 33.65625 C 28.453125 33.65625 28.453125 33.492188 28.453125 33.492188 L 29.582031 30.261719 C 29.421875 30.425781 29.421875 30.589844 29.257812 30.75 C 29.09375 31.070312 28.9375 31.234375 28.617188 31.554688 C 28.128906 31.878906 28.128906 32.207031 27.964844 32.363281 C 27.964844 32.527344 27.808594 32.527344 27.808594 32.6875 C 27.644531 32.851562 27.480469 33.011719 27.324219 33.011719 L 27.160156 33.011719 C 27.160156 33.011719 27.160156 32.847656 27.324219 32.847656 C 27.324219 32.847656 27.480469 32.683594 27.644531 32.683594 C 27.644531 32.683594 27.644531 32.527344 27.808594 32.363281 C 27.964844 32.042969 27.964844 31.71875 28.453125 31.234375 C 28.773438 31.070312 28.9375 30.746094 28.9375 30.425781 C 29.097656 30.105469 29.261719 29.78125 29.582031 29.453125 C 29.261719 29.78125 29.097656 30.105469 28.9375 30.261719 C 28.773438 30.589844 28.617188 30.910156 28.289062 31.070312 C 27.808594 31.398438 27.808594 31.878906 27.644531 32.042969 C 27.644531 32.207031 27.644531 32.207031 27.480469 32.363281 C 27.644531 32.847656 27.480469 32.847656 27.480469 33.011719 C 27.644531 33.011719 27.808594 33.011719 27.96875 32.683594 C 28.132812 32.527344 28.132812 32.527344 28.132812 32.363281 C 28.289062 32.207031 28.289062 31.875 28.777344 31.398438 C 29.097656 31.070312 29.261719 30.910156 29.425781 30.589844 C 29.582031 30.425781 29.582031 30.105469 29.90625 29.941406 L 30.710938 27.839844 L 30.875 27.839844 L 30.066406 29.785156 C 30.066406 29.785156 29.902344 29.785156 29.902344 29.941406 L 28.617188 33.492188 C 28.617188 33.492188 28.453125 33.65625 28.617188 33.65625 L 31.195312 28.003906 L 31.359375 28.003906 Z M 28.617188 33.65625 " fill-opacity="1" fill-rule="nonzero"/><path fill="#ffc107" d="M 30.710938 27.839844 L 26.671875 32.207031 L 26.671875 32.363281 L 26.835938 32.363281 L 31.195312 28.324219 M 29.097656 28.976562 C 28.289062 29.296875 28.132812 29.941406 27.324219 30.105469 C 26.675781 30.261719 26.351562 30.914062 26.195312 31.070312 C 26.03125 31.234375 25.707031 31.234375 25.707031 31.234375 C 25.707031 31.234375 26.03125 31.398438 26.351562 31.234375 C 26.671875 31.070312 26.671875 30.75 27.644531 30.425781 C 28.453125 30.105469 28.613281 29.621094 29.421875 29.457031 " fill-opacity="1" fill-rule="nonzero"/><path fill="#bf360c" d="M 26.515625 32.363281 C 26.351562 32.207031 26.351562 32.207031 26.515625 32.207031 L 28.9375 29.621094 C 28.773438 29.785156 28.617188 29.785156 28.617188 29.941406 C 28.453125 30.105469 28.128906 30.265625 27.808594 30.429688 C 27.320312 30.59375 27 30.75 26.835938 30.914062 C 26.671875 31.070312 26.671875 31.070312 26.515625 31.234375 C 26.195312 31.402344 26.03125 31.402344 25.867188 31.402344 C 25.867188 31.402344 25.867188 31.402344 25.867188 31.234375 C 25.867188 31.070312 26.03125 31.070312 26.03125 31.070312 C 26.195312 31.070312 26.195312 31.070312 26.351562 30.914062 L 26.515625 30.75 C 26.675781 30.429688 27.003906 30.105469 27.480469 29.941406 C 27.808594 29.785156 28.132812 29.621094 28.289062 29.457031 C 28.617188 29.300781 28.777344 28.976562 29.261719 28.8125 L 29.261719 28.976562 C 28.9375 29.132812 28.617188 29.300781 28.453125 29.621094 C 28.132812 29.785156 27.964844 30.105469 27.644531 30.265625 C 27.160156 30.429688 26.835938 30.75 26.675781 31.070312 C 26.675781 31.234375 26.515625 31.234375 26.515625 31.234375 C 26.03125 31.234375 25.867188 31.234375 25.867188 31.234375 C 25.867188 31.234375 26.195312 31.234375 26.355469 31.070312 C 26.519531 31.070312 26.519531 30.914062 26.675781 30.75 C 26.839844 30.59375 27.003906 30.429688 27.644531 30.105469 C 28.132812 29.941406 28.289062 29.785156 28.453125 29.621094 C 28.617188 29.457031 28.777344 29.300781 29.097656 29.132812 L 30.710938 27.519531 L 29.261719 29.132812 L 29.261719 29.300781 L 29.097656 29.300781 L 26.515625 32.042969 C 26.515625 32.207031 26.515625 32.363281 26.515625 32.363281 C 26.675781 32.363281 26.675781 32.363281 26.515625 32.363281 L 31.039062 28.167969 L 26.515625 32.363281 C 26.675781 32.363281 26.675781 32.363281 26.515625 32.363281 Z M 26.515625 32.363281 " fill-opacity="1" fill-rule="nonzero"/><path fill="#bf360c" d="M 31.195312 30.105469 C 31.195312 30.914062 31.683594 31.234375 31.683594 32.042969 C 31.84375 31.398438 31.359375 31.070312 31.195312 30.105469 M 30.710938 28.003906 L 32.488281 31.722656 L 31.039062 28.003906 " fill-opacity="1" fill-rule="nonzero"/><path fill="#bf360c" d="M 30.386719 30.105469 C 30.066406 30.914062 30.386719 31.398438 30.066406 32.042969 C 30.386719 31.554688 30.230469 30.914062 30.386719 30.105469 M 30.710938 28.003906 L 30.875 32.207031 L 31.039062 28.003906 " fill-opacity="1" fill-rule="nonzero"/><path fill="#bf360c" d="M 29.582031 29.785156 C 29.097656 30.425781 29.097656 30.914062 28.617188 31.398438 C 29.097656 31.070312 29.097656 30.425781 29.582031 29.785156 M 30.710938 28.003906 L 29.257812 31.878906 L 31.039062 28.167969 " fill-opacity="1" fill-rule="nonzero"/><path fill="#bf360c" d="M 29.097656 29.132812 C 28.453125 29.457031 28.289062 30.105469 27.480469 30.265625 C 28.132812 30.265625 28.289062 29.621094 29.097656 29.132812 M 30.710938 27.839844 L 27.964844 30.914062 L 31.039062 28.167969 " fill-opacity="1" fill-rule="nonzero"/><path fill="#ffc107" d="M 30.710938 27.683594 L 25.222656 30.265625 C 25.222656 30.265625 25.058594 30.265625 25.222656 30.429688 L 25.386719 30.429688 L 31.039062 28.328125 M 28.9375 28.167969 C 28.128906 28.167969 27.644531 28.648438 26.835938 28.648438 C 26.03125 28.648438 25.707031 28.976562 25.386719 29.136719 C 25.058594 29.300781 24.898438 28.980469 24.898438 29.136719 C 24.898438 29.300781 25.058594 29.457031 25.542969 29.300781 C 26.03125 29.300781 26.03125 28.980469 27 28.980469 C 27.964844 28.980469 28.128906 28.652344 28.9375 28.652344 " fill-opacity="1" fill-rule="nonzero"/><path fill="#bf360c" d="M 25.222656 30.425781 C 25.058594 30.261719 25.058594 30.261719 25.222656 30.105469 L 28.453125 28.648438 C 28.289062 28.648438 28.132812 28.648438 27.964844 28.8125 C 27.644531 28.976562 27.480469 28.976562 27 28.976562 C 26.351562 28.976562 26.195312 28.976562 25.867188 29.132812 C 25.710938 29.132812 25.710938 29.300781 25.542969 29.300781 C 25.222656 29.300781 25.058594 29.300781 24.902344 29.132812 L 24.902344 28.976562 L 25.058594 28.976562 C 25.222656 28.976562 25.222656 28.976562 25.386719 28.976562 C 25.386719 28.976562 25.542969 28.976562 25.707031 28.8125 C 26.03125 28.648438 26.351562 28.492188 26.671875 28.492188 L 26.835938 28.492188 C 27.160156 28.492188 27.480469 28.492188 27.808594 28.328125 C 28.128906 28.167969 28.453125 28.167969 28.9375 28.167969 L 28.9375 28.328125 C 28.617188 28.328125 28.289062 28.492188 27.964844 28.492188 C 27.644531 28.648438 27.324219 28.648438 27 28.648438 C 26.515625 28.648438 26.03125 28.8125 25.867188 28.976562 C 25.710938 28.976562 25.710938 29.132812 25.542969 29.132812 C 25.386719 29.132812 25.222656 29.132812 25.058594 29.132812 C 25.058594 29.132812 25.386719 29.296875 25.542969 29.296875 C 25.710938 29.296875 25.710938 29.296875 25.867188 29.132812 C 26.03125 28.976562 26.351562 28.976562 27 28.976562 C 27.480469 28.976562 27.644531 28.976562 27.964844 28.8125 C 28.132812 28.8125 28.453125 28.648438 28.773438 28.648438 L 30.875 27.683594 L 30.875 27.839844 L 28.9375 28.648438 L 28.9375 28.8125 L 28.773438 28.8125 L 25.222656 30.425781 C 25.222656 30.265625 25.222656 30.265625 25.222656 30.425781 C 25.222656 30.425781 25.386719 30.265625 25.222656 30.425781 L 30.875 28.167969 L 30.875 28.328125 L 25.222656 30.425781 C 25.386719 30.425781 25.222656 30.425781 25.222656 30.425781 Z M 25.222656 30.425781 " fill-opacity="1" fill-rule="nonzero"/><path fill="#ffc107" d="M 30.875 27.683594 L 24.902344 28.003906 L 24.738281 28.003906 L 24.902344 28.003906 L 30.875 28.167969 M 28.9375 27.363281 C 28.128906 27.035156 27.480469 27.363281 26.835938 27.035156 C 26.195312 26.710938 25.707031 26.878906 25.386719 26.878906 C 25.058594 26.878906 25.058594 26.554688 24.898438 26.710938 C 24.734375 26.878906 24.898438 27.035156 25.386719 27.199219 C 25.867188 27.363281 26.03125 27.035156 26.835938 27.519531 C 27.644531 28.007812 27.964844 27.683594 28.773438 28.007812 " fill-opacity="1" fill-rule="nonzero"/><path fill="#bf360c" d="M 30.875 28.328125 L 24.902344 28.167969 C 24.902344 28.167969 24.738281 28.167969 24.738281 28.003906 C 24.738281 27.839844 24.902344 27.839844 24.902344 27.839844 L 28.289062 27.683594 C 28.132812 27.683594 27.96875 27.683594 27.808594 27.683594 C 27.480469 27.683594 27.160156 27.683594 26.839844 27.363281 C 26.351562 27.035156 26.03125 27.035156 25.867188 27.199219 C 25.710938 27.199219 25.546875 27.199219 25.546875 27.199219 C 25.222656 27.199219 25.058594 26.875 25.058594 26.875 L 25.058594 26.710938 L 25.222656 26.710938 C 25.222656 26.710938 25.390625 26.875 25.546875 26.875 C 25.546875 26.875 25.710938 26.875 25.867188 26.875 C 26.195312 26.875 26.675781 26.710938 27.160156 27.03125 C 27.480469 27.199219 27.808594 27.199219 28.132812 27.199219 C 28.453125 27.199219 28.773438 27.199219 29.261719 27.363281 L 29.261719 27.519531 C 28.9375 27.363281 28.617188 27.363281 28.289062 27.363281 C 27.96875 27.363281 27.644531 27.363281 27.324219 27.199219 C 26.839844 26.875 26.515625 27.03125 26.195312 27.03125 C 26.03125 27.03125 26.03125 27.03125 25.867188 27.03125 C 25.710938 27.03125 25.546875 26.875 25.546875 26.875 C 25.546875 26.875 25.710938 27.03125 26.03125 27.199219 C 26.195312 27.199219 26.355469 27.199219 26.355469 27.199219 C 26.675781 27.199219 26.839844 27.199219 27.484375 27.519531 C 27.8125 27.683594 28.132812 27.683594 28.453125 27.839844 C 28.617188 27.839844 28.941406 27.839844 29.261719 28.003906 L 31.519531 27.839844 L 31.519531 28.003906 L 29.425781 28.003906 L 29.425781 28.167969 C 29.425781 28.167969 29.261719 28.167969 29.261719 28.003906 L 24.902344 28.003906 Z M 30.875 28.328125 " fill-opacity="1" fill-rule="nonzero"/><path fill="#ffc107" d="M 31.039062 27.683594 L 25.386719 25.582031 L 25.222656 25.582031 L 25.222656 25.746094 L 30.710938 28.328125 M 29.257812 26.710938 C 28.773438 26.070312 27.964844 26.070312 27.480469 25.582031 C 27 25.097656 26.351562 24.941406 26.195312 24.941406 C 26.03125 24.941406 25.867188 24.613281 25.867188 24.613281 C 25.710938 24.613281 25.867188 24.941406 26.195312 25.261719 C 26.515625 25.582031 26.835938 25.417969 27.480469 26.070312 C 28.128906 26.710938 28.617188 26.554688 29.097656 27.199219 " fill-opacity="1" fill-rule="nonzero"/><path fill="#bf360c" d="M 30.710938 28.328125 L 25.222656 25.746094 L 25.058594 25.582031 C 25.058594 25.582031 25.222656 25.417969 25.222656 25.582031 L 28.453125 26.710938 C 28.285156 26.554688 28.128906 26.554688 27.964844 26.390625 C 27.644531 26.226562 27.480469 26.066406 27.15625 25.746094 C 26.835938 25.261719 26.515625 25.261719 26.351562 25.097656 C 26.191406 25.097656 26.191406 24.941406 26.027344 24.941406 C 25.707031 24.777344 25.707031 24.453125 25.707031 24.453125 L 25.707031 24.289062 C 25.707031 24.289062 25.863281 24.289062 25.863281 24.453125 C 25.863281 24.453125 26.027344 24.609375 26.027344 24.777344 C 26.027344 24.777344 26.191406 24.777344 26.351562 24.941406 C 26.671875 25.097656 27 25.097656 27.480469 25.582031 C 27.644531 25.90625 27.964844 26.070312 28.285156 26.070312 C 28.613281 26.226562 28.9375 26.390625 29.257812 26.710938 C 28.9375 26.390625 28.613281 26.226562 28.449219 26.070312 C 28.128906 25.90625 27.808594 25.746094 27.640625 25.421875 C 27.320312 24.941406 26.835938 24.941406 26.671875 24.777344 C 26.515625 24.777344 26.515625 24.777344 26.351562 24.613281 C 26.027344 24.777344 26.027344 24.613281 25.863281 24.613281 C 25.863281 24.777344 25.863281 24.941406 26.191406 25.097656 C 26.347656 25.261719 26.347656 25.261719 26.511719 25.261719 C 26.671875 25.421875 27 25.421875 27.476562 25.90625 C 27.804688 26.226562 27.964844 26.390625 28.285156 26.554688 C 28.449219 26.710938 28.773438 26.710938 28.933594 27.035156 L 31.035156 27.84375 L 31.035156 28.003906 L 29.09375 27.199219 C 29.09375 27.199219 29.09375 27.03125 28.933594 27.03125 L 25.382812 25.746094 Z M 30.710938 28.328125 " fill-opacity="1" fill-rule="nonzero"/><path fill="#ffc107" d="M 31.039062 27.839844 L 26.675781 23.804688 L 26.515625 23.804688 L 26.515625 23.96875 L 30.554688 28.328125 M 29.902344 26.226562 C 29.582031 25.417969 28.9375 25.261719 28.773438 24.453125 C 28.617188 23.804688 27.964844 23.484375 27.808594 23.324219 C 27.644531 23.160156 27.644531 22.839844 27.644531 22.839844 C 27.644531 22.839844 27.480469 23.160156 27.644531 23.480469 C 27.808594 23.804688 28.132812 23.804688 28.453125 24.773438 C 28.773438 25.582031 29.261719 25.746094 29.421875 26.554688 " fill-opacity="1" fill-rule="nonzero"/><path fill="#bf360c" d="M 30.554688 28.328125 L 26.515625 23.96875 C 26.515625 23.96875 26.515625 23.96875 26.515625 23.804688 C 26.515625 23.804688 26.515625 23.804688 26.515625 23.644531 L 26.671875 23.644531 L 29.257812 26.066406 C 29.09375 25.902344 29.09375 25.746094 28.9375 25.746094 C 28.773438 25.582031 28.617188 25.261719 28.453125 24.9375 C 28.285156 24.453125 28.128906 24.132812 27.964844 23.96875 C 27.808594 23.804688 27.808594 23.804688 27.644531 23.644531 C 27.480469 23.324219 27.480469 23.160156 27.480469 22.996094 C 27.480469 22.996094 27.480469 22.996094 27.644531 22.996094 C 27.808594 22.996094 27.808594 23.160156 27.808594 23.160156 C 27.808594 23.324219 27.808594 23.324219 27.964844 23.484375 L 28.128906 23.648438 C 28.453125 23.804688 28.773438 24.132812 28.9375 24.613281 C 29.09375 24.941406 29.257812 25.261719 29.421875 25.421875 C 29.582031 25.746094 29.902344 25.90625 30.066406 26.390625 L 29.902344 26.390625 C 29.746094 26.070312 29.582031 25.746094 29.257812 25.582031 C 29.09375 25.261719 28.773438 25.097656 28.617188 24.777344 C 28.453125 24.289062 28.128906 23.96875 27.808594 23.804688 C 27.644531 23.804688 27.644531 23.648438 27.644531 23.648438 C 27.644531 23.160156 27.644531 23 27.644531 23 C 27.644531 23 27.644531 23.324219 27.808594 23.484375 C 27.808594 23.648438 27.964844 23.648438 28.128906 23.804688 C 28.285156 23.96875 28.453125 24.132812 28.773438 24.777344 C 28.9375 25.261719 29.09375 25.421875 29.257812 25.585938 C 29.421875 25.75 29.582031 25.90625 29.746094 26.226562 L 31.359375 27.84375 L 29.746094 26.390625 L 29.582031 26.390625 L 29.582031 26.226562 L 26.835938 23.648438 Z M 30.554688 28.328125 " fill-opacity="1" fill-rule="nonzero"/><path fill="#bf360c" d="M 28.773438 28.328125 C 27.964844 28.328125 27.644531 28.8125 26.835938 28.8125 C 27.480469 28.976562 27.808594 28.492188 28.773438 28.328125 M 30.875 27.839844 L 27 29.621094 L 30.875 28.167969 " fill-opacity="1" fill-rule="nonzero"/><path fill="#bf360c" d="M 28.773438 27.519531 C 27.964844 27.199219 27.480469 27.519531 26.835938 27.199219 C 27.324219 27.519531 27.964844 27.363281 28.773438 27.519531 M 30.875 27.839844 L 26.675781 28.003906 L 30.875 28.167969 " fill-opacity="1" fill-rule="nonzero"/><path fill="#bf360c" d="M 29.097656 26.710938 C 28.453125 26.226562 27.964844 26.226562 27.480469 25.746094 C 27.808594 26.226562 28.453125 26.226562 29.097656 26.710938 M 30.875 27.839844 L 27 26.390625 L 30.710938 28.167969 " fill-opacity="1" fill-rule="nonzero"/><path fill="#bf360c" d="M 29.746094 26.226562 C 29.421875 25.582031 28.773438 25.417969 28.617188 24.609375 C 28.617188 25.261719 29.257812 25.417969 29.746094 26.226562 M 31.039062 27.839844 L 27.964844 25.097656 L 30.710938 28.167969 " fill-opacity="1" fill-rule="nonzero"/><path fill="#ffc107" d="M 31.195312 27.839844 L 28.617188 22.351562 C 28.617188 22.351562 28.617188 22.1875 28.453125 22.351562 L 28.453125 22.515625 L 30.550781 28.167969 M 30.710938 26.066406 C 30.710938 25.261719 30.230469 24.777344 30.230469 23.96875 C 30.230469 23.160156 29.902344 22.839844 29.742188 22.515625 C 29.578125 22.1875 29.902344 22.03125 29.742188 22.03125 C 29.578125 22.03125 29.421875 22.1875 29.578125 22.675781 C 29.578125 23.160156 29.902344 23.160156 29.902344 24.132812 C 29.902344 25.097656 30.230469 25.261719 30.230469 26.066406 " fill-opacity="1" fill-rule="nonzero"/><path fill="#bf360c" d="M 30.554688 28.167969 L 28.453125 22.519531 L 28.453125 22.355469 C 28.453125 22.355469 28.617188 22.355469 28.617188 22.519531 L 30.066406 25.746094 C 30.066406 25.582031 30.066406 25.421875 29.902344 25.261719 C 29.746094 24.941406 29.746094 24.777344 29.746094 24.289062 C 29.746094 23.648438 29.746094 23.484375 29.582031 23.160156 C 29.582031 22.996094 29.425781 22.996094 29.425781 22.839844 C 29.425781 22.519531 29.425781 22.355469 29.582031 22.191406 L 29.746094 22.191406 L 29.746094 22.355469 C 29.746094 22.519531 29.746094 22.519531 29.746094 22.675781 C 29.746094 22.675781 29.746094 22.839844 29.902344 23 C 30.066406 23.324219 30.230469 23.648438 30.230469 24.289062 C 30.230469 24.613281 30.230469 24.941406 30.386719 25.261719 C 30.554688 25.582031 30.554688 25.90625 30.554688 26.390625 L 30.386719 26.390625 C 30.386719 25.90625 30.230469 25.582031 30.230469 25.421875 C 30.066406 25.097656 30.066406 24.777344 30.066406 24.457031 C 30.066406 23.96875 29.902344 23.484375 29.746094 23.324219 C 29.746094 23.160156 29.582031 23.160156 29.582031 23 C 29.582031 22.839844 29.582031 22.675781 29.582031 22.519531 C 29.582031 22.519531 29.421875 22.839844 29.421875 23 C 29.421875 23.164062 29.421875 23.164062 29.582031 23.324219 C 29.746094 23.484375 29.746094 23.804688 29.746094 24.457031 C 29.746094 24.941406 29.746094 25.097656 29.902344 25.421875 C 29.902344 25.585938 30.066406 25.90625 30.066406 26.226562 L 31.039062 28.328125 L 30.875 28.328125 L 30.066406 26.390625 L 29.902344 26.390625 L 29.902344 26.226562 L 28.285156 22.839844 Z M 30.554688 28.167969 " fill-opacity="1" fill-rule="nonzero"/><path fill="#ffc107" d="M 31.195312 28.003906 L 30.875 22.03125 L 30.875 21.867188 L 30.875 22.03125 L 30.554688 28.003906 M 31.519531 26.066406 C 31.84375 25.261719 31.519531 24.609375 31.84375 23.96875 C 32.167969 23.324219 32.003906 22.839844 32.003906 22.515625 C 32.003906 22.1875 32.324219 22.1875 32.167969 22.03125 C 32.003906 21.867188 31.84375 22.03125 31.679688 22.515625 C 31.515625 22.996094 31.84375 23.160156 31.359375 23.96875 C 30.875 24.777344 31.195312 25.097656 30.875 25.90625 " fill-opacity="1" fill-rule="nonzero"/><path fill="#bf360c" d="M 31.195312 28.003906 L 31.195312 25.90625 L 31.039062 25.90625 C 31.039062 25.90625 31.039062 25.746094 31.195312 25.746094 L 30.875 22.03125 L 30.554688 28.003906 L 30.386719 28.003906 L 30.554688 22.03125 C 30.554688 22.03125 30.554688 21.867188 30.710938 21.867188 C 30.875 21.867188 30.875 22.03125 30.875 22.03125 L 31.039062 25.421875 C 31.039062 25.261719 31.039062 25.097656 31.039062 24.941406 C 31.039062 24.613281 31.039062 24.289062 31.359375 23.96875 C 31.683594 23.484375 31.683594 23.160156 31.519531 23 C 31.519531 22.839844 31.519531 22.675781 31.519531 22.675781 C 31.519531 22.355469 31.84375 22.191406 31.84375 22.191406 L 32.003906 22.191406 L 32.003906 22.355469 C 32.003906 22.355469 31.84375 22.519531 31.84375 22.675781 C 31.84375 22.675781 31.84375 22.839844 31.84375 23 C 31.84375 23.324219 32.003906 23.804688 31.679688 24.289062 C 31.515625 24.613281 31.515625 24.941406 31.515625 25.261719 C 31.515625 25.582031 31.515625 25.90625 31.359375 26.390625 L 31.195312 26.390625 C 31.359375 26.070312 31.359375 25.746094 31.359375 25.421875 C 31.359375 25.097656 31.359375 24.777344 31.515625 24.457031 C 31.84375 23.96875 31.679688 23.484375 31.679688 23.324219 C 31.679688 23.160156 31.679688 23.160156 31.679688 23 C 31.679688 22.839844 31.84375 22.675781 31.84375 22.675781 C 31.84375 22.675781 31.679688 22.839844 31.519531 23.164062 C 31.519531 23.328125 31.519531 23.328125 31.519531 23.484375 C 31.519531 23.804688 31.519531 23.96875 31.195312 24.613281 C 31.039062 24.941406 31.039062 25.261719 30.875 25.585938 C 30.875 25.75 30.875 26.070312 30.710938 26.390625 Z M 31.195312 28.003906 " fill-opacity="1" fill-rule="nonzero"/><path fill="#ffc107" d="M 31.195312 28.167969 L 33.296875 22.519531 L 33.296875 22.355469 L 33.132812 22.355469 L 30.554688 27.84375 M 32.167969 26.390625 C 32.808594 25.902344 32.808594 25.097656 33.296875 24.609375 C 33.78125 24.132812 33.941406 23.480469 33.941406 23.324219 C 33.941406 23.160156 34.265625 22.996094 34.265625 22.996094 C 34.265625 22.839844 33.941406 22.996094 33.617188 23.324219 C 33.296875 23.644531 33.460938 23.96875 32.808594 24.609375 C 32.167969 25.261719 32.324219 25.746094 31.679688 26.226562 " fill-opacity="1" fill-rule="nonzero"/><path fill="#bf360c" d="M 31.195312 28.167969 L 31.84375 26.070312 C 31.84375 26.070312 32.003906 26.070312 32.003906 25.90625 L 33.296875 22.355469 L 30.707031 27.84375 L 30.550781 27.84375 L 33.132812 22.355469 L 33.296875 22.1875 C 33.296875 22.1875 33.460938 22.355469 33.296875 22.355469 L 32.167969 25.582031 C 32.324219 25.417969 32.324219 25.261719 32.488281 25.097656 C 32.652344 24.777344 32.808594 24.609375 33.132812 24.289062 C 33.617188 23.96875 33.617188 23.644531 33.78125 23.480469 C 33.78125 23.324219 33.9375 23.324219 33.9375 23.160156 C 34.101562 22.839844 34.425781 22.839844 34.425781 22.839844 L 34.589844 22.839844 C 34.589844 22.839844 34.589844 22.996094 34.425781 22.996094 C 34.425781 22.996094 34.265625 23.160156 34.101562 23.160156 C 34.101562 23.160156 34.101562 23.324219 33.9375 23.480469 C 33.78125 23.804688 33.78125 24.132812 33.296875 24.609375 C 32.972656 24.777344 32.808594 25.097656 32.808594 25.417969 C 32.652344 25.746094 32.488281 26.066406 32.164062 26.390625 C 32.488281 26.066406 32.652344 25.746094 32.808594 25.582031 C 32.972656 25.261719 33.128906 24.9375 33.457031 24.773438 C 33.9375 24.453125 33.9375 23.964844 34.101562 23.804688 C 34.101562 23.644531 34.101562 23.644531 34.265625 23.480469 C 34.421875 23.324219 34.421875 23.324219 34.585938 23.160156 C 34.421875 23.160156 34.265625 23.160156 34.101562 23.480469 C 33.9375 23.644531 33.9375 23.644531 33.9375 23.804688 C 33.78125 23.96875 33.78125 24.289062 33.292969 24.773438 C 32.652344 24.773438 32.484375 25.097656 32.484375 25.417969 C 32.320312 25.582031 32.320312 25.902344 32 26.066406 Z M 31.195312 28.167969 " fill-opacity="1" fill-rule="nonzero"/><path fill="#ffc107" d="M 31.039062 28.167969 L 35.078125 23.804688 L 35.078125 23.648438 L 34.910156 23.648438 L 30.554688 27.683594 M 32.652344 27.035156 C 33.460938 26.710938 33.617188 26.070312 34.425781 25.90625 C 35.074219 25.746094 35.398438 25.097656 35.554688 24.941406 C 35.71875 24.777344 36.042969 24.777344 36.042969 24.777344 C 36.042969 24.777344 35.71875 24.609375 35.398438 24.777344 C 35.078125 24.941406 35.078125 25.261719 34.105469 25.582031 C 33.296875 25.90625 33.132812 26.390625 32.328125 26.554688 " fill-opacity="1" fill-rule="nonzero"/><path fill="#bf360c" d="M 31.195312 28.328125 L 32.488281 26.710938 L 32.488281 26.554688 L 32.652344 26.554688 L 35.234375 23.804688 L 30.875 27.839844 L 35.234375 23.804688 C 35.234375 23.804688 35.234375 23.804688 35.398438 23.804688 L 35.398438 23.96875 L 32.8125 26.390625 C 32.976562 26.226562 33.132812 26.226562 33.132812 26.066406 C 33.296875 25.902344 33.621094 25.746094 33.941406 25.582031 C 34.425781 25.417969 34.75 25.261719 34.910156 25.097656 C 35.078125 24.9375 35.078125 24.9375 35.234375 24.773438 C 35.554688 24.609375 35.71875 24.609375 35.882812 24.609375 C 35.882812 24.609375 35.882812 24.609375 35.882812 24.773438 C 35.882812 24.9375 35.71875 24.9375 35.71875 24.9375 C 35.554688 24.9375 35.554688 24.9375 35.398438 25.097656 L 35.230469 25.261719 C 35.074219 25.582031 34.746094 25.902344 34.265625 26.066406 C 33.941406 26.226562 33.617188 26.390625 33.460938 26.554688 C 33.132812 26.710938 32.972656 27.035156 32.488281 27.199219 L 32.488281 27.03125 C 32.808594 26.875 33.132812 26.710938 33.296875 26.390625 C 33.617188 26.226562 33.78125 25.902344 34.105469 25.746094 C 34.589844 25.582031 34.910156 25.261719 35.074219 25.097656 C 35.074219 24.941406 35.230469 24.941406 35.230469 24.941406 C 35.71875 24.777344 35.882812 24.777344 35.882812 24.777344 C 35.882812 24.777344 35.554688 24.777344 35.394531 24.941406 C 35.230469 24.941406 35.230469 25.097656 35.074219 25.261719 C 34.910156 25.417969 34.746094 25.582031 34.101562 25.90625 C 33.617188 26.070312 33.460938 26.226562 33.296875 26.390625 C 33.128906 26.554688 32.972656 26.710938 32.652344 26.878906 Z M 31.195312 28.328125 " fill-opacity="1" fill-rule="nonzero"/><path fill="#bf360c" d="M 30.554688 25.90625 C 30.554688 25.097656 30.066406 24.777344 30.066406 23.96875 C 29.902344 24.609375 30.386719 24.941406 30.554688 25.90625 M 31.039062 28.003906 L 29.261719 24.132812 L 30.710938 28.003906 " fill-opacity="1" fill-rule="nonzero"/><path fill="#bf360c" d="M 31.359375 25.90625 C 31.683594 25.097656 31.359375 24.613281 31.683594 23.96875 C 31.359375 24.453125 31.519531 25.097656 31.359375 25.90625 M 31.039062 28.003906 L 30.875 23.804688 L 30.710938 28.003906 " fill-opacity="1" fill-rule="nonzero"/><path fill="#bf360c" d="M 32.167969 26.226562 C 32.652344 25.582031 32.652344 25.097656 33.132812 24.609375 C 32.652344 24.941406 32.652344 25.582031 32.167969 26.226562 M 31.039062 28.003906 L 32.488281 24.132812 L 30.710938 28.003906 " fill-opacity="1" fill-rule="nonzero"/><path fill="#bf360c" d="M 32.652344 26.875 C 33.296875 26.554688 33.460938 25.90625 34.269531 25.746094 C 33.78125 25.746094 33.460938 26.390625 32.652344 26.875 M 31.039062 28.167969 L 33.78125 25.097656 L 30.710938 27.839844 " fill-opacity="1" fill-rule="nonzero"/><path fill="#ffc107" d="M 31.039062 28.328125 L 36.527344 25.746094 C 36.527344 25.746094 36.691406 25.746094 36.527344 25.582031 L 36.363281 25.582031 L 30.710938 27.683594 M 32.8125 27.839844 C 33.621094 27.839844 34.105469 27.359375 34.910156 27.359375 C 35.71875 27.359375 36.042969 27.03125 36.363281 26.875 C 36.691406 26.710938 36.847656 27.03125 36.847656 26.875 C 36.847656 26.710938 36.691406 26.554688 36.207031 26.710938 C 35.71875 26.710938 35.71875 27.03125 34.75 27.03125 C 33.785156 27.03125 33.621094 27.359375 32.8125 27.359375 " fill-opacity="1" fill-rule="nonzero"/><path fill="#bf360c" d="M 31.039062 28.328125 L 32.976562 27.363281 L 32.976562 27.199219 L 33.132812 27.199219 L 36.527344 25.582031 L 30.875 27.683594 L 30.875 27.519531 L 36.527344 25.417969 L 36.691406 25.417969 C 36.691406 25.582031 36.691406 25.582031 36.527344 25.582031 L 33.296875 27.035156 C 33.460938 27.035156 33.617188 27.035156 33.78125 26.878906 C 34.105469 26.710938 34.269531 26.710938 34.746094 26.710938 C 34.910156 26.710938 34.910156 26.710938 35.074219 26.710938 C 35.554688 26.710938 35.71875 26.554688 35.882812 26.554688 C 36.039062 26.554688 36.039062 26.390625 36.203125 26.390625 C 36.527344 26.390625 36.691406 26.390625 36.847656 26.554688 L 36.847656 26.710938 L 36.691406 26.710938 C 36.527344 26.710938 36.527344 26.710938 36.363281 26.710938 C 36.363281 26.710938 36.207031 26.710938 36.042969 26.878906 C 35.71875 27.035156 35.398438 27.199219 35.078125 27.199219 L 34.746094 27.199219 C 34.425781 27.199219 34.265625 27.363281 33.941406 27.363281 C 33.617188 27.519531 33.296875 27.519531 32.976562 27.519531 L 32.976562 27.363281 C 33.296875 27.363281 33.617188 27.199219 33.941406 27.199219 C 34.265625 27.035156 34.589844 27.035156 34.910156 27.035156 C 35.398438 27.035156 35.882812 26.878906 36.039062 26.710938 C 36.203125 26.710938 36.203125 26.554688 36.363281 26.554688 C 36.527344 26.554688 36.6875 26.554688 36.847656 26.554688 C 36.847656 26.554688 36.527344 26.390625 36.363281 26.390625 C 36.203125 26.390625 36.203125 26.390625 36.039062 26.554688 C 35.882812 26.710938 35.554688 26.710938 34.910156 26.710938 C 34.425781 26.710938 34.265625 26.710938 33.941406 26.878906 C 33.78125 26.878906 33.460938 27.035156 33.296875 27.035156 Z M 31.039062 28.328125 " fill-opacity="1" fill-rule="nonzero"/><path fill="#ffc107" d="M 30.875 28.328125 L 36.847656 28.167969 L 37.011719 28.167969 L 36.847656 28.167969 L 30.875 27.683594 M 32.8125 28.648438 C 33.621094 28.976562 34.269531 28.648438 34.910156 28.976562 C 35.554688 29.296875 36.042969 29.132812 36.363281 29.132812 C 36.691406 29.132812 36.691406 29.453125 36.847656 29.296875 C 37.011719 29.132812 36.847656 28.976562 36.363281 28.8125 C 35.882812 28.648438 35.71875 28.976562 34.910156 28.488281 C 34.105469 28.003906 33.78125 28.324219 32.976562 28.003906 " fill-opacity="1" fill-rule="nonzero"/><path fill="#bf360c" d="M 36.847656 29.457031 C 36.691406 29.457031 36.691406 29.296875 36.847656 29.457031 C 36.691406 29.300781 36.527344 29.300781 36.363281 29.300781 C 36.363281 29.300781 36.203125 29.300781 36.039062 29.300781 C 35.71875 29.300781 35.230469 29.457031 34.746094 29.132812 C 34.425781 28.976562 34.105469 28.976562 33.78125 28.976562 C 33.460938 28.976562 33.132812 28.976562 32.652344 28.8125 L 32.652344 28.648438 C 32.976562 28.8125 33.296875 28.8125 33.617188 28.8125 C 33.941406 28.8125 34.265625 28.8125 34.589844 28.976562 C 35.074219 29.300781 35.398438 29.132812 35.71875 29.132812 C 35.882812 29.132812 35.882812 29.132812 36.039062 29.132812 C 36.527344 29.132812 36.691406 29.132812 36.847656 29.457031 C 36.691406 29.296875 36.847656 29.296875 36.847656 29.457031 C 36.847656 29.296875 36.847656 29.296875 36.847656 29.457031 C 36.847656 29.300781 36.691406 29.132812 36.363281 28.976562 C 36.203125 28.976562 36.203125 28.976562 36.039062 28.976562 C 35.71875 28.976562 35.554688 28.976562 34.910156 28.648438 C 34.589844 28.492188 34.265625 28.492188 33.941406 28.328125 C 33.78125 28.328125 33.460938 28.328125 33.132812 28.167969 L 30.875 28.328125 L 30.875 28.167969 L 32.976562 28.167969 L 32.976562 28.003906 C 32.976562 28.003906 33.132812 28.003906 33.132812 28.167969 L 36.847656 28.003906 L 30.875 27.683594 L 30.875 27.519531 L 36.847656 27.683594 C 36.847656 27.683594 37.011719 27.683594 37.011719 27.839844 C 37.011719 28.003906 36.847656 28.003906 36.847656 28.003906 L 33.460938 28.167969 C 33.617188 28.167969 33.78125 28.167969 33.941406 28.167969 C 34.265625 28.167969 34.589844 28.167969 34.910156 28.492188 C 35.398438 28.8125 35.71875 28.8125 35.882812 28.648438 C 36.039062 28.648438 36.203125 28.648438 36.203125 28.648438 C 36.691406 28.976562 36.847656 29.132812 36.847656 29.457031 C 36.847656 29.296875 36.847656 29.296875 36.847656 29.457031 Z M 36.847656 29.457031 " fill-opacity="1" fill-rule="nonzero"/><path fill="#ffc107" d="M 30.710938 28.328125 L 36.363281 30.425781 L 36.527344 30.425781 L 36.527344 30.265625 L 31.039062 27.683594 M 32.488281 29.296875 C 32.976562 29.941406 33.78125 29.941406 34.269531 30.425781 C 34.75 30.914062 35.398438 31.070312 35.554688 31.070312 C 35.71875 31.070312 35.882812 31.398438 35.882812 31.398438 C 36.039062 31.398438 35.882812 31.070312 35.554688 30.75 C 35.234375 30.425781 34.910156 30.589844 34.269531 29.941406 C 33.621094 29.296875 33.132812 29.453125 32.652344 28.8125 " fill-opacity="1" fill-rule="nonzero"/><path fill="#bf360c" d="M 35.882812 31.554688 C 35.71875 31.554688 35.71875 31.554688 35.882812 31.554688 C 35.71875 31.398438 35.71875 31.234375 35.554688 31.234375 C 35.554688 31.234375 35.398438 31.234375 35.234375 31.070312 C 34.910156 30.914062 34.589844 30.914062 34.105469 30.425781 C 33.941406 30.105469 33.617188 29.941406 33.296875 29.941406 C 32.976562 29.785156 32.652344 29.621094 32.324219 29.296875 C 32.652344 29.621094 32.976562 29.785156 33.132812 29.941406 C 33.460938 30.105469 33.78125 30.261719 33.941406 30.589844 C 34.269531 31.070312 34.75 31.070312 34.910156 31.234375 C 35.078125 31.234375 35.078125 31.234375 35.234375 31.398438 C 35.71875 31.234375 35.71875 31.398438 35.882812 31.554688 C 35.882812 31.398438 35.882812 31.398438 35.882812 31.554688 C 35.882812 31.398438 35.882812 31.398438 35.882812 31.554688 C 35.882812 31.398438 35.882812 31.070312 35.554688 30.914062 C 35.398438 30.75 35.398438 30.75 35.234375 30.75 C 35.078125 30.589844 34.746094 30.589844 34.269531 30.105469 C 34.105469 29.785156 33.78125 29.621094 33.460938 29.621094 C 33.296875 29.453125 32.976562 29.453125 32.8125 29.132812 L 30.710938 28.324219 L 30.710938 28.167969 L 32.65625 28.976562 C 32.65625 28.976562 32.65625 29.132812 32.8125 29.132812 L 36.363281 30.425781 L 30.875 27.839844 L 30.875 27.683594 L 36.363281 30.265625 L 36.527344 30.429688 C 36.527344 30.429688 36.363281 30.59375 36.363281 30.429688 L 33.132812 29.300781 C 33.296875 29.457031 33.460938 29.457031 33.621094 29.621094 C 33.941406 29.785156 34.105469 29.941406 34.425781 30.265625 C 34.75 30.75 35.078125 30.75 35.234375 30.914062 C 35.398438 30.914062 35.398438 31.070312 35.554688 31.070312 C 35.882812 31.070312 36.042969 31.398438 35.882812 31.554688 Z M 35.882812 31.554688 " fill-opacity="1" fill-rule="nonzero"/><path fill="#ffc107" d="M 30.710938 28.167969 L 35.074219 32.207031 L 35.230469 32.207031 L 35.230469 32.042969 L 31.195312 27.683594 M 31.84375 29.785156 C 32.167969 30.589844 32.808594 30.75 32.976562 31.554688 C 33.132812 32.207031 33.78125 32.527344 33.941406 32.6875 C 34.105469 32.851562 34.105469 33.171875 34.105469 33.171875 C 34.105469 33.171875 34.269531 32.851562 34.105469 32.527344 C 33.941406 32.207031 33.617188 32.207031 33.296875 31.234375 C 32.976562 30.429688 32.488281 30.265625 32.324219 29.457031 " fill-opacity="1" fill-rule="nonzero"/><path fill="#bf360c" d="M 34.105469 33.171875 C 34.105469 33.015625 34.105469 32.851562 33.941406 32.6875 L 33.78125 32.527344 C 33.460938 32.363281 33.132812 32.042969 32.976562 31.558594 C 32.808594 31.234375 32.652344 30.914062 32.488281 30.75 C 32.324219 30.429688 32.003906 30.265625 31.84375 29.785156 L 32.003906 29.785156 C 32.167969 30.105469 32.324219 30.429688 32.652344 30.59375 C 32.808594 30.914062 33.132812 31.074219 33.296875 31.402344 C 33.460938 31.878906 33.78125 32.207031 34.101562 32.367188 C 34.265625 32.367188 34.265625 32.53125 34.265625 32.53125 C 34.101562 32.851562 34.101562 33.015625 34.101562 33.015625 L 34.101562 33.171875 C 34.105469 33.171875 34.105469 33.011719 34.105469 33.171875 C 34.105469 33.015625 34.105469 32.6875 33.941406 32.527344 C 33.941406 32.363281 33.78125 32.363281 33.617188 32.207031 C 33.460938 32.042969 33.296875 31.878906 32.976562 31.234375 C 32.808594 30.75 32.652344 30.59375 32.488281 30.429688 C 32.324219 30.265625 32.167969 30.105469 32.003906 29.785156 L 30.386719 28.167969 L 32.003906 29.621094 L 32.167969 29.621094 L 32.167969 29.785156 L 34.910156 32.367188 L 30.875 28.003906 L 34.910156 32.363281 C 34.910156 32.363281 34.910156 32.363281 34.910156 32.527344 C 34.910156 32.527344 34.910156 32.527344 34.910156 32.6875 L 34.746094 32.6875 L 32.488281 29.941406 C 32.652344 30.105469 32.652344 30.265625 32.808594 30.265625 C 32.976562 30.429688 33.132812 30.75 33.296875 31.070312 C 33.460938 31.558594 33.617188 31.878906 33.78125 32.042969 C 33.941406 32.207031 33.941406 32.207031 34.105469 32.363281 C 34.269531 32.851562 34.269531 33.011719 34.105469 33.171875 C 34.269531 33.171875 34.269531 33.171875 34.105469 33.171875 Z M 34.105469 33.171875 " fill-opacity="1" fill-rule="nonzero"/><path fill="#bf360c" d="M 32.976562 27.683594 C 33.78125 27.683594 34.105469 27.199219 34.910156 27.199219 C 34.269531 27.035156 33.941406 27.519531 32.976562 27.683594 M 30.875 28.167969 L 34.589844 26.390625 L 30.875 27.839844 " fill-opacity="1" fill-rule="nonzero"/><path fill="#bf360c" d="M 32.976562 28.492188 C 33.78125 28.8125 34.265625 28.492188 34.910156 28.8125 C 34.425781 28.492188 33.78125 28.648438 32.976562 28.492188 M 30.875 28.167969 L 35.074219 28.003906 L 30.875 27.839844 " fill-opacity="1" fill-rule="nonzero"/><path fill="#bf360c" d="M 32.652344 29.296875 C 33.296875 29.785156 33.78125 29.785156 34.269531 30.261719 C 33.941406 29.785156 33.296875 29.785156 32.652344 29.296875 M 30.875 28.167969 L 34.746094 29.621094 L 30.875 27.839844 " fill-opacity="1" fill-rule="nonzero"/><path fill="#bf360c" d="M 32.003906 29.785156 C 32.324219 30.425781 32.976562 30.589844 33.132812 31.398438 C 33.132812 30.914062 32.488281 30.589844 32.003906 29.785156 M 30.710938 28.167969 L 33.78125 30.914062 L 31.039062 27.839844 " fill-opacity="1" fill-rule="nonzero"/><path fill="#ffc107" d="M 33.296875 28.003906 C 33.296875 29.296875 32.167969 30.425781 30.875 30.425781 C 29.582031 30.425781 28.453125 29.296875 28.453125 28.003906 C 28.453125 26.710938 29.582031 25.582031 30.875 25.582031 C 32.167969 25.582031 33.296875 26.710938 33.296875 28.003906 Z M 33.296875 28.003906 " fill-opacity="1" fill-rule="nonzero"/><path fill="#bf360c" d="M 30.875 30.589844 C 29.421875 30.589844 28.289062 29.457031 28.289062 28.003906 C 28.289062 26.554688 29.421875 25.417969 30.875 25.417969 C 32.324219 25.417969 33.460938 26.554688 33.460938 28.003906 C 33.460938 29.457031 32.324219 30.589844 30.875 30.589844 Z M 30.875 25.582031 C 29.582031 25.582031 28.453125 26.710938 28.453125 28.003906 C 28.453125 29.296875 29.582031 30.425781 30.875 30.425781 C 32.167969 30.425781 33.296875 29.296875 33.296875 28.003906 C 33.296875 26.710938 32.167969 25.582031 30.875 25.582031 Z M 30.875 25.582031 " fill-opacity="1" fill-rule="nonzero"/><path fill="#843511" d="M 31.683594 27.519531 C 31.519531 27.519531 31.359375 27.519531 31.195312 27.683594 C 31.359375 27.839844 31.84375 27.839844 32.167969 27.683594 C 32.003906 27.519531 31.84375 27.519531 31.683594 27.519531 Z M 31.683594 27.519531 C 31.847656 27.519531 32.003906 27.519531 32.003906 27.683594 C 31.847656 27.839844 31.519531 27.839844 31.359375 27.683594 C 31.519531 27.519531 31.519531 27.519531 31.683594 27.519531 Z M 31.683594 27.519531 " fill-opacity="1" fill-rule="nonzero"/><path fill="#bf360c" d="M 31.683594 27.363281 C 31.359375 27.363281 31.359375 27.363281 31.195312 27.519531 C 31.039062 27.683594 31.039062 27.519531 31.039062 27.683594 C 31.039062 27.839844 31.039062 27.683594 31.039062 27.683594 C 31.039062 27.683594 31.195312 27.683594 31.195312 27.519531 C 31.195312 27.363281 31.683594 27.363281 31.683594 27.363281 C 32.003906 27.363281 32.167969 27.683594 32.167969 27.683594 C 32.324219 27.683594 32.167969 27.363281 31.683594 27.363281 Z M 31.683594 27.363281 " fill-opacity="1" fill-rule="nonzero"/><path fill="#bf360c" d="M 32.488281 27.519531 C 32.003906 27.199219 31.519531 27.03125 31.199219 27.363281 C 31.199219 27.519531 31.039062 27.519531 31.039062 27.683594 C 31.039062 27.839844 31.039062 28.167969 31.199219 28.328125 C 31.039062 28.003906 31.039062 27.683594 31.039062 27.519531 L 31.039062 27.363281 C 31.519531 26.875 32.003906 26.875 32.488281 27.519531 Z M 32.488281 27.519531 " fill-opacity="1" fill-rule="nonzero"/><path fill="#bf360c" d="M 31.84375 27.683594 C 31.84375 27.839844 31.84375 27.839844 31.679688 27.839844 C 31.515625 27.839844 31.515625 27.839844 31.515625 27.683594 C 31.515625 27.519531 31.515625 27.519531 31.679688 27.519531 C 31.84375 27.519531 31.84375 27.519531 31.84375 27.683594 Z M 31.84375 27.683594 " fill-opacity="1" fill-rule="nonzero"/><path fill="#bf360c" d="M 32.167969 27.839844 C 31.84375 28.167969 31.519531 28.003906 31.359375 28.003906 C 31.195312 28.003906 31.195312 27.839844 31.195312 27.839844 C 31.195312 27.839844 31.195312 27.839844 31.359375 28.003906 C 31.519531 28.167969 31.84375 28.003906 32.167969 27.839844 Z M 32.167969 27.839844 " fill-opacity="1" fill-rule="nonzero"/><path fill="#bf360c" d="M 30.554688 28.328125 L 30.386719 28.492188 C 30.386719 28.648438 30.386719 28.648438 30.554688 28.648438 L 31.195312 28.648438 C 31.359375 28.648438 31.359375 28.648438 31.359375 28.492188 C 31.359375 28.328125 31.359375 28.328125 31.195312 28.328125 C 31.195312 28.328125 31.195312 28.328125 31.195312 28.492188 C 31.195312 28.492188 31.195312 28.648438 31.039062 28.648438 C 31.039062 28.648438 30.875 28.648438 30.875 28.492188 L 30.710938 28.648438 C 30.710938 28.648438 30.710938 28.492188 30.554688 28.328125 C 30.710938 28.492188 30.710938 28.492188 30.554688 28.492188 C 30.554688 28.492188 30.386719 28.492188 30.554688 28.328125 C 30.386719 28.328125 30.386719 28.328125 30.554688 28.328125 Z M 30.554688 28.328125 " fill-opacity="1" fill-rule="nonzero"/><path fill="#bf360c" d="M 30.710938 28.8125 C 30.554688 28.8125 30.386719 28.976562 30.230469 29.132812 C 30.386719 29.132812 30.386719 28.976562 30.710938 28.8125 L 30.875 28.976562 C 30.875 28.976562 31.039062 28.8125 31.195312 28.976562 C 31.359375 29.132812 31.359375 29.132812 31.519531 29.132812 C 31.359375 28.976562 31.195312 28.8125 31.039062 28.8125 L 30.875 28.8125 C 30.710938 28.8125 30.710938 28.8125 30.710938 28.8125 Z M 30.710938 28.8125 " fill-opacity="1" fill-rule="nonzero"/><path fill="#bf360c" d="M 30.554688 29.132812 C 30.554688 29.132812 30.386719 29.132812 30.230469 29.132812 C 30.554688 29.132812 30.710938 29.132812 30.710938 29.132812 C 30.875 29.132812 30.875 28.976562 31.359375 29.132812 C 31.039062 28.976562 30.875 29.132812 30.710938 29.132812 C 30.875 29.132812 30.710938 29.132812 30.554688 29.132812 Z M 30.554688 29.132812 " fill-opacity="1" fill-rule="nonzero"/><path fill="#bf360c" d="M 30.386719 29.132812 C 30.230469 29.132812 30.230469 29.132812 30.386719 29.132812 C 30.710938 29.132812 30.554688 29.457031 30.875 29.457031 C 31.195312 29.457031 31.039062 29.300781 31.519531 29.132812 C 31.039062 29.132812 31.195312 29.300781 30.875 29.300781 C 30.554688 29.300781 30.710938 29.132812 30.386719 29.132812 Z M 30.386719 29.132812 " fill-opacity="1" fill-rule="nonzero"/><path fill="#bf360c" d="M 31.195312 29.785156 C 31.195312 29.621094 31.039062 29.457031 30.875 29.457031 C 30.710938 29.457031 30.554688 29.621094 30.554688 29.785156 C 30.554688 29.621094 30.710938 29.457031 30.875 29.457031 C 31.039062 29.457031 31.195312 29.621094 31.195312 29.785156 Z M 31.195312 29.785156 " fill-opacity="1" fill-rule="nonzero"/><path fill="#bf360c" d="M 29.421875 27.519531 C 29.902344 27.199219 30.386719 27.03125 30.710938 27.363281 C 30.710938 27.519531 30.875 27.519531 30.875 27.683594 C 30.875 27.839844 30.875 28.167969 30.710938 28.328125 C 30.875 28.003906 30.875 27.839844 30.875 27.519531 L 30.875 27.363281 C 30.386719 26.875 29.746094 26.875 29.421875 27.519531 Z M 29.421875 27.519531 " fill-opacity="1" fill-rule="nonzero"/><path fill="#bf360c" d="M 30.066406 27.363281 C 30.386719 27.363281 30.386719 27.363281 30.554688 27.519531 C 30.710938 27.683594 30.710938 27.519531 30.710938 27.683594 C 30.710938 27.839844 30.710938 27.683594 30.710938 27.683594 C 30.710938 27.683594 30.554688 27.683594 30.554688 27.519531 C 30.554688 27.363281 30.066406 27.363281 30.066406 27.363281 C 29.746094 27.363281 29.582031 27.683594 29.421875 27.683594 C 29.421875 27.683594 29.582031 27.363281 30.066406 27.363281 Z M 30.066406 27.363281 " fill-opacity="1" fill-rule="nonzero"/><path fill="#843511" d="M 30.066406 27.519531 C 29.902344 27.519531 29.746094 27.519531 29.582031 27.683594 C 29.746094 27.839844 30.230469 27.839844 30.550781 27.683594 C 30.386719 27.519531 30.230469 27.519531 30.066406 27.519531 Z M 30.066406 27.519531 C 30.230469 27.519531 30.386719 27.519531 30.386719 27.683594 C 30.230469 27.839844 29.902344 27.839844 29.746094 27.683594 C 29.746094 27.519531 29.902344 27.519531 30.066406 27.519531 Z M 30.066406 27.519531 " fill-opacity="1" fill-rule="nonzero"/><path fill="#bf360c" d="M 30.230469 27.683594 C 30.230469 27.839844 30.230469 27.839844 30.066406 27.839844 C 29.902344 27.839844 29.902344 27.839844 29.902344 27.683594 C 29.902344 27.519531 29.902344 27.519531 30.066406 27.519531 C 30.066406 27.519531 30.230469 27.519531 30.230469 27.683594 Z M 30.230469 27.683594 " fill-opacity="1" fill-rule="nonzero"/><path fill="#bf360c" d="M 29.582031 27.839844 C 29.902344 28.167969 30.230469 28.003906 30.386719 28.003906 C 30.554688 27.839844 30.554688 27.839844 30.554688 27.839844 C 30.554688 27.839844 30.554688 27.839844 30.386719 28.003906 C 30.230469 28.167969 29.902344 28.003906 29.582031 27.839844 Z M 29.582031 27.839844 " fill-opacity="1" fill-rule="nonzero"/></svg>