<svg xmlns="http://www.w3.org/2000/svg" xmlns:xlink="http://www.w3.org/1999/xlink" width="82" zoomAndPan="magnify" viewBox="0 0 61.5 106.499998" height="142" preserveAspectRatio="xMidYMid meet" version="1.0"><defs><clipPath id="893ea08389"><path d="M 3.160156 50.695312 L 58.289062 50.695312 L 58.289062 105.824219 L 3.160156 105.824219 Z M 3.160156 50.695312 " clip-rule="nonzero"/></clipPath><clipPath id="495ea1c55f"><path d="M 30.726562 50.695312 C 15.503906 50.695312 3.160156 63.035156 3.160156 78.257812 C 3.160156 93.480469 15.503906 105.824219 30.726562 105.824219 C 45.949219 105.824219 58.289062 93.480469 58.289062 78.257812 C 58.289062 63.035156 45.949219 50.695312 30.726562 50.695312 Z M 30.726562 50.695312 " clip-rule="nonzero"/></clipPath><clipPath id="7c927c4069"><path d="M 13.375 61.117188 L 47.085938 61.117188 L 47.085938 94.828125 L 13.375 94.828125 Z M 13.375 61.117188 " clip-rule="nonzero"/></clipPath><clipPath id="f114550b1d"><path d="M 30.230469 61.117188 C 20.921875 61.117188 13.375 68.664062 13.375 77.972656 C 13.375 87.28125 20.921875 94.828125 30.230469 94.828125 C 39.539062 94.828125 47.085938 87.28125 47.085938 77.972656 C 47.085938 68.664062 39.539062 61.117188 30.230469 61.117188 Z M 30.230469 61.117188 " clip-rule="nonzero"/></clipPath><clipPath id="69dab0b354"><path d="M 24.867188 72.335938 L 36.136719 72.335938 L 36.136719 83.609375 L 24.867188 83.609375 Z M 24.867188 72.335938 " clip-rule="nonzero"/></clipPath><clipPath id="046e404f00"><path d="M 30.503906 72.335938 C 27.390625 72.335938 24.867188 74.859375 24.867188 77.972656 C 24.867188 81.085938 27.390625 83.609375 30.503906 83.609375 C 33.613281 83.609375 36.136719 81.085938 36.136719 77.972656 C 36.136719 74.859375 33.613281 72.335938 30.503906 72.335938 Z M 30.503906 72.335938 " clip-rule="nonzero"/></clipPath><clipPath id="0bbfc03d82"><path d="M 2.4375 0.179688 L 58.234375 0.179688 L 58.234375 73.832031 L 2.4375 73.832031 Z M 2.4375 0.179688 " clip-rule="nonzero"/></clipPath><clipPath id="0264fd5cea"><path d="M 5.542969 2.339844 L 55.386719 2.339844 L 55.386719 52.183594 L 5.542969 52.183594 Z M 5.542969 2.339844 " clip-rule="nonzero"/></clipPath><clipPath id="3e807321aa"><path d="M 6 2.339844 L 32 2.339844 L 32 20 L 6 20 Z M 6 2.339844 " clip-rule="nonzero"/></clipPath><clipPath id="2998a7cf44"><path d="M 20 2.339844 L 32 2.339844 L 32 9 L 20 9 Z M 20 2.339844 " clip-rule="nonzero"/></clipPath></defs><g clip-path="url(#893ea08389)"><g clip-path="url(#495ea1c55f)"><path fill="#e6f5f0" d="M 3.160156 50.695312 L 58.289062 50.695312 L 58.289062 105.824219 L 3.160156 105.824219 Z M 3.160156 50.695312 " fill-opacity="1" fill-rule="nonzero"/></g></g><g clip-path="url(#7c927c4069)"><g clip-path="url(#f114550b1d)"><path fill="#bbe5d6" d="M 13.375 61.117188 L 47.085938 61.117188 L 47.085938 94.828125 L 13.375 94.828125 Z M 13.375 61.117188 " fill-opacity="1" fill-rule="nonzero"/></g></g><g clip-path="url(#69dab0b354)"><g clip-path="url(#046e404f00)"><path fill="#0ca273" d="M 24.867188 72.335938 L 36.136719 72.335938 L 36.136719 83.609375 L 24.867188 83.609375 Z M 24.867188 72.335938 " fill-opacity="1" fill-rule="nonzero"/></g></g><g clip-path="url(#0bbfc03d82)"><path fill="#000000" d="M 58.179688 28.011719 C 58.152344 12.613281 45.664062 0.15625 30.296875 0.1875 C 14.925781 0.214844 2.488281 12.71875 2.515625 28.113281 C 2.527344 33.453125 4.136719 38.375 6.640625 42.671875 C 12.292969 52.375 30.433594 73.8125 30.433594 73.8125 C 30.433594 73.8125 48.742188 51.988281 54.316406 42.234375 C 56.714844 38.027344 58.191406 33.203125 58.179688 28.011719 Z M 30.308594 6.625 C 42.132812 6.601562 51.730469 16.183594 51.753906 28.023438 C 51.777344 39.863281 42.210938 49.480469 30.386719 49.503906 C 18.566406 49.523438 8.964844 39.941406 8.941406 28.101562 C 8.921875 16.261719 18.484375 6.644531 30.308594 6.625 Z M 30.308594 6.625 " fill-opacity="1" fill-rule="nonzero"/></g><g clip-path="url(#0264fd5cea)"><path fill="#283593" d="M 55.386719 27.261719 C 55.386719 41.027344 44.230469 52.183594 30.464844 52.183594 C 16.699219 52.183594 5.542969 41.027344 5.542969 27.261719 C 5.542969 24.5 5.992188 21.84375 6.820312 19.359375 C 8.421875 14.566406 18.613281 11.0625 18.613281 11.0625 C 18.613281 11.0625 18.664062 5.214844 20.492188 4.414062 C 23.546875 3.078125 26.917969 2.339844 30.464844 2.339844 C 44.230469 2.339844 55.386719 13.496094 55.386719 27.261719 Z M 55.386719 27.261719 " fill-opacity="1" fill-rule="nonzero"/></g><path fill="#ffffff" d="M 16.757812 32.246094 L 17.496094 34.601562 L 19.753906 33.726562 L 18.417969 35.789062 L 20.496094 37.054688 L 18.089844 37.269531 L 18.421875 39.722656 L 16.757812 37.925781 L 15.09375 39.722656 L 15.425781 37.269531 L 13.019531 37.054688 L 15.097656 35.789062 L 13.757812 33.726562 L 16.015625 34.605469 Z M 16.757812 32.246094 " fill-opacity="1" fill-rule="nonzero"/><path fill="#ffffff" d="M 43.550781 35.984375 L 43.917969 37.160156 L 45.046875 36.722656 L 44.382812 37.757812 L 45.417969 38.390625 L 44.214844 38.496094 L 44.382812 39.722656 L 43.550781 38.828125 L 42.714844 39.722656 L 42.882812 38.496094 L 41.679688 38.390625 L 42.714844 37.757812 L 42.050781 36.722656 L 43.179688 37.160156 Z M 43.550781 35.984375 " fill-opacity="1" fill-rule="nonzero"/><path fill="#ffffff" d="M 37.273438 24.75 L 37.644531 25.929688 L 38.773438 25.488281 L 38.105469 26.519531 L 39.144531 27.152344 L 37.941406 27.261719 L 38.105469 28.488281 L 37.273438 27.59375 L 36.441406 28.488281 L 36.609375 27.261719 L 35.40625 27.152344 L 36.449219 26.519531 L 35.777344 25.488281 L 36.90625 25.929688 Z M 37.273438 24.75 " fill-opacity="1" fill-rule="nonzero"/><path fill="#ffffff" d="M 43.550781 17.292969 L 43.917969 18.46875 L 45.046875 18.03125 L 44.382812 19.0625 L 45.417969 19.699219 L 44.214844 19.804688 L 44.382812 21.03125 L 43.550781 20.132812 L 42.714844 21.03125 L 42.882812 19.804688 L 41.679688 19.699219 L 42.714844 19.0625 L 42.050781 18.03125 L 43.179688 18.46875 Z M 43.550781 17.292969 " fill-opacity="1" fill-rule="nonzero"/><path fill="#ffffff" d="M 51.027344 23.523438 L 51.394531 24.699219 L 52.523438 24.261719 L 51.859375 25.292969 L 52.894531 25.929688 L 51.691406 26.035156 L 51.859375 27.261719 L 51.027344 26.367188 L 50.195312 27.261719 L 50.359375 26.035156 L 49.15625 25.929688 L 50.195312 25.292969 L 49.527344 24.261719 L 50.65625 24.699219 Z M 51.027344 23.523438 " fill-opacity="1" fill-rule="nonzero"/><path fill="#ffffff" d="M 46.664062 28.507812 L 47.003906 29.386719 L 47.910156 29.460938 L 47.21875 30.074219 L 47.433594 31 L 46.664062 30.5 L 45.894531 31 L 46.109375 30.074219 L 45.417969 29.460938 L 46.324219 29.386719 Z M 46.664062 28.507812 " fill-opacity="1" fill-rule="nonzero"/><g clip-path="url(#3e807321aa)"><path fill="#ffffff" d="M 20.496094 8.0625 L 20.496094 4.425781 C 18.710938 5.207031 17.046875 6.199219 15.511719 7.355469 L 15.511719 7.710938 L 15.253906 7.550781 C 11.386719 10.539062 8.421875 14.632812 6.839844 19.367188 L 15.511719 13.953125 L 15.511719 19.785156 L 20.496094 19.785156 L 20.496094 13.597656 L 30.402344 19.785156 L 31.710938 19.785156 L 31.710938 16.535156 L 26.941406 13.554688 L 31.710938 13.554688 L 31.710938 8.570312 L 26.203125 8.570312 L 31.710938 5.128906 L 31.710938 2.402344 C 31.296875 2.382812 30.886719 2.339844 30.464844 2.339844 C 30.171875 2.339844 29.886719 2.371094 29.597656 2.382812 Z M 20.496094 8.0625 " fill-opacity="1" fill-rule="nonzero"/></g><path fill="#e53935" d="M 16.757812 12.308594 L 16.757812 19.785156 L 19.25 19.785156 L 19.25 12.308594 L 31.710938 12.308594 L 31.710938 9.816406 L 19.25 9.816406 L 19.25 5.027344 C 18.390625 5.460938 17.554688 5.929688 16.757812 6.457031 L 16.757812 9.816406 L 12.679688 9.816406 C 11.917969 10.59375 11.21875 11.433594 10.5625 12.308594 Z M 16.757812 12.308594 " fill-opacity="1" fill-rule="nonzero"/><path fill="#e53935" d="M 15.0625 13.554688 L 12.890625 13.554688 L 7.941406 16.644531 C 7.65625 17.246094 7.398438 17.859375 7.160156 18.488281 Z M 15.0625 13.554688 " fill-opacity="1" fill-rule="nonzero"/><g clip-path="url(#2998a7cf44)"><path fill="#e53935" d="M 30.730469 2.351562 L 20.773438 8.570312 L 22.949219 8.570312 L 31.710938 3.097656 L 31.710938 2.402344 C 31.382812 2.386719 31.058594 2.355469 30.730469 2.351562 Z M 30.730469 2.351562 " fill-opacity="1" fill-rule="nonzero"/></g><path fill="#e53935" d="M 31.710938 17.210938 L 25.855469 13.554688 L 23.683594 13.554688 L 31.710938 18.5625 Z M 31.710938 17.210938 " fill-opacity="1" fill-rule="nonzero"/></svg>