<svg xmlns="http://www.w3.org/2000/svg" xmlns:xlink="http://www.w3.org/1999/xlink" width="82" zoomAndPan="magnify" viewBox="0 0 61.5 106.499998" height="142" preserveAspectRatio="xMidYMid meet" version="1.0"><defs><clipPath id="29d0fbf7e7"><path d="M 3.160156 50.695312 L 58.289062 50.695312 L 58.289062 105.824219 L 3.160156 105.824219 Z M 3.160156 50.695312 " clip-rule="nonzero"/></clipPath><clipPath id="f4003623b0"><path d="M 30.726562 50.695312 C 15.503906 50.695312 3.160156 63.035156 3.160156 78.257812 C 3.160156 93.480469 15.503906 105.824219 30.726562 105.824219 C 45.949219 105.824219 58.289062 93.480469 58.289062 78.257812 C 58.289062 63.035156 45.949219 50.695312 30.726562 50.695312 Z M 30.726562 50.695312 " clip-rule="nonzero"/></clipPath><clipPath id="dcce051796"><path d="M 13.375 61.117188 L 47.085938 61.117188 L 47.085938 94.828125 L 13.375 94.828125 Z M 13.375 61.117188 " clip-rule="nonzero"/></clipPath><clipPath id="689855d925"><path d="M 30.230469 61.117188 C 20.921875 61.117188 13.375 68.664062 13.375 77.972656 C 13.375 87.28125 20.921875 94.828125 30.230469 94.828125 C 39.539062 94.828125 47.085938 87.28125 47.085938 77.972656 C 47.085938 68.664062 39.539062 61.117188 30.230469 61.117188 Z M 30.230469 61.117188 " clip-rule="nonzero"/></clipPath><clipPath id="961ce554d2"><path d="M 24.867188 72.335938 L 36.136719 72.335938 L 36.136719 83.609375 L 24.867188 83.609375 Z M 24.867188 72.335938 " clip-rule="nonzero"/></clipPath><clipPath id="a19726f135"><path d="M 30.503906 72.335938 C 27.390625 72.335938 24.867188 74.859375 24.867188 77.972656 C 24.867188 81.085938 27.390625 83.609375 30.503906 83.609375 C 33.613281 83.609375 36.136719 81.085938 36.136719 77.972656 C 36.136719 74.859375 33.613281 72.335938 30.503906 72.335938 Z M 30.503906 72.335938 " clip-rule="nonzero"/></clipPath><clipPath id="52c9b2c92c"><path d="M 2.4375 0.179688 L 58.234375 0.179688 L 58.234375 73.832031 L 2.4375 73.832031 Z M 2.4375 0.179688 " clip-rule="nonzero"/></clipPath><clipPath id="6fd128496d"><path d="M 7.289062 4.644531 L 53.414062 4.644531 L 53.414062 50.769531 L 7.289062 50.769531 Z M 7.289062 4.644531 " clip-rule="nonzero"/></clipPath></defs><g clip-path="url(#29d0fbf7e7)"><g clip-path="url(#f4003623b0)"><path fill="#e6f5f0" d="M 3.160156 50.695312 L 58.289062 50.695312 L 58.289062 105.824219 L 3.160156 105.824219 Z M 3.160156 50.695312 " fill-opacity="1" fill-rule="nonzero"/></g></g><g clip-path="url(#dcce051796)"><g clip-path="url(#689855d925)"><path fill="#bbe5d6" d="M 13.375 61.117188 L 47.085938 61.117188 L 47.085938 94.828125 L 13.375 94.828125 Z M 13.375 61.117188 " fill-opacity="1" fill-rule="nonzero"/></g></g><g clip-path="url(#961ce554d2)"><g clip-path="url(#a19726f135)"><path fill="#0ca273" d="M 24.867188 72.335938 L 36.136719 72.335938 L 36.136719 83.609375 L 24.867188 83.609375 Z M 24.867188 72.335938 " fill-opacity="1" fill-rule="nonzero"/></g></g><g clip-path="url(#52c9b2c92c)"><path fill="#000000" d="M 58.179688 28.011719 C 58.152344 12.613281 45.664062 0.15625 30.296875 0.1875 C 14.925781 0.214844 2.488281 12.71875 2.515625 28.113281 C 2.527344 33.453125 4.136719 38.375 6.640625 42.671875 C 12.292969 52.375 30.433594 73.8125 30.433594 73.8125 C 30.433594 73.8125 48.742188 51.988281 54.316406 42.234375 C 56.714844 38.027344 58.191406 33.203125 58.179688 28.011719 Z M 30.308594 6.625 C 42.132812 6.601562 51.730469 16.183594 51.753906 28.023438 C 51.777344 39.863281 42.210938 49.480469 30.386719 49.503906 C 18.566406 49.523438 8.964844 39.941406 8.941406 28.101562 C 8.921875 16.261719 18.484375 6.644531 30.308594 6.625 Z M 30.308594 6.625 " fill-opacity="1" fill-rule="nonzero"/></g><g clip-path="url(#6fd128496d)"><path fill="#009846" d="M 53.414062 27.707031 C 53.414062 40.445312 43.089844 50.769531 30.351562 50.769531 C 17.617188 50.769531 7.289062 40.445312 7.289062 27.707031 C 7.289062 14.96875 17.617188 4.644531 30.351562 4.644531 C 43.089844 4.644531 53.414062 14.96875 53.414062 27.707031 " fill-opacity="1" fill-rule="nonzero"/></g><path fill="#ffdf00" d="M 9.390625 27.355469 L 30.277344 13.855469 L 51.265625 27.324219 L 30.324219 40.933594 L 9.390625 27.355469 " fill-opacity="1" fill-rule="nonzero"/><path fill="#002279" d="M 39.195312 27.316406 C 39.195312 32.261719 35.230469 36.273438 30.34375 36.273438 C 25.457031 36.273438 21.496094 32.261719 21.496094 27.316406 C 21.496094 22.367188 25.457031 18.359375 30.34375 18.359375 C 35.230469 18.359375 39.195312 22.367188 39.195312 27.316406 " fill-opacity="1" fill-rule="nonzero"/><path fill="#ffffff" d="M 29.527344 23.792969 C 35.578125 25.082031 39.09375 28.664062 39.09375 28.664062 C 39 29.359375 38.765625 30.082031 38.765625 30.082031 C 34.878906 26.355469 30.015625 25.351562 30.015625 25.351562 C 25.6875 24.296875 21.78125 25.054688 21.78125 25.054688 C 21.902344 24.550781 22.253906 23.679688 22.253906 23.679688 C 22.253906 23.679688 25.203125 23.128906 29.527344 23.792969 " fill-opacity="1" fill-rule="nonzero"/><path fill="#ffffff" d="M 23.113281 25.335938 L 23.199219 25.601562 L 23.472656 25.601562 L 23.25 25.765625 L 23.335938 26.03125 L 23.113281 25.867188 L 22.890625 26.03125 L 22.972656 25.765625 L 22.75 25.601562 L 23.027344 25.601562 L 23.113281 25.335938 " fill-opacity="1" fill-rule="nonzero"/><path fill="#ffffff" d="M 26.957031 27.367188 L 27.03125 27.601562 L 27.269531 27.601562 L 27.074219 27.742188 L 27.148438 27.972656 L 26.957031 27.832031 L 26.761719 27.972656 L 26.835938 27.742188 L 26.640625 27.601562 L 26.882812 27.601562 L 26.957031 27.367188 " fill-opacity="1" fill-rule="nonzero"/><path fill="#ffffff" d="M 24.769531 28.714844 L 24.816406 28.859375 L 24.960938 28.859375 L 24.84375 28.945312 L 24.890625 29.085938 L 24.769531 29 L 24.652344 29.085938 L 24.699219 28.945312 L 24.578125 28.859375 L 24.726562 28.859375 L 24.769531 28.714844 " fill-opacity="1" fill-rule="nonzero"/><path fill="#ffffff" d="M 23.894531 29.082031 L 23.988281 29.378906 L 24.296875 29.378906 L 24.046875 29.558594 L 24.144531 29.855469 L 23.894531 29.671875 L 23.648438 29.855469 L 23.742188 29.558594 L 23.492188 29.378906 L 23.800781 29.378906 L 23.894531 29.082031 " fill-opacity="1" fill-rule="nonzero"/><path fill="#ffffff" d="M 22.796875 29.988281 L 22.867188 30.207031 L 23.09375 30.207031 L 22.910156 30.339844 L 22.980469 30.558594 L 22.796875 30.421875 L 22.613281 30.558594 L 22.683594 30.339844 L 22.5 30.207031 L 22.726562 30.207031 L 22.796875 29.988281 " fill-opacity="1" fill-rule="nonzero"/><path fill="#ffffff" d="M 25.738281 30.074219 L 25.808594 30.289062 L 26.035156 30.289062 L 25.851562 30.425781 L 25.921875 30.644531 L 25.738281 30.507812 L 25.554688 30.644531 L 25.625 30.425781 L 25.441406 30.289062 L 25.667969 30.289062 L 25.738281 30.074219 " fill-opacity="1" fill-rule="nonzero"/><path fill="#ffffff" d="M 25.46875 30.972656 L 25.539062 31.191406 L 25.765625 31.191406 L 25.582031 31.324219 L 25.652344 31.542969 L 25.46875 31.40625 L 25.285156 31.542969 L 25.355469 31.324219 L 25.171875 31.191406 L 25.398438 31.191406 L 25.46875 30.972656 " fill-opacity="1" fill-rule="nonzero"/><path fill="#ffffff" d="M 26.777344 31.742188 L 26.855469 31.984375 L 27.109375 31.984375 L 26.902344 32.136719 L 26.980469 32.378906 L 26.777344 32.230469 L 26.574219 32.378906 L 26.648438 32.136719 L 26.445312 31.984375 L 26.699219 31.984375 L 26.777344 31.742188 " fill-opacity="1" fill-rule="nonzero"/><path fill="#ffffff" d="M 30.316406 31.019531 L 30.394531 31.265625 L 30.648438 31.265625 L 30.445312 31.414062 L 30.523438 31.660156 L 30.316406 31.507812 L 30.113281 31.660156 L 30.191406 31.414062 L 29.984375 31.265625 L 30.238281 31.265625 L 30.316406 31.019531 " fill-opacity="1" fill-rule="nonzero"/><path fill="#ffffff" d="M 31.355469 29.257812 L 31.429688 29.484375 L 31.664062 29.484375 L 31.472656 29.625 L 31.546875 29.851562 L 31.355469 29.710938 L 31.167969 29.851562 L 31.238281 29.625 L 31.050781 29.484375 L 31.285156 29.484375 L 31.355469 29.257812 " fill-opacity="1" fill-rule="nonzero"/><path fill="#ffffff" d="M 30.316406 28.441406 L 30.390625 28.667969 L 30.625 28.667969 L 30.433594 28.808594 L 30.507812 29.035156 L 30.316406 28.894531 L 30.128906 29.035156 L 30.199219 28.808594 L 30.011719 28.667969 L 30.246094 28.667969 L 30.316406 28.441406 " fill-opacity="1" fill-rule="nonzero"/><path fill="#ffffff" d="M 29.421875 29.265625 L 29.488281 29.464844 L 29.695312 29.464844 L 29.527344 29.585938 L 29.589844 29.789062 L 29.421875 29.664062 L 29.253906 29.789062 L 29.320312 29.585938 L 29.152344 29.464844 L 29.359375 29.464844 L 29.421875 29.265625 " fill-opacity="1" fill-rule="nonzero"/><path fill="#ffffff" d="M 29.867188 29.980469 L 29.914062 30.128906 L 30.070312 30.128906 L 29.945312 30.222656 L 29.992188 30.371094 L 29.867188 30.277344 L 29.742188 30.371094 L 29.789062 30.222656 L 29.664062 30.128906 L 29.820312 30.128906 L 29.867188 29.980469 " fill-opacity="1" fill-rule="nonzero"/><path fill="#ffffff" d="M 32.730469 26.683594 L 32.78125 26.832031 L 32.933594 26.832031 L 32.808594 26.925781 L 32.855469 27.074219 L 32.730469 26.980469 L 32.605469 27.074219 L 32.65625 26.925781 L 32.53125 26.832031 L 32.683594 26.832031 L 32.730469 26.683594 " fill-opacity="1" fill-rule="nonzero"/><path fill="#ffffff" d="M 33.070312 24.140625 L 33.160156 24.417969 L 33.445312 24.417969 L 33.214844 24.585938 L 33.300781 24.863281 L 33.070312 24.691406 L 32.839844 24.863281 L 32.925781 24.585938 L 32.695312 24.417969 L 32.984375 24.417969 L 33.070312 24.140625 " fill-opacity="1" fill-rule="nonzero"/><path fill="#ffffff" d="M 36.515625 30.089844 L 36.605469 30.367188 L 36.890625 30.367188 L 36.660156 30.535156 L 36.75 30.8125 L 36.515625 30.640625 L 36.285156 30.8125 L 36.375 30.535156 L 36.144531 30.367188 L 36.429688 30.367188 L 36.515625 30.089844 " fill-opacity="1" fill-rule="nonzero"/><path fill="#ffffff" d="M 36.332031 31.640625 L 36.402344 31.871094 L 36.644531 31.871094 L 36.449219 32.011719 L 36.523438 32.242188 L 36.332031 32.101562 L 36.136719 32.242188 L 36.210938 32.011719 L 36.019531 31.871094 L 36.257812 31.871094 L 36.332031 31.640625 " fill-opacity="1" fill-rule="nonzero"/><path fill="#ffffff" d="M 36.878906 30.953125 L 36.953125 31.183594 L 37.191406 31.183594 L 37 31.324219 L 37.070312 31.554688 L 36.878906 31.414062 L 36.6875 31.554688 L 36.761719 31.324219 L 36.566406 31.183594 L 36.804688 31.183594 L 36.878906 30.953125 " fill-opacity="1" fill-rule="nonzero"/><path fill="#ffffff" d="M 37.746094 30.28125 L 37.800781 30.457031 L 37.984375 30.457031 L 37.835938 30.5625 L 37.890625 30.738281 L 37.746094 30.632812 L 37.597656 30.738281 L 37.652344 30.5625 L 37.503906 30.457031 L 37.6875 30.457031 L 37.746094 30.28125 " fill-opacity="1" fill-rule="nonzero"/><path fill="#ffffff" d="M 35.628906 32.183594 L 35.6875 32.359375 L 35.867188 32.359375 L 35.71875 32.46875 L 35.777344 32.644531 L 35.628906 32.535156 L 35.480469 32.644531 L 35.539062 32.46875 L 35.390625 32.359375 L 35.574219 32.359375 L 35.628906 32.183594 " fill-opacity="1" fill-rule="nonzero"/><path fill="#ffffff" d="M 34.753906 32.847656 L 34.816406 33.050781 L 35.027344 33.050781 L 34.859375 33.171875 L 34.921875 33.375 L 34.753906 33.25 L 34.585938 33.375 L 34.648438 33.171875 L 34.480469 33.050781 L 34.6875 33.050781 L 34.753906 32.847656 " fill-opacity="1" fill-rule="nonzero"/><path fill="#ffffff" d="M 34.695312 32.019531 L 34.75 32.183594 L 34.921875 32.183594 L 34.78125 32.289062 L 34.835938 32.453125 L 34.695312 32.351562 L 34.554688 32.453125 L 34.609375 32.289062 L 34.46875 32.183594 L 34.640625 32.183594 L 34.695312 32.019531 " fill-opacity="1" fill-rule="nonzero"/><path fill="#ffffff" d="M 33.738281 32.335938 L 33.789062 32.503906 L 33.964844 32.503906 L 33.824219 32.605469 L 33.875 32.773438 L 33.738281 32.671875 L 33.597656 32.773438 L 33.648438 32.605469 L 33.507812 32.503906 L 33.683594 32.503906 L 33.738281 32.335938 " fill-opacity="1" fill-rule="nonzero"/><path fill="#ffffff" d="M 32.277344 32.101562 L 32.328125 32.269531 L 32.503906 32.269531 L 32.363281 32.371094 L 32.417969 32.539062 L 32.277344 32.433594 L 32.136719 32.539062 L 32.1875 32.371094 L 32.050781 32.269531 L 32.222656 32.269531 L 32.277344 32.101562 " fill-opacity="1" fill-rule="nonzero"/><path fill="#ffffff" d="M 34.75 33.828125 L 34.800781 33.996094 L 34.976562 33.996094 L 34.835938 34.097656 L 34.890625 34.265625 L 34.75 34.164062 L 34.609375 34.265625 L 34.660156 34.097656 L 34.519531 33.996094 L 34.695312 33.996094 L 34.75 33.828125 " fill-opacity="1" fill-rule="nonzero"/><path fill="#ffffff" d="M 32.984375 33.082031 L 33.050781 33.285156 L 33.261719 33.285156 L 33.089844 33.414062 L 33.15625 33.617188 L 32.984375 33.488281 L 32.8125 33.617188 L 32.878906 33.414062 L 32.707031 33.285156 L 32.917969 33.285156 L 32.984375 33.082031 " fill-opacity="1" fill-rule="nonzero"/><path fill="#ffffff" d="M 30.34375 34.207031 L 30.375 34.300781 L 30.472656 34.300781 L 30.394531 34.359375 L 30.421875 34.453125 L 30.34375 34.394531 L 30.265625 34.453125 L 30.292969 34.359375 L 30.214844 34.300781 L 30.3125 34.300781 L 30.34375 34.207031 " fill-opacity="1" fill-rule="nonzero"/><path fill="#009b2d" d="M 22.382812 24.308594 C 22.421875 24.46875 22.550781 24.59375 22.71875 24.566406 C 22.890625 24.542969 22.957031 24.390625 22.921875 24.222656 C 22.894531 24.074219 22.773438 23.933594 22.585938 23.960938 C 22.402344 23.988281 22.34375 24.148438 22.382812 24.308594 Z M 23.039062 24.203125 C 23.085938 24.457031 22.941406 24.617188 22.730469 24.648438 C 22.511719 24.679688 22.320312 24.554688 22.265625 24.332031 C 22.207031 24.097656 22.34375 23.914062 22.574219 23.878906 C 22.8125 23.847656 22.996094 23.984375 23.039062 24.203125 " fill-opacity="1" fill-rule="nonzero"/><path fill="#009b2d" d="M 23.667969 24.117188 C 23.707031 24.117188 23.742188 24.113281 23.78125 24.109375 C 23.898438 24.097656 23.964844 24.035156 23.953125 23.953125 C 23.941406 23.855469 23.851562 23.820312 23.734375 23.828125 C 23.679688 23.832031 23.640625 23.839844 23.625 23.847656 C 23.640625 23.9375 23.652344 24.027344 23.667969 24.117188 Z M 23.5 23.789062 C 23.558594 23.773438 23.636719 23.761719 23.714844 23.753906 C 23.835938 23.746094 23.914062 23.757812 23.976562 23.796875 C 24.023438 23.824219 24.054688 23.875 24.0625 23.933594 C 24.074219 24.03125 24.011719 24.101562 23.925781 24.136719 C 23.996094 24.152344 24.042969 24.203125 24.074219 24.28125 C 24.113281 24.382812 24.144531 24.453125 24.164062 24.480469 C 24.128906 24.484375 24.089844 24.484375 24.054688 24.488281 C 24.039062 24.46875 24.011719 24.40625 23.972656 24.3125 C 23.933594 24.210938 23.882812 24.175781 23.78125 24.183594 C 23.746094 24.1875 23.714844 24.1875 23.679688 24.191406 C 23.695312 24.300781 23.710938 24.40625 23.730469 24.515625 C 23.695312 24.519531 23.660156 24.523438 23.621094 24.523438 C 23.582031 24.28125 23.542969 24.035156 23.5 23.789062 " fill-opacity="1" fill-rule="nonzero"/><path fill="#009b2d" d="M 24.757812 24.371094 C 24.785156 24.375 24.828125 24.375 24.867188 24.375 C 25.097656 24.367188 25.21875 24.25 25.203125 24.050781 C 25.195312 23.871094 25.070312 23.761719 24.832031 23.765625 C 24.777344 23.769531 24.734375 23.773438 24.703125 23.78125 C 24.722656 23.976562 24.742188 24.175781 24.757812 24.371094 Z M 24.585938 23.714844 C 24.652344 23.703125 24.734375 23.691406 24.820312 23.691406 C 24.984375 23.6875 25.101562 23.714844 25.179688 23.777344 C 25.261719 23.835938 25.3125 23.921875 25.320312 24.042969 C 25.328125 24.167969 25.289062 24.265625 25.214844 24.335938 C 25.140625 24.40625 25.015625 24.449219 24.855469 24.453125 C 24.777344 24.453125 24.714844 24.453125 24.65625 24.449219 C 24.632812 24.207031 24.609375 23.960938 24.585938 23.714844 " fill-opacity="1" fill-rule="nonzero"/><path fill="#009b2d" d="M 26.28125 24.105469 C 26.171875 24.097656 26.0625 24.097656 25.953125 24.09375 C 25.953125 24.183594 25.957031 24.273438 25.957031 24.363281 C 26.078125 24.367188 26.199219 24.371094 26.320312 24.375 C 26.320312 24.402344 26.320312 24.429688 26.320312 24.457031 C 26.164062 24.449219 26.007812 24.445312 25.851562 24.441406 C 25.847656 24.191406 25.839844 23.941406 25.832031 23.691406 C 25.988281 23.695312 26.144531 23.699219 26.300781 23.707031 C 26.300781 23.734375 26.300781 23.761719 26.300781 23.789062 C 26.183594 23.785156 26.0625 23.777344 25.945312 23.777344 C 25.949219 23.855469 25.949219 23.933594 25.949219 24.011719 C 26.0625 24.015625 26.171875 24.019531 26.28125 24.023438 C 26.28125 24.050781 26.28125 24.078125 26.28125 24.105469 " fill-opacity="1" fill-rule="nonzero"/><path fill="#009b2d" d="M 27.550781 24.226562 C 27.554688 24.121094 27.554688 23.996094 27.5625 23.902344 C 27.5625 23.902344 27.558594 23.902344 27.558594 23.902344 C 27.523438 23.984375 27.480469 24.074219 27.433594 24.171875 C 27.375 24.289062 27.316406 24.402344 27.261719 24.519531 C 27.234375 24.515625 27.207031 24.515625 27.179688 24.511719 C 27.140625 24.390625 27.101562 24.269531 27.0625 24.144531 C 27.027344 24.035156 26.996094 23.9375 26.976562 23.847656 C 26.972656 23.847656 26.972656 23.847656 26.972656 23.847656 C 26.964844 23.9375 26.957031 24.0625 26.945312 24.175781 C 26.933594 24.28125 26.921875 24.386719 26.910156 24.492188 C 26.875 24.492188 26.839844 24.488281 26.808594 24.484375 C 26.835938 24.238281 26.863281 23.992188 26.890625 23.742188 C 26.9375 23.746094 26.984375 23.75 27.03125 23.753906 C 27.078125 23.878906 27.121094 24.003906 27.164062 24.128906 C 27.191406 24.222656 27.21875 24.308594 27.234375 24.386719 C 27.234375 24.386719 27.238281 24.386719 27.238281 24.386719 C 27.261719 24.3125 27.296875 24.234375 27.339844 24.144531 C 27.398438 24.03125 27.457031 23.914062 27.515625 23.800781 C 27.566406 23.804688 27.613281 23.8125 27.660156 23.816406 C 27.65625 24.066406 27.65625 24.316406 27.652344 24.566406 C 27.617188 24.5625 27.582031 24.558594 27.550781 24.554688 C 27.550781 24.445312 27.550781 24.335938 27.550781 24.226562 " fill-opacity="1" fill-rule="nonzero"/><path fill="#009b2d" d="M 29.292969 24.476562 C 29.183594 24.453125 29.074219 24.433594 28.96875 24.410156 C 28.953125 24.5 28.9375 24.589844 28.925781 24.675781 C 29.042969 24.699219 29.164062 24.722656 29.28125 24.746094 C 29.277344 24.773438 29.269531 24.800781 29.265625 24.824219 C 29.113281 24.792969 28.960938 24.765625 28.808594 24.738281 C 28.84375 24.492188 28.882812 24.246094 28.917969 24 C 29.074219 24.03125 29.226562 24.058594 29.378906 24.089844 C 29.375 24.117188 29.371094 24.144531 29.367188 24.167969 C 29.25 24.144531 29.132812 24.121094 29.015625 24.101562 C 29.003906 24.179688 28.992188 24.257812 28.980469 24.332031 C 29.089844 24.351562 29.195312 24.375 29.304688 24.398438 C 29.300781 24.421875 29.296875 24.449219 29.292969 24.476562 " fill-opacity="1" fill-rule="nonzero"/><path fill="#009b2d" d="M 30.574219 24.75 C 30.597656 24.761719 30.625 24.773438 30.660156 24.78125 C 30.789062 24.816406 30.878906 24.785156 30.90625 24.6875 C 30.933594 24.59375 30.871094 24.523438 30.75 24.492188 C 30.703125 24.480469 30.667969 24.472656 30.648438 24.472656 C 30.625 24.566406 30.597656 24.65625 30.574219 24.75 Z M 30.558594 24.375 C 30.613281 24.382812 30.679688 24.394531 30.769531 24.417969 C 30.875 24.449219 30.945312 24.492188 30.984375 24.542969 C 31.023438 24.589844 31.035156 24.652344 31.015625 24.714844 C 30.996094 24.78125 30.960938 24.824219 30.910156 24.847656 C 30.839844 24.882812 30.742188 24.886719 30.636719 24.855469 C 30.605469 24.847656 30.578125 24.839844 30.554688 24.828125 C 30.53125 24.921875 30.503906 25.019531 30.480469 25.113281 C 30.445312 25.105469 30.410156 25.097656 30.375 25.085938 C 30.4375 24.847656 30.496094 24.613281 30.558594 24.375 " fill-opacity="1" fill-rule="nonzero"/><path fill="#009b2d" d="M 31.585938 25.035156 C 31.621094 25.046875 31.65625 25.058594 31.691406 25.070312 C 31.804688 25.109375 31.890625 25.082031 31.921875 25 C 31.953125 24.910156 31.890625 24.84375 31.777344 24.804688 C 31.726562 24.789062 31.6875 24.78125 31.671875 24.777344 C 31.640625 24.863281 31.613281 24.949219 31.585938 25.035156 Z M 31.585938 24.679688 C 31.640625 24.6875 31.722656 24.707031 31.792969 24.734375 C 31.90625 24.769531 31.976562 24.816406 32.011719 24.871094 C 32.042969 24.917969 32.046875 24.972656 32.027344 25.027344 C 31.996094 25.121094 31.90625 25.15625 31.8125 25.152344 C 31.8125 25.152344 31.8125 25.15625 31.8125 25.15625 C 31.867188 25.195312 31.886719 25.257812 31.878906 25.339844 C 31.871094 25.445312 31.867188 25.519531 31.871094 25.550781 C 31.835938 25.539062 31.804688 25.527344 31.769531 25.515625 C 31.761719 25.492188 31.765625 25.425781 31.773438 25.328125 C 31.785156 25.222656 31.753906 25.171875 31.660156 25.136719 C 31.628906 25.128906 31.59375 25.117188 31.5625 25.105469 C 31.527344 25.207031 31.496094 25.308594 31.460938 25.410156 C 31.429688 25.398438 31.394531 25.386719 31.359375 25.378906 C 31.433594 25.144531 31.511719 24.914062 31.585938 24.679688 " fill-opacity="1" fill-rule="nonzero"/><path fill="#009b2d" d="M 32.535156 25.40625 C 32.476562 25.554688 32.515625 25.722656 32.671875 25.785156 C 32.828125 25.847656 32.972656 25.757812 33.042969 25.605469 C 33.101562 25.46875 33.082031 25.292969 32.90625 25.222656 C 32.734375 25.152344 32.59375 25.253906 32.535156 25.40625 Z M 33.152344 25.644531 C 33.046875 25.878906 32.832031 25.933594 32.636719 25.855469 C 32.433594 25.773438 32.34375 25.578125 32.425781 25.367188 C 32.507812 25.148438 32.726562 25.0625 32.941406 25.152344 C 33.164062 25.242188 33.242188 25.445312 33.152344 25.644531 " fill-opacity="1" fill-rule="nonzero"/><path fill="#009b2d" d="M 34.050781 26.441406 C 34 26.433594 33.902344 26.414062 33.800781 26.367188 C 33.6875 26.3125 33.609375 26.242188 33.5625 26.144531 C 33.523438 26.058594 33.527344 25.949219 33.578125 25.847656 C 33.671875 25.648438 33.90625 25.574219 34.167969 25.699219 C 34.261719 25.746094 34.320312 25.796875 34.347656 25.828125 C 34.328125 25.847656 34.308594 25.867188 34.289062 25.882812 C 34.253906 25.847656 34.210938 25.808594 34.128906 25.773438 C 33.941406 25.679688 33.765625 25.722656 33.683594 25.890625 C 33.601562 26.0625 33.667969 26.214844 33.84375 26.296875 C 33.910156 26.328125 33.957031 26.34375 33.984375 26.34375 C 34.015625 26.277344 34.050781 26.214844 34.085938 26.148438 C 34.035156 26.121094 33.984375 26.097656 33.929688 26.070312 C 33.941406 26.050781 33.953125 26.027344 33.964844 26.003906 C 34.050781 26.042969 34.132812 26.085938 34.21875 26.128906 C 34.164062 26.234375 34.105469 26.335938 34.050781 26.441406 " fill-opacity="1" fill-rule="nonzero"/><path fill="#009b2d" d="M 34.804688 26.425781 C 34.835938 26.445312 34.871094 26.464844 34.902344 26.480469 C 35.007812 26.539062 35.101562 26.527344 35.144531 26.453125 C 35.195312 26.371094 35.144531 26.296875 35.042969 26.238281 C 34.996094 26.210938 34.960938 26.199219 34.941406 26.191406 C 34.894531 26.269531 34.851562 26.347656 34.804688 26.425781 Z M 34.875 26.082031 C 34.929688 26.097656 35.003906 26.132812 35.074219 26.171875 C 35.179688 26.230469 35.238281 26.28125 35.261719 26.34375 C 35.285156 26.394531 35.277344 26.449219 35.25 26.5 C 35.195312 26.582031 35.101562 26.605469 35.007812 26.582031 C 35.007812 26.582031 35.007812 26.585938 35.007812 26.585938 C 35.054688 26.632812 35.0625 26.699219 35.039062 26.773438 C 35.007812 26.878906 34.988281 26.949219 34.988281 26.980469 C 34.953125 26.964844 34.921875 26.945312 34.890625 26.925781 C 34.890625 26.902344 34.90625 26.839844 34.933594 26.746094 C 34.964844 26.648438 34.945312 26.589844 34.859375 26.539062 C 34.828125 26.523438 34.796875 26.507812 34.769531 26.492188 C 34.714844 26.582031 34.660156 26.675781 34.605469 26.769531 C 34.574219 26.753906 34.542969 26.734375 34.511719 26.71875 C 34.632812 26.507812 34.753906 26.292969 34.875 26.082031 " fill-opacity="1" fill-rule="nonzero"/><path fill="#009b2d" d="M 35.980469 27.175781 C 35.886719 27.113281 35.792969 27.054688 35.699219 27 C 35.648438 27.074219 35.597656 27.148438 35.550781 27.222656 C 35.652344 27.285156 35.753906 27.351562 35.859375 27.414062 C 35.84375 27.4375 35.828125 27.460938 35.8125 27.480469 C 35.679688 27.398438 35.546875 27.3125 35.414062 27.234375 C 35.550781 27.023438 35.6875 26.816406 35.824219 26.609375 C 35.957031 26.691406 36.089844 26.773438 36.222656 26.859375 C 36.207031 26.882812 36.191406 26.902344 36.175781 26.925781 C 36.078125 26.863281 35.976562 26.796875 35.875 26.734375 C 35.832031 26.800781 35.789062 26.867188 35.742188 26.933594 C 35.839844 26.988281 35.933594 27.046875 36.027344 27.109375 C 36.011719 27.128906 35.996094 27.152344 35.980469 27.175781 " fill-opacity="1" fill-rule="nonzero"/><path fill="#009b2d" d="M 36.296875 27.660156 C 36.320312 27.710938 36.367188 27.765625 36.429688 27.808594 C 36.519531 27.875 36.605469 27.871094 36.652344 27.8125 C 36.695312 27.757812 36.683594 27.699219 36.609375 27.601562 C 36.523438 27.488281 36.488281 27.386719 36.550781 27.304688 C 36.621094 27.210938 36.765625 27.203125 36.90625 27.300781 C 36.980469 27.351562 37.023438 27.40625 37.042969 27.441406 C 37.015625 27.457031 36.992188 27.472656 36.96875 27.484375 C 36.953125 27.457031 36.917969 27.40625 36.855469 27.363281 C 36.757812 27.292969 36.683594 27.316406 36.652344 27.359375 C 36.609375 27.414062 36.632812 27.472656 36.703125 27.570312 C 36.792969 27.691406 36.816406 27.785156 36.746094 27.871094 C 36.675781 27.960938 36.535156 27.980469 36.375 27.871094 C 36.308594 27.824219 36.246094 27.757812 36.226562 27.710938 C 36.25 27.695312 36.273438 27.675781 36.296875 27.660156 " fill-opacity="1" fill-rule="nonzero"/><path fill="#009b2d" d="M 37.105469 28.238281 C 37.125 28.289062 37.167969 28.351562 37.226562 28.394531 C 37.316406 28.464844 37.402344 28.464844 37.449219 28.410156 C 37.496094 28.355469 37.488281 28.296875 37.421875 28.195312 C 37.339844 28.078125 37.3125 27.976562 37.378906 27.898438 C 37.453125 27.808594 37.601562 27.808594 37.734375 27.914062 C 37.808594 27.96875 37.847656 28.023438 37.863281 28.0625 C 37.839844 28.074219 37.8125 28.089844 37.789062 28.101562 C 37.773438 28.074219 37.742188 28.019531 37.679688 27.972656 C 37.585938 27.898438 37.511719 27.917969 37.476562 27.957031 C 37.429688 28.011719 37.453125 28.070312 37.519531 28.171875 C 37.601562 28.296875 37.617188 28.390625 37.542969 28.472656 C 37.464844 28.558594 37.324219 28.574219 37.167969 28.453125 C 37.105469 28.402344 37.046875 28.332031 37.03125 28.285156 C 37.054688 28.269531 37.078125 28.253906 37.105469 28.238281 " fill-opacity="1" fill-rule="nonzero"/><path fill="#009b2d" d="M 38.121094 28.730469 C 38.007812 28.847656 37.984375 29.015625 38.113281 29.128906 C 38.242188 29.242188 38.417969 29.210938 38.539062 29.089844 C 38.648438 28.984375 38.691406 28.816406 38.550781 28.691406 C 38.40625 28.566406 38.234375 28.613281 38.121094 28.730469 Z M 38.628906 29.167969 C 38.441406 29.34375 38.210938 29.320312 38.050781 29.179688 C 37.886719 29.035156 37.871094 28.824219 38.027344 28.65625 C 38.191406 28.484375 38.433594 28.480469 38.609375 28.636719 C 38.789062 28.796875 38.792969 29.011719 38.628906 29.167969 " fill-opacity="1" fill-rule="nonzero"/></svg>