<svg xmlns="http://www.w3.org/2000/svg" xmlns:xlink="http://www.w3.org/1999/xlink" width="82" zoomAndPan="magnify" viewBox="0 0 61.5 106.499998" height="142" preserveAspectRatio="xMidYMid meet" version="1.0"><defs><clipPath id="5fdb65a0fb"><path d="M 3.160156 50.695312 L 58.289062 50.695312 L 58.289062 105.824219 L 3.160156 105.824219 Z M 3.160156 50.695312 " clip-rule="nonzero"/></clipPath><clipPath id="446ff3e1d4"><path d="M 30.726562 50.695312 C 15.503906 50.695312 3.160156 63.035156 3.160156 78.257812 C 3.160156 93.480469 15.503906 105.824219 30.726562 105.824219 C 45.949219 105.824219 58.289062 93.480469 58.289062 78.257812 C 58.289062 63.035156 45.949219 50.695312 30.726562 50.695312 Z M 30.726562 50.695312 " clip-rule="nonzero"/></clipPath><clipPath id="e611796188"><path d="M 13.375 61.117188 L 47.085938 61.117188 L 47.085938 94.828125 L 13.375 94.828125 Z M 13.375 61.117188 " clip-rule="nonzero"/></clipPath><clipPath id="2226fef83d"><path d="M 30.230469 61.117188 C 20.921875 61.117188 13.375 68.664062 13.375 77.972656 C 13.375 87.28125 20.921875 94.828125 30.230469 94.828125 C 39.539062 94.828125 47.085938 87.28125 47.085938 77.972656 C 47.085938 68.664062 39.539062 61.117188 30.230469 61.117188 Z M 30.230469 61.117188 " clip-rule="nonzero"/></clipPath><clipPath id="de68916ac8"><path d="M 24.867188 72.335938 L 36.136719 72.335938 L 36.136719 83.609375 L 24.867188 83.609375 Z M 24.867188 72.335938 " clip-rule="nonzero"/></clipPath><clipPath id="1f70f2039a"><path d="M 30.503906 72.335938 C 27.390625 72.335938 24.867188 74.859375 24.867188 77.972656 C 24.867188 81.085938 27.390625 83.609375 30.503906 83.609375 C 33.613281 83.609375 36.136719 81.085938 36.136719 77.972656 C 36.136719 74.859375 33.613281 72.335938 30.503906 72.335938 Z M 30.503906 72.335938 " clip-rule="nonzero"/></clipPath><clipPath id="91c8aa3e6e"><path d="M 2.4375 0.179688 L 58.234375 0.179688 L 58.234375 73.832031 L 2.4375 73.832031 Z M 2.4375 0.179688 " clip-rule="nonzero"/></clipPath><clipPath id="2f35e6428f"><path d="M 7.289062 4.644531 L 53.414062 4.644531 L 53.414062 50.769531 L 7.289062 50.769531 Z M 7.289062 4.644531 " clip-rule="nonzero"/></clipPath><clipPath id="5643ef1081"><path d="M 7.289062 27.703125 C 7.289062 26.191406 7.4375 24.691406 7.734375 23.207031 C 8.027344 21.722656 8.464844 20.277344 9.046875 18.878906 C 9.625 17.480469 10.335938 16.152344 11.175781 14.894531 C 12.019531 13.632812 12.972656 12.46875 14.042969 11.398438 C 15.113281 10.328125 16.28125 9.371094 17.539062 8.53125 C 18.796875 7.691406 20.125 6.980469 21.527344 6.402344 C 22.925781 5.820312 24.367188 5.382812 25.851562 5.089844 C 27.335938 4.792969 28.835938 4.644531 30.351562 4.644531 C 31.863281 4.644531 33.363281 4.792969 34.847656 5.089844 C 36.332031 5.382812 37.777344 5.820312 39.175781 6.402344 C 40.574219 6.980469 41.902344 7.691406 43.160156 8.53125 C 44.417969 9.371094 45.585938 10.328125 46.65625 11.398438 C 47.726562 12.46875 48.683594 13.632812 49.523438 14.894531 C 50.363281 16.152344 51.074219 17.480469 51.652344 18.878906 C 52.234375 20.277344 52.671875 21.722656 52.964844 23.207031 C 53.261719 24.691406 53.410156 26.191406 53.410156 27.703125 C 53.410156 29.21875 53.261719 30.71875 52.964844 32.203125 C 52.671875 33.6875 52.234375 35.128906 51.652344 36.527344 C 51.074219 37.925781 50.363281 39.257812 49.523438 40.515625 C 48.683594 41.773438 47.726562 42.9375 46.65625 44.007812 C 45.585938 45.082031 44.417969 46.035156 43.160156 46.878906 C 41.902344 47.71875 40.574219 48.429688 39.175781 49.007812 C 37.777344 49.585938 36.332031 50.023438 34.847656 50.320312 C 33.363281 50.617188 31.863281 50.761719 30.351562 50.761719 C 28.835938 50.761719 27.335938 50.617188 25.851562 50.320312 C 24.367188 50.023438 22.925781 49.585938 21.527344 49.007812 C 20.125 48.429688 18.796875 47.71875 17.539062 46.878906 C 16.28125 46.035156 15.113281 45.082031 14.042969 44.007812 C 12.972656 42.9375 12.019531 41.773438 11.175781 40.515625 C 10.335938 39.257812 9.625 37.925781 9.046875 36.527344 C 8.464844 35.128906 8.027344 33.6875 7.734375 32.203125 C 7.4375 30.71875 7.289062 29.21875 7.289062 27.703125 Z M 7.289062 27.703125 " clip-rule="nonzero"/></clipPath><clipPath id="4888298891"><path d="M 14 4.644531 L 47 4.644531 L 47 50.769531 L 14 50.769531 Z M 14 4.644531 " clip-rule="nonzero"/></clipPath><clipPath id="0d43df2875"><path d="M 7.289062 27.703125 C 7.289062 26.191406 7.4375 24.691406 7.734375 23.207031 C 8.027344 21.722656 8.464844 20.277344 9.046875 18.878906 C 9.625 17.480469 10.335938 16.152344 11.175781 14.894531 C 12.019531 13.632812 12.972656 12.46875 14.042969 11.398438 C 15.113281 10.328125 16.28125 9.371094 17.539062 8.53125 C 18.796875 7.691406 20.125 6.980469 21.527344 6.402344 C 22.925781 5.820312 24.367188 5.382812 25.851562 5.089844 C 27.335938 4.792969 28.835938 4.644531 30.351562 4.644531 C 31.863281 4.644531 33.363281 4.792969 34.847656 5.089844 C 36.332031 5.382812 37.777344 5.820312 39.175781 6.402344 C 40.574219 6.980469 41.902344 7.691406 43.160156 8.53125 C 44.417969 9.371094 45.585938 10.328125 46.65625 11.398438 C 47.726562 12.46875 48.683594 13.632812 49.523438 14.894531 C 50.363281 16.152344 51.074219 17.480469 51.652344 18.878906 C 52.234375 20.277344 52.671875 21.722656 52.964844 23.207031 C 53.261719 24.691406 53.410156 26.191406 53.410156 27.703125 C 53.410156 29.21875 53.261719 30.71875 52.964844 32.203125 C 52.671875 33.6875 52.234375 35.128906 51.652344 36.527344 C 51.074219 37.925781 50.363281 39.257812 49.523438 40.515625 C 48.683594 41.773438 47.726562 42.9375 46.65625 44.007812 C 45.585938 45.082031 44.417969 46.035156 43.160156 46.878906 C 41.902344 47.71875 40.574219 48.429688 39.175781 49.007812 C 37.777344 49.585938 36.332031 50.023438 34.847656 50.320312 C 33.363281 50.617188 31.863281 50.761719 30.351562 50.761719 C 28.835938 50.761719 27.335938 50.617188 25.851562 50.320312 C 24.367188 50.023438 22.925781 49.585938 21.527344 49.007812 C 20.125 48.429688 18.796875 47.71875 17.539062 46.878906 C 16.28125 46.035156 15.113281 45.082031 14.042969 44.007812 C 12.972656 42.9375 12.019531 41.773438 11.175781 40.515625 C 10.335938 39.257812 9.625 37.925781 9.046875 36.527344 C 8.464844 35.128906 8.027344 33.6875 7.734375 32.203125 C 7.4375 30.71875 7.289062 29.21875 7.289062 27.703125 Z M 7.289062 27.703125 " clip-rule="nonzero"/></clipPath></defs><g clip-path="url(#5fdb65a0fb)"><g clip-path="url(#446ff3e1d4)"><path fill="#e6f5f0" d="M 3.160156 50.695312 L 58.289062 50.695312 L 58.289062 105.824219 L 3.160156 105.824219 Z M 3.160156 50.695312 " fill-opacity="1" fill-rule="nonzero"/></g></g><g clip-path="url(#e611796188)"><g clip-path="url(#2226fef83d)"><path fill="#bbe5d6" d="M 13.375 61.117188 L 47.085938 61.117188 L 47.085938 94.828125 L 13.375 94.828125 Z M 13.375 61.117188 " fill-opacity="1" fill-rule="nonzero"/></g></g><g clip-path="url(#de68916ac8)"><g clip-path="url(#1f70f2039a)"><path fill="#0ca273" d="M 24.867188 72.335938 L 36.136719 72.335938 L 36.136719 83.609375 L 24.867188 83.609375 Z M 24.867188 72.335938 " fill-opacity="1" fill-rule="nonzero"/></g></g><g clip-path="url(#91c8aa3e6e)"><path fill="#000000" d="M 58.179688 28.011719 C 58.152344 12.613281 45.664062 0.15625 30.296875 0.1875 C 14.925781 0.214844 2.488281 12.71875 2.515625 28.113281 C 2.527344 33.453125 4.136719 38.375 6.640625 42.671875 C 12.292969 52.375 30.433594 73.8125 30.433594 73.8125 C 30.433594 73.8125 48.742188 51.988281 54.316406 42.234375 C 56.714844 38.027344 58.191406 33.203125 58.179688 28.011719 Z M 30.308594 6.625 C 42.132812 6.601562 51.730469 16.183594 51.753906 28.023438 C 51.777344 39.863281 42.210938 49.480469 30.386719 49.503906 C 18.566406 49.523438 8.964844 39.941406 8.941406 28.101562 C 8.921875 16.261719 18.484375 6.644531 30.308594 6.625 Z M 30.308594 6.625 " fill-opacity="1" fill-rule="nonzero"/></g><g clip-path="url(#2f35e6428f)"><g clip-path="url(#5643ef1081)"><path fill="#ff0000" d="M -1.203125 3.617188 L 61.902344 3.617188 L 61.902344 51.792969 L -1.203125 51.792969 Z M -1.203125 3.617188 " fill-opacity="1" fill-rule="nonzero"/></g></g><g clip-path="url(#4888298891)"><g clip-path="url(#0d43df2875)"><path fill="#ffffff" d="M 14.574219 3.617188 L 46.125 3.617188 L 46.125 51.792969 L 14.574219 51.792969 Z M 30.941406 41.046875 L 30.644531 35.375 C 30.628906 35.03125 30.894531 34.738281 31.242188 34.722656 C 31.285156 34.722656 31.332031 34.722656 31.375 34.730469 L 37.023438 35.722656 L 36.257812 33.621094 C 36.195312 33.449219 36.25 33.253906 36.390625 33.140625 L 42.578125 28.132812 L 41.183594 27.480469 C 40.988281 27.390625 40.894531 27.167969 40.960938 26.960938 L 42.183594 23.203125 L 38.621094 23.957031 C 38.421875 24 38.21875 23.894531 38.140625 23.707031 L 37.449219 22.082031 L 34.667969 25.066406 C 34.507812 25.238281 34.234375 25.246094 34.066406 25.085938 C 33.960938 24.984375 33.910156 24.835938 33.9375 24.695312 L 35.28125 17.777344 L 33.128906 19.019531 C 32.925781 19.140625 32.664062 19.070312 32.546875 18.867188 C 32.542969 18.859375 32.535156 18.851562 32.53125 18.84375 L 30.351562 14.558594 L 28.167969 18.84375 C 28.0625 19.054688 27.804688 19.140625 27.59375 19.035156 C 27.585938 19.03125 27.578125 19.027344 27.570312 19.019531 L 25.417969 17.777344 L 26.761719 24.695312 C 26.804688 24.925781 26.652344 25.148438 26.421875 25.195312 C 26.277344 25.222656 26.132812 25.175781 26.03125 25.066406 L 23.25 22.082031 L 22.558594 23.707031 C 22.480469 23.894531 22.28125 24 22.082031 23.957031 L 18.519531 23.203125 L 19.742188 26.960938 C 19.808594 27.167969 19.710938 27.390625 19.515625 27.480469 L 18.125 28.132812 L 24.308594 33.140625 C 24.449219 33.253906 24.503906 33.449219 24.441406 33.621094 L 23.679688 35.722656 L 29.324219 34.730469 C 29.664062 34.671875 29.988281 34.902344 30.046875 35.242188 C 30.054688 35.285156 30.054688 35.332031 30.054688 35.375 L 29.757812 41.046875 Z M 30.941406 41.046875 " fill-opacity="1" fill-rule="nonzero"/></g></g></svg>