<svg xmlns="http://www.w3.org/2000/svg" xmlns:xlink="http://www.w3.org/1999/xlink" width="82" zoomAndPan="magnify" viewBox="0 0 61.5 106.499998" height="142" preserveAspectRatio="xMidYMid meet" version="1.0"><defs><clipPath id="fca89ef849"><path d="M 3.160156 50.695312 L 58.289062 50.695312 L 58.289062 105.824219 L 3.160156 105.824219 Z M 3.160156 50.695312 " clip-rule="nonzero"/></clipPath><clipPath id="83b35f8935"><path d="M 30.726562 50.695312 C 15.503906 50.695312 3.160156 63.035156 3.160156 78.257812 C 3.160156 93.480469 15.503906 105.824219 30.726562 105.824219 C 45.949219 105.824219 58.289062 93.480469 58.289062 78.257812 C 58.289062 63.035156 45.949219 50.695312 30.726562 50.695312 Z M 30.726562 50.695312 " clip-rule="nonzero"/></clipPath><clipPath id="244e9a188e"><path d="M 13.375 61.117188 L 47.085938 61.117188 L 47.085938 94.828125 L 13.375 94.828125 Z M 13.375 61.117188 " clip-rule="nonzero"/></clipPath><clipPath id="402f11c53c"><path d="M 30.230469 61.117188 C 20.921875 61.117188 13.375 68.664062 13.375 77.972656 C 13.375 87.28125 20.921875 94.828125 30.230469 94.828125 C 39.539062 94.828125 47.085938 87.28125 47.085938 77.972656 C 47.085938 68.664062 39.539062 61.117188 30.230469 61.117188 Z M 30.230469 61.117188 " clip-rule="nonzero"/></clipPath><clipPath id="c27226b50e"><path d="M 24.867188 72.335938 L 36.136719 72.335938 L 36.136719 83.609375 L 24.867188 83.609375 Z M 24.867188 72.335938 " clip-rule="nonzero"/></clipPath><clipPath id="c83c4bf859"><path d="M 30.503906 72.335938 C 27.390625 72.335938 24.867188 74.859375 24.867188 77.972656 C 24.867188 81.085938 27.390625 83.609375 30.503906 83.609375 C 33.613281 83.609375 36.136719 81.085938 36.136719 77.972656 C 36.136719 74.859375 33.613281 72.335938 30.503906 72.335938 Z M 30.503906 72.335938 " clip-rule="nonzero"/></clipPath><clipPath id="1c087074b9"><path d="M 2.4375 0.179688 L 58.234375 0.179688 L 58.234375 73.832031 L 2.4375 73.832031 Z M 2.4375 0.179688 " clip-rule="nonzero"/></clipPath><clipPath id="3819f1a267"><path d="M 6.210938 3.453125 L 54.570312 3.453125 L 54.570312 51.8125 L 6.210938 51.8125 Z M 6.210938 3.453125 " clip-rule="nonzero"/></clipPath><clipPath id="25e07eb6e6"><path d="M 20 3.453125 L 40 3.453125 L 40 51.8125 L 20 51.8125 Z M 20 3.453125 " clip-rule="nonzero"/></clipPath><clipPath id="b77bf715f6"><path d="M 6.210938 5 L 21 5 L 21 50 L 6.210938 50 Z M 6.210938 5 " clip-rule="nonzero"/></clipPath></defs><g clip-path="url(#fca89ef849)"><g clip-path="url(#83b35f8935)"><path fill="#e6f5f0" d="M 3.160156 50.695312 L 58.289062 50.695312 L 58.289062 105.824219 L 3.160156 105.824219 Z M 3.160156 50.695312 " fill-opacity="1" fill-rule="nonzero"/></g></g><g clip-path="url(#244e9a188e)"><g clip-path="url(#402f11c53c)"><path fill="#bbe5d6" d="M 13.375 61.117188 L 47.085938 61.117188 L 47.085938 94.828125 L 13.375 94.828125 Z M 13.375 61.117188 " fill-opacity="1" fill-rule="nonzero"/></g></g><g clip-path="url(#c27226b50e)"><g clip-path="url(#c83c4bf859)"><path fill="#0ca273" d="M 24.867188 72.335938 L 36.136719 72.335938 L 36.136719 83.609375 L 24.867188 83.609375 Z M 24.867188 72.335938 " fill-opacity="1" fill-rule="nonzero"/></g></g><g clip-path="url(#1c087074b9)"><path fill="#000000" d="M 58.179688 28.011719 C 58.152344 12.613281 45.664062 0.15625 30.296875 0.1875 C 14.925781 0.214844 2.488281 12.71875 2.515625 28.113281 C 2.527344 33.453125 4.136719 38.375 6.640625 42.671875 C 12.292969 52.375 30.433594 73.8125 30.433594 73.8125 C 30.433594 73.8125 48.742188 51.988281 54.316406 42.234375 C 56.714844 38.027344 58.191406 33.203125 58.179688 28.011719 Z M 30.308594 6.625 C 42.132812 6.601562 51.730469 16.183594 51.753906 28.023438 C 51.777344 39.863281 42.210938 49.480469 30.386719 49.503906 C 18.566406 49.523438 8.964844 39.941406 8.941406 28.101562 C 8.921875 16.261719 18.484375 6.644531 30.308594 6.625 Z M 30.308594 6.625 " fill-opacity="1" fill-rule="nonzero"/></g><g clip-path="url(#3819f1a267)"><path fill="#e92b2b" d="M 30.390625 51.8125 C 43.742188 51.8125 54.570312 40.988281 54.570312 27.632812 C 54.570312 14.28125 43.742188 3.453125 30.390625 3.453125 C 17.039062 3.453125 6.210938 14.28125 6.210938 27.632812 C 6.210938 40.988281 17.039062 51.8125 30.390625 51.8125 Z M 30.390625 51.8125 " fill-opacity="1" fill-rule="evenodd"/></g><g clip-path="url(#25e07eb6e6)"><path fill="#fbfbfb" d="M 39.890625 49.875 C 36.972656 51.121094 33.761719 51.8125 30.390625 51.8125 C 27.019531 51.8125 23.808594 51.121094 20.890625 49.875 L 20.890625 5.390625 C 23.808594 4.144531 27.019531 3.453125 30.390625 3.453125 C 33.761719 3.453125 36.972656 4.144531 39.890625 5.390625 Z M 39.890625 49.875 " fill-opacity="1" fill-rule="evenodd"/></g><g clip-path="url(#b77bf715f6)"><path fill="#2a2faf" d="M 20.890625 5.390625 C 12.261719 9.082031 6.210938 17.652344 6.210938 27.632812 C 6.210938 37.613281 12.261719 46.183594 20.890625 49.875 Z M 20.890625 5.390625 " fill-opacity="1" fill-rule="evenodd"/></g></svg>