<svg xmlns="http://www.w3.org/2000/svg" xmlns:xlink="http://www.w3.org/1999/xlink" width="82" zoomAndPan="magnify" viewBox="0 0 61.5 106.499998" height="142" preserveAspectRatio="xMidYMid meet" version="1.0"><defs><clipPath id="9ec576ca91"><path d="M 3.160156 50.695312 L 58.289062 50.695312 L 58.289062 105.824219 L 3.160156 105.824219 Z M 3.160156 50.695312 " clip-rule="nonzero"/></clipPath><clipPath id="c4b92069a6"><path d="M 30.726562 50.695312 C 15.503906 50.695312 3.160156 63.035156 3.160156 78.257812 C 3.160156 93.480469 15.503906 105.824219 30.726562 105.824219 C 45.949219 105.824219 58.289062 93.480469 58.289062 78.257812 C 58.289062 63.035156 45.949219 50.695312 30.726562 50.695312 Z M 30.726562 50.695312 " clip-rule="nonzero"/></clipPath><clipPath id="70e1047f68"><path d="M 13.375 61.117188 L 47.085938 61.117188 L 47.085938 94.828125 L 13.375 94.828125 Z M 13.375 61.117188 " clip-rule="nonzero"/></clipPath><clipPath id="bcb5bf26cf"><path d="M 30.230469 61.117188 C 20.921875 61.117188 13.375 68.664062 13.375 77.972656 C 13.375 87.28125 20.921875 94.828125 30.230469 94.828125 C 39.539062 94.828125 47.085938 87.28125 47.085938 77.972656 C 47.085938 68.664062 39.539062 61.117188 30.230469 61.117188 Z M 30.230469 61.117188 " clip-rule="nonzero"/></clipPath><clipPath id="27c11b1c1c"><path d="M 24.867188 72.335938 L 36.136719 72.335938 L 36.136719 83.609375 L 24.867188 83.609375 Z M 24.867188 72.335938 " clip-rule="nonzero"/></clipPath><clipPath id="817c498739"><path d="M 30.503906 72.335938 C 27.390625 72.335938 24.867188 74.859375 24.867188 77.972656 C 24.867188 81.085938 27.390625 83.609375 30.503906 83.609375 C 33.613281 83.609375 36.136719 81.085938 36.136719 77.972656 C 36.136719 74.859375 33.613281 72.335938 30.503906 72.335938 Z M 30.503906 72.335938 " clip-rule="nonzero"/></clipPath><clipPath id="27773196ad"><path d="M 2.4375 0.179688 L 58.234375 0.179688 L 58.234375 73.832031 L 2.4375 73.832031 Z M 2.4375 0.179688 " clip-rule="nonzero"/></clipPath><clipPath id="aa2102ccdb"><path d="M 30 52 L 32 52 L 32 52.554688 L 30 52.554688 Z M 30 52 " clip-rule="nonzero"/></clipPath><clipPath id="7af5316bb1"><path d="M 6.324219 19 L 55.425781 19 L 55.425781 37 L 6.324219 37 Z M 6.324219 19 " clip-rule="nonzero"/></clipPath><clipPath id="9272c79e6a"><path d="M 7 3.453125 L 54 3.453125 L 54 20 L 7 20 Z M 7 3.453125 " clip-rule="nonzero"/></clipPath><clipPath id="9982e6e818"><path d="M 7 36 L 54 36 L 54 52.554688 L 7 52.554688 Z M 7 36 " clip-rule="nonzero"/></clipPath></defs><g clip-path="url(#9ec576ca91)"><g clip-path="url(#c4b92069a6)"><path fill="#e6f5f0" d="M 3.160156 50.695312 L 58.289062 50.695312 L 58.289062 105.824219 L 3.160156 105.824219 Z M 3.160156 50.695312 " fill-opacity="1" fill-rule="nonzero"/></g></g><g clip-path="url(#70e1047f68)"><g clip-path="url(#bcb5bf26cf)"><path fill="#bbe5d6" d="M 13.375 61.117188 L 47.085938 61.117188 L 47.085938 94.828125 L 13.375 94.828125 Z M 13.375 61.117188 " fill-opacity="1" fill-rule="nonzero"/></g></g><g clip-path="url(#27c11b1c1c)"><g clip-path="url(#817c498739)"><path fill="#0ca273" d="M 24.867188 72.335938 L 36.136719 72.335938 L 36.136719 83.609375 L 24.867188 83.609375 Z M 24.867188 72.335938 " fill-opacity="1" fill-rule="nonzero"/></g></g><g clip-path="url(#27773196ad)"><path fill="#000000" d="M 58.179688 28.011719 C 58.152344 12.613281 45.664062 0.15625 30.296875 0.1875 C 14.925781 0.214844 2.488281 12.71875 2.515625 28.113281 C 2.527344 33.453125 4.136719 38.375 6.640625 42.671875 C 12.292969 52.375 30.433594 73.8125 30.433594 73.8125 C 30.433594 73.8125 48.742188 51.988281 54.316406 42.234375 C 56.714844 38.027344 58.191406 33.203125 58.179688 28.011719 Z M 30.308594 6.625 C 42.132812 6.601562 51.730469 16.183594 51.753906 28.023438 C 51.777344 39.863281 42.210938 49.480469 30.386719 49.503906 C 18.566406 49.523438 8.964844 39.941406 8.941406 28.101562 C 8.921875 16.261719 18.484375 6.644531 30.308594 6.625 Z M 30.308594 6.625 " fill-opacity="1" fill-rule="nonzero"/></g><g clip-path="url(#aa2102ccdb)"><path fill="#ed1d24" d="M 30.867188 52.546875 C 31.148438 52.546875 31.425781 52.542969 31.699219 52.53125 L 30.035156 52.53125 C 30.3125 52.542969 30.589844 52.546875 30.867188 52.546875 " fill-opacity="1" fill-rule="nonzero"/></g><g clip-path="url(#7af5316bb1)"><path fill="#ed1d24" d="M 7.960938 19.15625 C 6.902344 21.898438 6.320312 24.882812 6.320312 28 C 6.320312 31.109375 6.898438 34.085938 7.957031 36.828125 L 53.78125 36.828125 C 54.835938 34.085938 55.417969 31.109375 55.417969 28 C 55.417969 24.882812 54.835938 21.898438 53.773438 19.15625 L 7.960938 19.15625 " fill-opacity="1" fill-rule="nonzero"/></g><g clip-path="url(#9272c79e6a)"><path fill="#100f0d" d="M 30.867188 3.449219 C 20.429688 3.449219 11.511719 9.96875 7.960938 19.15625 L 53.773438 19.15625 C 50.226562 9.96875 41.308594 3.449219 30.867188 3.449219 " fill-opacity="1" fill-rule="nonzero"/></g><g clip-path="url(#9982e6e818)"><path fill="#f7ed08" d="M 30.035156 52.53125 L 31.699219 52.53125 C 41.785156 52.195312 50.328125 45.777344 53.78125 36.828125 L 7.957031 36.828125 C 11.40625 45.777344 19.953125 52.195312 30.035156 52.53125 " fill-opacity="1" fill-rule="nonzero"/></g></svg>