<svg xmlns="http://www.w3.org/2000/svg" xmlns:xlink="http://www.w3.org/1999/xlink" width="82" viewBox="0 0 61.5 106.499998" height="142" preserveAspectRatio="xMidYMid meet"><defs><clipPath id="24bd39d92d"><path d="M 3.160156 50.695312 L 58.289062 50.695312 L 58.289062 105.824219 L 3.160156 105.824219 Z M 3.160156 50.695312 " clip-rule="nonzero"></path></clipPath><clipPath id="c46a6d56bc"><path d="M 30.726562 50.695312 C 15.503906 50.695312 3.160156 63.035156 3.160156 78.257812 C 3.160156 93.480469 15.503906 105.824219 30.726562 105.824219 C 45.949219 105.824219 58.289062 93.480469 58.289062 78.257812 C 58.289062 63.035156 45.949219 50.695312 30.726562 50.695312 Z M 30.726562 50.695312 " clip-rule="nonzero"></path></clipPath><clipPath id="7b1c9ce60b"><path d="M 13.375 61.117188 L 47.085938 61.117188 L 47.085938 94.828125 L 13.375 94.828125 Z M 13.375 61.117188 " clip-rule="nonzero"></path></clipPath><clipPath id="87101fbba6"><path d="M 30.230469 61.117188 C 20.921875 61.117188 13.375 68.664062 13.375 77.972656 C 13.375 87.28125 20.921875 94.828125 30.230469 94.828125 C 39.539062 94.828125 47.085938 87.28125 47.085938 77.972656 C 47.085938 68.664062 39.539062 61.117188 30.230469 61.117188 Z M 30.230469 61.117188 " clip-rule="nonzero"></path></clipPath><clipPath id="8d3cffc25b"><path d="M 24.867188 72.335938 L 36.136719 72.335938 L 36.136719 83.609375 L 24.867188 83.609375 Z M 24.867188 72.335938 " clip-rule="nonzero"></path></clipPath><clipPath id="3a9cb1a02e"><path d="M 30.503906 72.335938 C 27.390625 72.335938 24.867188 74.859375 24.867188 77.972656 C 24.867188 81.085938 27.390625 83.609375 30.503906 83.609375 C 33.613281 83.609375 36.136719 81.085938 36.136719 77.972656 C 36.136719 74.859375 33.613281 72.335938 30.503906 72.335938 Z M 30.503906 72.335938 " clip-rule="nonzero"></path></clipPath><clipPath id="c56ba3989f"><path d="M 2.4375 0.179688 L 58.234375 0.179688 L 58.234375 73.832031 L 2.4375 73.832031 Z M 2.4375 0.179688 " clip-rule="nonzero"></path></clipPath><clipPath id="f9f7a6e3da"><path d="M 7.625 5.683594 L 53.75 5.683594 L 53.75 51.808594 L 7.625 51.808594 Z M 7.625 5.683594 " clip-rule="nonzero"></path></clipPath><clipPath id="a596eb9d69"><path d="M 9 5.683594 L 53 5.683594 L 53 21 L 9 21 Z M 9 5.683594 " clip-rule="nonzero"></path></clipPath><clipPath id="fa471c0e37"><path d="M 9 36 L 53 36 L 53 51.808594 L 9 51.808594 Z M 9 36 " clip-rule="nonzero"></path></clipPath></defs><g clip-path="url(#24bd39d92d)"><g clip-path="url(#c46a6d56bc)"><path fill="#e6f5f0" d="M 3.160156 50.695312 L 58.289062 50.695312 L 58.289062 105.824219 L 3.160156 105.824219 Z M 3.160156 50.695312 " fill-opacity="1" fill-rule="nonzero"></path></g></g><g clip-path="url(#7b1c9ce60b)"><g clip-path="url(#87101fbba6)"><path fill="#bbe5d6" d="M 13.375 61.117188 L 47.085938 61.117188 L 47.085938 94.828125 L 13.375 94.828125 Z M 13.375 61.117188 " fill-opacity="1" fill-rule="nonzero"></path></g></g><g clip-path="url(#8d3cffc25b)"><g clip-path="url(#3a9cb1a02e)"><path fill="#0ca273" d="M 24.867188 72.335938 L 36.136719 72.335938 L 36.136719 83.609375 L 24.867188 83.609375 Z M 24.867188 72.335938 " fill-opacity="1" fill-rule="nonzero"></path></g></g><g clip-path="url(#c56ba3989f)"><path fill="#000000" d="M 58.179688 28.011719 C 58.152344 12.613281 45.664062 0.15625 30.296875 0.1875 C 14.925781 0.214844 2.488281 12.71875 2.515625 28.113281 C 2.527344 33.453125 4.136719 38.375 6.640625 42.671875 C 12.292969 52.375 30.433594 73.8125 30.433594 73.8125 C 30.433594 73.8125 48.742188 51.988281 54.316406 42.234375 C 56.714844 38.027344 58.191406 33.203125 58.179688 28.011719 Z M 30.308594 6.625 C 42.132812 6.601562 51.730469 16.183594 51.753906 28.023438 C 51.777344 39.863281 42.210938 49.480469 30.386719 49.503906 C 18.566406 49.523438 8.964844 39.941406 8.941406 28.101562 C 8.921875 16.261719 18.484375 6.644531 30.308594 6.625 Z M 30.308594 6.625 " fill-opacity="1" fill-rule="nonzero"></path></g><g clip-path="url(#f9f7a6e3da)"><path fill="#f0f0f0" d="M 53.75 28.746094 C 53.75 29.5 53.714844 30.253906 53.640625 31.007812 C 53.566406 31.757812 53.453125 32.503906 53.308594 33.246094 C 53.160156 33.984375 52.976562 34.71875 52.757812 35.441406 C 52.539062 36.164062 52.285156 36.875 51.996094 37.570312 C 51.707031 38.269531 51.382812 38.953125 51.027344 39.617188 C 50.671875 40.285156 50.28125 40.929688 49.863281 41.558594 C 49.445312 42.1875 48.996094 42.792969 48.515625 43.375 C 48.035156 43.960938 47.53125 44.519531 46.996094 45.054688 C 46.460938 45.585938 45.902344 46.09375 45.316406 46.574219 C 44.734375 47.054688 44.128906 47.503906 43.5 47.921875 C 42.871094 48.339844 42.226562 48.730469 41.558594 49.085938 C 40.894531 49.441406 40.210938 49.765625 39.511719 50.054688 C 38.816406 50.34375 38.105469 50.597656 37.382812 50.816406 C 36.660156 51.035156 35.925781 51.21875 35.1875 51.367188 C 34.445312 51.511719 33.699219 51.625 32.949219 51.699219 C 32.195312 51.773438 31.441406 51.808594 30.6875 51.808594 C 29.933594 51.808594 29.179688 51.773438 28.425781 51.699219 C 27.675781 51.625 26.929688 51.511719 26.1875 51.367188 C 25.449219 51.21875 24.714844 51.035156 23.992188 50.816406 C 23.269531 50.597656 22.558594 50.34375 21.863281 50.054688 C 21.164062 49.765625 20.480469 49.441406 19.816406 49.085938 C 19.148438 48.730469 18.503906 48.339844 17.875 47.921875 C 17.246094 47.503906 16.640625 47.054688 16.058594 46.574219 C 15.472656 46.09375 14.914062 45.585938 14.378906 45.054688 C 13.847656 44.519531 13.339844 43.960938 12.859375 43.375 C 12.382812 42.792969 11.929688 42.1875 11.511719 41.558594 C 11.09375 40.929688 10.703125 40.285156 10.347656 39.617188 C 9.992188 38.953125 9.667969 38.269531 9.378906 37.570312 C 9.089844 36.875 8.835938 36.164062 8.617188 35.441406 C 8.398438 34.71875 8.214844 33.984375 8.066406 33.246094 C 7.921875 32.503906 7.808594 31.757812 7.734375 31.007812 C 7.664062 30.253906 7.625 29.5 7.625 28.746094 C 7.625 27.992188 7.664062 27.238281 7.734375 26.484375 C 7.808594 25.734375 7.921875 24.988281 8.066406 24.246094 C 8.214844 23.507812 8.398438 22.773438 8.617188 22.050781 C 8.835938 21.328125 9.089844 20.617188 9.378906 19.921875 C 9.667969 19.222656 9.992188 18.539062 10.347656 17.875 C 10.703125 17.207031 11.09375 16.5625 11.511719 15.933594 C 11.929688 15.304688 12.382812 14.699219 12.859375 14.117188 C 13.339844 13.53125 13.847656 12.972656 14.378906 12.4375 C 14.914062 11.90625 15.472656 11.398438 16.058594 10.917969 C 16.640625 10.4375 17.246094 9.988281 17.875 9.570312 C 18.503906 9.152344 19.148438 8.761719 19.816406 8.40625 C 20.480469 8.050781 21.164062 7.726562 21.863281 7.4375 C 22.558594 7.148438 23.269531 6.894531 23.992188 6.675781 C 24.714844 6.457031 25.449219 6.273438 26.1875 6.125 C 26.929688 5.980469 27.675781 5.867188 28.425781 5.792969 C 29.179688 5.71875 29.933594 5.683594 30.6875 5.683594 C 31.441406 5.683594 32.195312 5.71875 32.949219 5.792969 C 33.699219 5.867188 34.445312 5.980469 35.1875 6.125 C 35.925781 6.273438 36.660156 6.457031 37.382812 6.675781 C 38.105469 6.894531 38.816406 7.148438 39.511719 7.4375 C 40.210938 7.726562 40.894531 8.050781 41.558594 8.40625 C 42.226562 8.761719 42.871094 9.152344 43.5 9.570312 C 44.128906 9.988281 44.734375 10.4375 45.316406 10.917969 C 45.902344 11.398438 46.460938 11.90625 46.996094 12.4375 C 47.53125 12.972656 48.035156 13.53125 48.515625 14.117188 C 48.996094 14.699219 49.445312 15.304688 49.863281 15.933594 C 50.28125 16.5625 50.671875 17.207031 51.027344 17.875 C 51.382812 18.539062 51.707031 19.222656 51.996094 19.921875 C 52.285156 20.617188 52.539062 21.328125 52.757812 22.050781 C 52.976562 22.773438 53.160156 23.507812 53.308594 24.246094 C 53.453125 24.988281 53.566406 25.734375 53.640625 26.484375 C 53.714844 27.238281 53.75 27.992188 53.75 28.746094 Z M 53.75 28.746094 " fill-opacity="1" fill-rule="nonzero"></path></g><g clip-path="url(#a596eb9d69)"><path fill="#a2001d" d="M 30.6875 5.683594 C 20.773438 5.683594 12.316406 11.941406 9.058594 20.722656 L 52.316406 20.722656 C 49.058594 11.941406 40.605469 5.683594 30.6875 5.683594 Z M 30.6875 5.683594 " fill-opacity="1" fill-rule="nonzero"></path></g><g clip-path="url(#fa471c0e37)"><path fill="#0052b4" d="M 30.6875 51.808594 C 40.605469 51.808594 49.058594 45.550781 52.316406 36.769531 L 9.058594 36.769531 C 12.316406 45.550781 20.773438 51.808594 30.6875 51.808594 Z M 30.6875 51.808594 " fill-opacity="1" fill-rule="nonzero"></path></g></svg>