<svg xmlns="http://www.w3.org/2000/svg" xmlns:xlink="http://www.w3.org/1999/xlink" width="82" zoomAndPan="magnify" viewBox="0 0 61.5 106.499998" height="142" preserveAspectRatio="xMidYMid meet" version="1.0"><defs><clipPath id="2c0371cd3d"><path d="M 3.160156 50.695312 L 58.289062 50.695312 L 58.289062 105.824219 L 3.160156 105.824219 Z M 3.160156 50.695312 " clip-rule="nonzero"/></clipPath><clipPath id="3bd51ccaf9"><path d="M 30.726562 50.695312 C 15.503906 50.695312 3.160156 63.035156 3.160156 78.257812 C 3.160156 93.480469 15.503906 105.824219 30.726562 105.824219 C 45.949219 105.824219 58.289062 93.480469 58.289062 78.257812 C 58.289062 63.035156 45.949219 50.695312 30.726562 50.695312 Z M 30.726562 50.695312 " clip-rule="nonzero"/></clipPath><clipPath id="3e5bd616b4"><path d="M 13.375 61.117188 L 47.085938 61.117188 L 47.085938 94.828125 L 13.375 94.828125 Z M 13.375 61.117188 " clip-rule="nonzero"/></clipPath><clipPath id="fb2806c55e"><path d="M 30.230469 61.117188 C 20.921875 61.117188 13.375 68.664062 13.375 77.972656 C 13.375 87.28125 20.921875 94.828125 30.230469 94.828125 C 39.539062 94.828125 47.085938 87.28125 47.085938 77.972656 C 47.085938 68.664062 39.539062 61.117188 30.230469 61.117188 Z M 30.230469 61.117188 " clip-rule="nonzero"/></clipPath><clipPath id="fb3f678654"><path d="M 24.867188 72.335938 L 36.136719 72.335938 L 36.136719 83.609375 L 24.867188 83.609375 Z M 24.867188 72.335938 " clip-rule="nonzero"/></clipPath><clipPath id="a66ecb72bb"><path d="M 30.503906 72.335938 C 27.390625 72.335938 24.867188 74.859375 24.867188 77.972656 C 24.867188 81.085938 27.390625 83.609375 30.503906 83.609375 C 33.613281 83.609375 36.136719 81.085938 36.136719 77.972656 C 36.136719 74.859375 33.613281 72.335938 30.503906 72.335938 Z M 30.503906 72.335938 " clip-rule="nonzero"/></clipPath><clipPath id="f88b45b9b6"><path d="M 2.4375 0.179688 L 58.234375 0.179688 L 58.234375 73.832031 L 2.4375 73.832031 Z M 2.4375 0.179688 " clip-rule="nonzero"/></clipPath><clipPath id="651f917187"><path d="M 9 6.28125 L 52 6.28125 L 52 24 L 9 24 Z M 9 6.28125 " clip-rule="nonzero"/></clipPath><clipPath id="ff775653e3"><path d="M 9 34 L 52 34 L 52 50.917969 L 9 50.917969 Z M 9 34 " clip-rule="nonzero"/></clipPath></defs><g clip-path="url(#2c0371cd3d)"><g clip-path="url(#3bd51ccaf9)"><path fill="#e6f5f0" d="M 3.160156 50.695312 L 58.289062 50.695312 L 58.289062 105.824219 L 3.160156 105.824219 Z M 3.160156 50.695312 " fill-opacity="1" fill-rule="nonzero"/></g></g><g clip-path="url(#3e5bd616b4)"><g clip-path="url(#fb2806c55e)"><path fill="#bbe5d6" d="M 13.375 61.117188 L 47.085938 61.117188 L 47.085938 94.828125 L 13.375 94.828125 Z M 13.375 61.117188 " fill-opacity="1" fill-rule="nonzero"/></g></g><g clip-path="url(#fb3f678654)"><g clip-path="url(#a66ecb72bb)"><path fill="#0ca273" d="M 24.867188 72.335938 L 36.136719 72.335938 L 36.136719 83.609375 L 24.867188 83.609375 Z M 24.867188 72.335938 " fill-opacity="1" fill-rule="nonzero"/></g></g><g clip-path="url(#f88b45b9b6)"><path fill="#000000" d="M 58.179688 28.011719 C 58.152344 12.613281 45.664062 0.15625 30.296875 0.1875 C 14.925781 0.214844 2.488281 12.71875 2.515625 28.113281 C 2.527344 33.453125 4.136719 38.375 6.640625 42.671875 C 12.292969 52.375 30.433594 73.8125 30.433594 73.8125 C 30.433594 73.8125 48.742188 51.988281 54.316406 42.234375 C 56.714844 38.027344 58.191406 33.203125 58.179688 28.011719 Z M 30.308594 6.625 C 42.132812 6.601562 51.730469 16.183594 51.753906 28.023438 C 51.777344 39.863281 42.210938 49.480469 30.386719 49.503906 C 18.566406 49.523438 8.964844 39.941406 8.941406 28.101562 C 8.921875 16.261719 18.484375 6.644531 30.308594 6.625 Z M 30.308594 6.625 " fill-opacity="1" fill-rule="nonzero"/></g><g clip-path="url(#651f917187)"><path fill="#f1f1f1" d="M 30.621094 6.429688 C 21.128906 6.429688 13.011719 12.414062 9.835938 20.804688 L 30.632812 23.03125 L 51.402344 20.804688 C 48.226562 12.414062 40.113281 6.429688 30.621094 6.429688 Z M 30.621094 6.429688 " fill-opacity="1" fill-rule="nonzero"/></g><g clip-path="url(#ff775653e3)"><path fill="#e90000" d="M 30.621094 50.847656 C 40.113281 50.847656 48.226562 44.863281 51.402344 36.46875 L 30.621094 34.984375 L 9.835938 36.46875 C 13.011719 44.859375 21.128906 50.847656 30.621094 50.847656 Z M 30.621094 50.847656 " fill-opacity="1" fill-rule="nonzero"/></g><path fill="#0000d2" d="M 51.660156 21.53125 C 51.578125 21.289062 51.492188 21.046875 51.402344 20.808594 L 9.835938 20.808594 C 7.945312 25.679688 7.945312 31.59375 9.835938 36.46875 C 9.835938 36.46875 51.402344 36.46875 51.402344 36.46875 C 53.195312 31.847656 53.300781 26.210938 51.660156 21.53125 Z M 51.660156 21.53125 " fill-opacity="1" fill-rule="nonzero"/></svg>