<svg xmlns="http://www.w3.org/2000/svg" xmlns:xlink="http://www.w3.org/1999/xlink" width="82" zoomAndPan="magnify" viewBox="0 0 61.5 106.499998" height="142" preserveAspectRatio="xMidYMid meet" version="1.0"><defs><clipPath id="8623079341"><path d="M 3.160156 50.695312 L 58.289062 50.695312 L 58.289062 105.824219 L 3.160156 105.824219 Z M 3.160156 50.695312 " clip-rule="nonzero"/></clipPath><clipPath id="6a03c42773"><path d="M 30.726562 50.695312 C 15.503906 50.695312 3.160156 63.035156 3.160156 78.257812 C 3.160156 93.480469 15.503906 105.824219 30.726562 105.824219 C 45.949219 105.824219 58.289062 93.480469 58.289062 78.257812 C 58.289062 63.035156 45.949219 50.695312 30.726562 50.695312 Z M 30.726562 50.695312 " clip-rule="nonzero"/></clipPath><clipPath id="53a88b8e47"><path d="M 13.375 61.117188 L 47.085938 61.117188 L 47.085938 94.828125 L 13.375 94.828125 Z M 13.375 61.117188 " clip-rule="nonzero"/></clipPath><clipPath id="194cbbf7c7"><path d="M 30.230469 61.117188 C 20.921875 61.117188 13.375 68.664062 13.375 77.972656 C 13.375 87.28125 20.921875 94.828125 30.230469 94.828125 C 39.539062 94.828125 47.085938 87.28125 47.085938 77.972656 C 47.085938 68.664062 39.539062 61.117188 30.230469 61.117188 Z M 30.230469 61.117188 " clip-rule="nonzero"/></clipPath><clipPath id="6f477b7b7a"><path d="M 24.867188 72.335938 L 36.136719 72.335938 L 36.136719 83.609375 L 24.867188 83.609375 Z M 24.867188 72.335938 " clip-rule="nonzero"/></clipPath><clipPath id="55dde09a12"><path d="M 30.503906 72.335938 C 27.390625 72.335938 24.867188 74.859375 24.867188 77.972656 C 24.867188 81.085938 27.390625 83.609375 30.503906 83.609375 C 33.613281 83.609375 36.136719 81.085938 36.136719 77.972656 C 36.136719 74.859375 33.613281 72.335938 30.503906 72.335938 Z M 30.503906 72.335938 " clip-rule="nonzero"/></clipPath><clipPath id="ecedc55414"><path d="M 2.4375 0.179688 L 58.234375 0.179688 L 58.234375 73.832031 L 2.4375 73.832031 Z M 2.4375 0.179688 " clip-rule="nonzero"/></clipPath><clipPath id="a36f67d9f2"><path d="M 6.101562 3.453125 L 55.203125 3.453125 L 55.203125 52.554688 L 6.101562 52.554688 Z M 6.101562 3.453125 " clip-rule="nonzero"/></clipPath><clipPath id="4d16af806f"><path d="M 6.101562 28 L 55.203125 28 L 55.203125 52.554688 L 6.101562 52.554688 Z M 6.101562 28 " clip-rule="nonzero"/></clipPath><clipPath id="e9e7a82b8a"><path d="M 6.101562 13 L 30 13 L 30 43 L 6.101562 43 Z M 6.101562 13 " clip-rule="nonzero"/></clipPath><clipPath id="dd2926e0f5"><path d="M 9 10 L 55.203125 10 L 55.203125 46 L 9 46 Z M 9 10 " clip-rule="nonzero"/></clipPath></defs><g clip-path="url(#8623079341)"><g clip-path="url(#6a03c42773)"><path fill="#e6f5f0" d="M 3.160156 50.695312 L 58.289062 50.695312 L 58.289062 105.824219 L 3.160156 105.824219 Z M 3.160156 50.695312 " fill-opacity="1" fill-rule="nonzero"/></g></g><g clip-path="url(#53a88b8e47)"><g clip-path="url(#194cbbf7c7)"><path fill="#bbe5d6" d="M 13.375 61.117188 L 47.085938 61.117188 L 47.085938 94.828125 L 13.375 94.828125 Z M 13.375 61.117188 " fill-opacity="1" fill-rule="nonzero"/></g></g><g clip-path="url(#6f477b7b7a)"><g clip-path="url(#55dde09a12)"><path fill="#0ca273" d="M 24.867188 72.335938 L 36.136719 72.335938 L 36.136719 83.609375 L 24.867188 83.609375 Z M 24.867188 72.335938 " fill-opacity="1" fill-rule="nonzero"/></g></g><g clip-path="url(#ecedc55414)"><path fill="#000000" d="M 58.179688 28.011719 C 58.152344 12.613281 45.664062 0.15625 30.296875 0.1875 C 14.925781 0.214844 2.488281 12.71875 2.515625 28.113281 C 2.527344 33.453125 4.136719 38.375 6.640625 42.671875 C 12.292969 52.375 30.433594 73.8125 30.433594 73.8125 C 30.433594 73.8125 48.742188 51.988281 54.316406 42.234375 C 56.714844 38.027344 58.191406 33.203125 58.179688 28.011719 Z M 30.308594 6.625 C 42.132812 6.601562 51.730469 16.183594 51.753906 28.023438 C 51.777344 39.863281 42.210938 49.480469 30.386719 49.503906 C 18.566406 49.523438 8.964844 39.941406 8.941406 28.101562 C 8.921875 16.261719 18.484375 6.644531 30.308594 6.625 Z M 30.308594 6.625 " fill-opacity="1" fill-rule="nonzero"/></g><g clip-path="url(#a36f67d9f2)"><path fill="#e92b2b" d="M 30.652344 3.453125 C 44.210938 3.453125 55.203125 14.445312 55.203125 28.003906 C 55.203125 41.5625 44.210938 52.554688 30.652344 52.554688 C 17.09375 52.554688 6.101562 41.5625 6.101562 28.003906 C 6.101562 14.445312 17.09375 3.453125 30.652344 3.453125 Z M 30.652344 3.453125 " fill-opacity="1" fill-rule="evenodd"/></g><g clip-path="url(#4d16af806f)"><path fill="#2a2faf" d="M 6.101562 28.003906 C 6.101562 28.007812 6.101562 28.011719 6.101562 28.015625 C 6.105469 41.570312 17.09375 52.554688 30.652344 52.554688 C 44.210938 52.554688 55.203125 41.5625 55.203125 28.003906 Z M 6.101562 28.003906 " fill-opacity="1" fill-rule="evenodd"/></g><g clip-path="url(#e9e7a82b8a)"><path fill="#1d1d1d" d="M 11.128906 42.890625 C 7.972656 38.761719 6.101562 33.601562 6.101562 28.003906 C 6.101562 22.359375 8.007812 17.160156 11.210938 13.011719 L 29.308594 27.917969 Z M 11.128906 42.890625 " fill-opacity="1" fill-rule="evenodd"/></g><g clip-path="url(#dd2926e0f5)"><path fill="#32ab45" d="M 9.101562 16.230469 C 10.347656 13.953125 11.945312 11.898438 13.820312 10.132812 L 30.917969 24.09375 L 54.890625 24.09375 C 55.09375 25.367188 55.199219 26.675781 55.199219 28.003906 C 55.199219 29.273438 55.105469 30.523438 54.917969 31.742188 L 30.917969 31.742188 L 13.71875 45.785156 C 11.855469 44.007812 10.269531 41.941406 9.035156 39.65625 L 23.410156 27.917969 Z M 9.101562 16.230469 " fill-opacity="1" fill-rule="evenodd"/></g><path fill="#ffe70e" d="M 8.5625 17.277344 C 8.847656 16.695312 9.152344 16.125 9.476562 15.570312 L 24.179688 27.199219 C 24.402344 27.378906 24.53125 27.640625 24.53125 27.917969 C 24.53125 28.195312 24.402344 28.457031 24.179688 28.632812 L 9.40625 40.320312 C 9.082031 39.761719 8.78125 39.191406 8.5 38.605469 L 22.015625 27.917969 Z M 8.5625 17.277344 " fill-opacity="1" fill-rule="evenodd"/><path fill="#fbfbfb" d="M 13.25 10.683594 C 13.699219 10.234375 14.164062 9.800781 14.648438 9.386719 L 31.394531 22.65625 L 54.617188 22.65625 C 54.75 23.265625 54.863281 23.882812 54.953125 24.503906 L 31.042969 24.503906 C 30.8125 24.503906 30.59375 24.429688 30.417969 24.289062 Z M 13.25 10.683594 " fill-opacity="1" fill-rule="evenodd"/><path fill="#fbfbfb" d="M 14.542969 46.53125 C 14.0625 46.117188 13.601562 45.679688 13.15625 45.226562 L 30.421875 31.546875 C 30.59375 31.40625 30.816406 31.332031 31.042969 31.332031 L 54.980469 31.332031 C 54.894531 31.953125 54.785156 32.570312 54.65625 33.179688 L 31.394531 33.179688 Z M 14.542969 46.53125 " fill-opacity="1" fill-rule="evenodd"/></svg>