<svg xmlns="http://www.w3.org/2000/svg" xmlns:xlink="http://www.w3.org/1999/xlink" width="82" viewBox="0 0 61.5 106.499998" height="142" preserveAspectRatio="xMidYMid meet"><defs><clipPath id="a4f4c77863"><path d="M 3.160156 50.695312 L 58.289062 50.695312 L 58.289062 105.824219 L 3.160156 105.824219 Z M 3.160156 50.695312 " clip-rule="nonzero"></path></clipPath><clipPath id="7f45c2fcda"><path d="M 30.726562 50.695312 C 15.503906 50.695312 3.160156 63.035156 3.160156 78.257812 C 3.160156 93.480469 15.503906 105.824219 30.726562 105.824219 C 45.949219 105.824219 58.289062 93.480469 58.289062 78.257812 C 58.289062 63.035156 45.949219 50.695312 30.726562 50.695312 Z M 30.726562 50.695312 " clip-rule="nonzero"></path></clipPath><clipPath id="e47c479acf"><path d="M 13.375 61.117188 L 47.085938 61.117188 L 47.085938 94.828125 L 13.375 94.828125 Z M 13.375 61.117188 " clip-rule="nonzero"></path></clipPath><clipPath id="6181e31cd9"><path d="M 30.230469 61.117188 C 20.921875 61.117188 13.375 68.664062 13.375 77.972656 C 13.375 87.28125 20.921875 94.828125 30.230469 94.828125 C 39.539062 94.828125 47.085938 87.28125 47.085938 77.972656 C 47.085938 68.664062 39.539062 61.117188 30.230469 61.117188 Z M 30.230469 61.117188 " clip-rule="nonzero"></path></clipPath><clipPath id="f64270d25c"><path d="M 24.867188 72.335938 L 36.136719 72.335938 L 36.136719 83.609375 L 24.867188 83.609375 Z M 24.867188 72.335938 " clip-rule="nonzero"></path></clipPath><clipPath id="1b537fe649"><path d="M 30.503906 72.335938 C 27.390625 72.335938 24.867188 74.859375 24.867188 77.972656 C 24.867188 81.085938 27.390625 83.609375 30.503906 83.609375 C 33.613281 83.609375 36.136719 81.085938 36.136719 77.972656 C 36.136719 74.859375 33.613281 72.335938 30.503906 72.335938 Z M 30.503906 72.335938 " clip-rule="nonzero"></path></clipPath><clipPath id="98b53c9865"><path d="M 2.4375 0.179688 L 58.234375 0.179688 L 58.234375 73.832031 L 2.4375 73.832031 Z M 2.4375 0.179688 " clip-rule="nonzero"></path></clipPath><clipPath id="0ebb0bfe38"><path d="M 7.625 5.683594 L 53.75 5.683594 L 53.75 51.808594 L 7.625 51.808594 Z M 7.625 5.683594 " clip-rule="nonzero"></path></clipPath></defs><g clip-path="url(#a4f4c77863)"><g clip-path="url(#7f45c2fcda)"><path fill="#e6f5f0" d="M 3.160156 50.695312 L 58.289062 50.695312 L 58.289062 105.824219 L 3.160156 105.824219 Z M 3.160156 50.695312 " fill-opacity="1" fill-rule="nonzero"></path></g></g><g clip-path="url(#e47c479acf)"><g clip-path="url(#6181e31cd9)"><path fill="#bbe5d6" d="M 13.375 61.117188 L 47.085938 61.117188 L 47.085938 94.828125 L 13.375 94.828125 Z M 13.375 61.117188 " fill-opacity="1" fill-rule="nonzero"></path></g></g><g clip-path="url(#f64270d25c)"><g clip-path="url(#1b537fe649)"><path fill="#0ca273" d="M 24.867188 72.335938 L 36.136719 72.335938 L 36.136719 83.609375 L 24.867188 83.609375 Z M 24.867188 72.335938 " fill-opacity="1" fill-rule="nonzero"></path></g></g><g clip-path="url(#98b53c9865)"><path fill="#000000" d="M 58.179688 28.011719 C 58.152344 12.613281 45.664062 0.15625 30.296875 0.1875 C 14.925781 0.214844 2.488281 12.71875 2.515625 28.113281 C 2.527344 33.453125 4.136719 38.375 6.640625 42.671875 C 12.292969 52.375 30.433594 73.8125 30.433594 73.8125 C 30.433594 73.8125 48.742188 51.988281 54.316406 42.234375 C 56.714844 38.027344 58.191406 33.203125 58.179688 28.011719 Z M 30.308594 6.625 C 42.132812 6.601562 51.730469 16.183594 51.753906 28.023438 C 51.777344 39.863281 42.210938 49.480469 30.386719 49.503906 C 18.566406 49.523438 8.964844 39.941406 8.941406 28.101562 C 8.921875 16.261719 18.484375 6.644531 30.308594 6.625 Z M 30.308594 6.625 " fill-opacity="1" fill-rule="nonzero"></path></g><g clip-path="url(#0ebb0bfe38)"><path fill="#e20a17" d="M 52.445312 21.0625 C 49.273438 12.105469 40.730469 5.683594 30.6875 5.683594 C 20.644531 5.683594 12.105469 12.105469 8.9375 21.0625 C 8.085938 23.464844 7.625 26.050781 7.625 28.746094 C 7.625 31.441406 8.085938 34.03125 8.9375 36.429688 C 12.105469 45.386719 20.648438 51.808594 30.6875 51.808594 C 40.726562 51.808594 49.273438 45.386719 52.4375 36.429688 C 53.289062 34.027344 53.75 31.441406 53.75 28.746094 C 53.75 26.050781 53.289062 23.464844 52.445312 21.0625 Z M 52.445312 21.0625 " fill-opacity="1" fill-rule="nonzero"></path></g><path fill="#ededed" d="M 28.882812 37.390625 C 24.113281 37.390625 20.242188 33.523438 20.242188 28.746094 C 20.242188 23.96875 24.109375 20.101562 28.882812 20.101562 C 31.023438 20.101562 32.980469 20.878906 34.488281 22.167969 C 32.65625 20.0625 29.953125 18.730469 26.945312 18.730469 C 21.417969 18.730469 16.9375 23.210938 16.9375 28.738281 C 16.9375 34.269531 21.417969 38.75 26.945312 38.75 C 29.953125 38.75 32.65625 37.417969 34.488281 35.3125 C 32.980469 36.613281 31.023438 37.390625 28.882812 37.390625 Z M 28.882812 37.390625 " fill-opacity="1" fill-rule="nonzero"></path><path fill="#ededed" d="M 38.023438 23.796875 L 40.472656 26.566406 L 43.851562 25.074219 L 41.972656 28.253906 L 44.4375 31.003906 L 40.832031 30.207031 L 38.976562 33.398438 L 38.628906 29.722656 L 35.015625 28.945312 L 38.402344 27.476562 Z M 38.023438 23.796875 " fill-opacity="1" fill-rule="nonzero"></path></svg>