<svg xmlns="http://www.w3.org/2000/svg" xmlns:xlink="http://www.w3.org/1999/xlink" width="82" zoomAndPan="magnify" viewBox="0 0 61.5 106.499998" height="142" preserveAspectRatio="xMidYMid meet" version="1.0"><defs><clipPath id="dbce0870b1"><path d="M 3.160156 50.695312 L 58.289062 50.695312 L 58.289062 105.824219 L 3.160156 105.824219 Z M 3.160156 50.695312 " clip-rule="nonzero"/></clipPath><clipPath id="294e85cc39"><path d="M 30.726562 50.695312 C 15.503906 50.695312 3.160156 63.035156 3.160156 78.257812 C 3.160156 93.480469 15.503906 105.824219 30.726562 105.824219 C 45.949219 105.824219 58.289062 93.480469 58.289062 78.257812 C 58.289062 63.035156 45.949219 50.695312 30.726562 50.695312 Z M 30.726562 50.695312 " clip-rule="nonzero"/></clipPath><clipPath id="2133c1a11c"><path d="M 13.375 61.117188 L 47.085938 61.117188 L 47.085938 94.828125 L 13.375 94.828125 Z M 13.375 61.117188 " clip-rule="nonzero"/></clipPath><clipPath id="9409a52aa1"><path d="M 30.230469 61.117188 C 20.921875 61.117188 13.375 68.664062 13.375 77.972656 C 13.375 87.28125 20.921875 94.828125 30.230469 94.828125 C 39.539062 94.828125 47.085938 87.28125 47.085938 77.972656 C 47.085938 68.664062 39.539062 61.117188 30.230469 61.117188 Z M 30.230469 61.117188 " clip-rule="nonzero"/></clipPath><clipPath id="7d58a1dfce"><path d="M 24.867188 72.335938 L 36.136719 72.335938 L 36.136719 83.609375 L 24.867188 83.609375 Z M 24.867188 72.335938 " clip-rule="nonzero"/></clipPath><clipPath id="9495fc1408"><path d="M 30.503906 72.335938 C 27.390625 72.335938 24.867188 74.859375 24.867188 77.972656 C 24.867188 81.085938 27.390625 83.609375 30.503906 83.609375 C 33.613281 83.609375 36.136719 81.085938 36.136719 77.972656 C 36.136719 74.859375 33.613281 72.335938 30.503906 72.335938 Z M 30.503906 72.335938 " clip-rule="nonzero"/></clipPath><clipPath id="7634b296a9"><path d="M 2.4375 0.179688 L 58.234375 0.179688 L 58.234375 73.832031 L 2.4375 73.832031 Z M 2.4375 0.179688 " clip-rule="nonzero"/></clipPath><clipPath id="7d0f0eeb57"><path d="M 35 32 L 52.820312 32 L 52.820312 50 L 35 50 Z M 35 32 " clip-rule="nonzero"/></clipPath><clipPath id="d80d32612a"><path d="M 35 6.28125 L 52.820312 6.28125 L 52.820312 24 L 35 24 Z M 35 6.28125 " clip-rule="nonzero"/></clipPath><clipPath id="1b67c68a10"><path d="M 9 6.28125 L 27 6.28125 L 27 24 L 9 24 Z M 9 6.28125 " clip-rule="nonzero"/></clipPath><clipPath id="1742e130fe"><path d="M 8.929688 6.28125 L 52.820312 6.28125 L 52.820312 50.175781 L 8.929688 50.175781 Z M 8.929688 6.28125 " clip-rule="nonzero"/></clipPath></defs><g clip-path="url(#dbce0870b1)"><g clip-path="url(#294e85cc39)"><path fill="#e6f5f0" d="M 3.160156 50.695312 L 58.289062 50.695312 L 58.289062 105.824219 L 3.160156 105.824219 Z M 3.160156 50.695312 " fill-opacity="1" fill-rule="nonzero"/></g></g><g clip-path="url(#2133c1a11c)"><g clip-path="url(#9409a52aa1)"><path fill="#bbe5d6" d="M 13.375 61.117188 L 47.085938 61.117188 L 47.085938 94.828125 L 13.375 94.828125 Z M 13.375 61.117188 " fill-opacity="1" fill-rule="nonzero"/></g></g><g clip-path="url(#7d58a1dfce)"><g clip-path="url(#9495fc1408)"><path fill="#0ca273" d="M 24.867188 72.335938 L 36.136719 72.335938 L 36.136719 83.609375 L 24.867188 83.609375 Z M 24.867188 72.335938 " fill-opacity="1" fill-rule="nonzero"/></g></g><g clip-path="url(#7634b296a9)"><path fill="#000000" d="M 58.179688 28.011719 C 58.152344 12.613281 45.664062 0.15625 30.296875 0.1875 C 14.925781 0.214844 2.488281 12.71875 2.515625 28.113281 C 2.527344 33.453125 4.136719 38.375 6.640625 42.671875 C 12.292969 52.375 30.433594 73.8125 30.433594 73.8125 C 30.433594 73.8125 48.742188 51.988281 54.316406 42.234375 C 56.714844 38.027344 58.191406 33.203125 58.179688 28.011719 Z M 30.308594 6.625 C 42.132812 6.601562 51.730469 16.183594 51.753906 28.023438 C 51.777344 39.863281 42.210938 49.480469 30.386719 49.503906 C 18.566406 49.523438 8.964844 39.941406 8.941406 28.101562 C 8.921875 16.261719 18.484375 6.644531 30.308594 6.625 Z M 30.308594 6.625 " fill-opacity="1" fill-rule="nonzero"/></g><path fill="#273376" d="M 48.566406 15.25 C 46.003906 11.757812 42.433594 9.054688 38.28125 7.5625 L 38.28125 20.390625 L 48.566406 15.25 " fill-opacity="1" fill-rule="nonzero"/><path fill="#273376" d="M 23.492188 20.390625 L 23.492188 7.550781 C 19.332031 9.035156 15.75 11.742188 13.179688 15.234375 L 23.492188 20.390625 " fill-opacity="1" fill-rule="nonzero"/><path fill="#273376" d="M 23.492188 36.054688 L 13.179688 41.210938 C 15.75 44.703125 19.332031 47.410156 23.492188 48.894531 L 23.492188 36.054688 " fill-opacity="1" fill-rule="nonzero"/><path fill="#273376" d="M 38.28125 48.882812 C 42.433594 47.390625 46.003906 44.6875 48.566406 41.195312 L 38.28125 36.054688 L 38.28125 48.882812 " fill-opacity="1" fill-rule="nonzero"/><path fill="#ffffff" d="M 23.492188 20.390625 L 13.179688 15.234375 C 12.449219 16.230469 11.800781 17.289062 11.242188 18.402344 L 15.988281 20.773438 L 11.136719 20.773438 L 10.363281 20.390625 C 10.308594 20.535156 10.253906 20.683594 10.203125 20.828125 L 23.492188 20.828125 L 23.492188 20.390625 " fill-opacity="1" fill-rule="nonzero"/><path fill="#ffffff" d="M 38.28125 20.828125 L 40.714844 20.828125 L 49.410156 16.480469 C 49.144531 16.058594 48.863281 15.648438 48.566406 15.25 L 38.28125 20.390625 L 38.28125 20.828125 " fill-opacity="1" fill-rule="nonzero"/><path fill="#ffffff" d="M 50.601562 35.648438 L 51.378906 36.035156 C 51.433594 35.894531 51.484375 35.757812 51.535156 35.617188 L 38.28125 35.617188 L 38.28125 36.054688 L 48.566406 41.195312 C 49.296875 40.199219 49.949219 39.140625 50.507812 38.023438 L 45.746094 35.648438 L 50.601562 35.648438 " fill-opacity="1" fill-rule="nonzero"/><path fill="#ffffff" d="M 15.988281 35.617188 L 10.203125 35.617188 C 10.496094 36.4375 10.835938 37.234375 11.222656 38.003906 L 15.988281 35.617188 " fill-opacity="1" fill-rule="nonzero"/><path fill="#ffffff" d="M 23.492188 36.054688 L 23.492188 35.617188 L 20.976562 35.617188 L 12.316406 39.945312 C 12.589844 40.378906 12.878906 40.800781 13.179688 41.210938 L 23.492188 36.054688 " fill-opacity="1" fill-rule="nonzero"/><path fill="#ffffff" d="M 51.535156 20.828125 C 51.238281 20.003906 50.894531 19.199219 50.507812 18.421875 L 45.703125 20.828125 L 51.535156 20.828125 " fill-opacity="1" fill-rule="nonzero"/><g clip-path="url(#7d0f0eeb57)"><path fill="#ffffff" d="M 38.28125 35.617188 L 51.535156 35.617188 C 51.878906 34.660156 52.15625 33.671875 52.363281 32.660156 L 35.324219 32.660156 L 35.324219 49.714844 C 36.335938 49.503906 37.324219 49.226562 38.28125 48.882812 L 38.28125 35.617188 " fill-opacity="1" fill-rule="nonzero"/></g><g clip-path="url(#d80d32612a)"><path fill="#ffffff" d="M 35.324219 23.785156 L 52.363281 23.785156 C 52.15625 22.773438 51.878906 21.785156 51.535156 20.828125 L 38.28125 20.828125 L 38.28125 7.5625 C 37.324219 7.21875 36.335938 6.941406 35.324219 6.730469 L 35.324219 23.785156 " fill-opacity="1" fill-rule="nonzero"/></g><path fill="#ffffff" d="M 26.449219 32.660156 L 9.375 32.660156 C 9.582031 33.671875 9.859375 34.660156 10.203125 35.617188 L 15.988281 35.617188 L 16.035156 35.59375 L 21.023438 35.59375 L 20.976562 35.617188 L 23.492188 35.617188 L 23.492188 48.894531 C 24.449219 49.238281 25.4375 49.515625 26.449219 49.722656 L 26.449219 32.660156 " fill-opacity="1" fill-rule="nonzero"/><g clip-path="url(#1b67c68a10)"><path fill="#ffffff" d="M 26.449219 23.785156 L 26.449219 6.722656 C 25.4375 6.929688 24.449219 7.210938 23.492188 7.550781 L 23.492188 20.828125 L 10.203125 20.828125 C 9.859375 21.785156 9.582031 22.773438 9.375 23.785156 L 26.449219 23.785156 " fill-opacity="1" fill-rule="nonzero"/></g><g clip-path="url(#1742e130fe)"><path fill="#d21d2c" d="M 35.324219 32.660156 L 52.363281 32.660156 C 52.660156 31.226562 52.8125 29.742188 52.8125 28.222656 C 52.8125 26.703125 52.660156 25.21875 52.363281 23.785156 L 35.324219 23.785156 L 35.324219 6.730469 C 33.886719 6.433594 32.394531 6.277344 30.867188 6.277344 C 29.355469 6.277344 27.878906 6.433594 26.449219 6.722656 L 26.449219 23.785156 L 9.375 23.785156 C 9.078125 25.21875 8.925781 26.703125 8.925781 28.222656 C 8.925781 29.742188 9.078125 31.226562 9.375 32.660156 L 26.449219 32.660156 L 26.449219 49.722656 C 27.878906 50.015625 29.355469 50.167969 30.867188 50.167969 C 32.394531 50.167969 33.886719 50.011719 35.324219 49.714844 L 35.324219 32.660156 " fill-opacity="1" fill-rule="nonzero"/></g><path fill="#d21d2c" d="M 15.988281 20.773438 L 11.242188 18.402344 C 10.917969 19.046875 10.625 19.710938 10.363281 20.390625 L 11.136719 20.773438 L 15.988281 20.773438 " fill-opacity="1" fill-rule="nonzero"/><path fill="#d21d2c" d="M 40.714844 20.828125 L 45.703125 20.828125 L 50.507812 18.421875 C 50.171875 17.757812 49.808594 17.109375 49.410156 16.480469 L 40.714844 20.828125 " fill-opacity="1" fill-rule="nonzero"/><path fill="#d21d2c" d="M 50.601562 35.648438 L 45.746094 35.648438 L 50.507812 38.023438 C 50.828125 37.378906 51.121094 36.714844 51.378906 36.035156 L 50.601562 35.648438 " fill-opacity="1" fill-rule="nonzero"/><path fill="#d21d2c" d="M 20.976562 35.617188 L 21.023438 35.59375 L 16.035156 35.59375 L 15.988281 35.617188 L 11.222656 38.003906 C 11.554688 38.671875 11.921875 39.320312 12.316406 39.945312 L 20.976562 35.617188 " fill-opacity="1" fill-rule="nonzero"/></svg>