<svg xmlns="http://www.w3.org/2000/svg" xmlns:xlink="http://www.w3.org/1999/xlink" width="100" zoomAndPan="magnify" viewBox="0 0 75 74.999997" height="100" preserveAspectRatio="xMidYMid meet" version="1.0"><defs><clipPath id="99f229b80e"><path d="M 0.824219 1.351562 L 74.253906 1.351562 L 74.253906 73.648438 L 0.824219 73.648438 Z M 0.824219 1.351562 " clip-rule="nonzero"/></clipPath><clipPath id="e0950f7f1b"><path d="M 16.574219 1.351562 L 58.425781 1.351562 C 62.601562 1.351562 66.609375 3.007812 69.5625 5.964844 C 72.515625 8.917969 74.175781 12.921875 74.175781 17.101562 L 74.175781 57.898438 C 74.175781 62.078125 72.515625 66.082031 69.5625 69.035156 C 66.609375 71.992188 62.601562 73.648438 58.425781 73.648438 L 16.574219 73.648438 C 7.875 73.648438 0.824219 66.597656 0.824219 57.898438 L 0.824219 17.101562 C 0.824219 8.402344 7.875 1.351562 16.574219 1.351562 Z M 16.574219 1.351562 " clip-rule="nonzero"/></clipPath><clipPath id="3fca9e20e4"><path d="M 21 7.175781 L 54 7.175781 L 54 24 L 21 24 Z M 21 7.175781 " clip-rule="nonzero"/></clipPath><clipPath id="be322fb2dd"><path d="M 21 26 L 54 26 L 54 67.925781 L 21 67.925781 Z M 21 26 " clip-rule="nonzero"/></clipPath><clipPath id="cd8c2a3122"><path d="M 11.675781 26 L 19 26 L 19 49 L 11.675781 49 Z M 11.675781 26 " clip-rule="nonzero"/></clipPath><clipPath id="c96074d8c9"><path d="M 56 26 L 63.425781 26 L 63.425781 49 L 56 49 Z M 56 26 " clip-rule="nonzero"/></clipPath></defs><g clip-path="url(#99f229b80e)"><g clip-path="url(#e0950f7f1b)"><path fill="#00c16a" d="M 0.824219 1.351562 L 74.253906 1.351562 L 74.253906 73.648438 L 0.824219 73.648438 Z M 0.824219 1.351562 " fill-opacity="1" fill-rule="nonzero"/></g></g><g clip-path="url(#3fca9e20e4)"><path fill="#0f172a" d="M 45.578125 12.246094 L 46.238281 11.25 L 46.902344 10.277344 L 48.371094 8.074219 C 48.5625 7.816406 48.492188 7.4375 48.207031 7.269531 C 47.945312 7.082031 47.566406 7.152344 47.402344 7.4375 L 45.835938 9.78125 L 45.175781 10.777344 L 44.511719 11.769531 C 42.378906 10.941406 40.035156 10.492188 37.523438 10.492188 C 35.035156 10.492188 32.667969 10.941406 30.535156 11.769531 L 29.871094 10.777344 L 27.644531 7.4375 C 27.453125 7.175781 27.097656 7.105469 26.839844 7.269531 C 26.578125 7.460938 26.507812 7.816406 26.671875 8.074219 L 28.140625 10.277344 L 28.804688 11.25 L 29.46875 12.246094 C 24.492188 14.566406 21.105469 18.949219 21.105469 23.996094 L 53.960938 23.996094 C 53.9375 18.949219 50.574219 14.566406 45.578125 12.246094 Z M 30.464844 19.28125 C 29.492188 19.28125 28.710938 18.5 28.710938 17.527344 C 28.710938 16.554688 29.492188 15.773438 30.464844 15.773438 C 31.433594 15.773438 32.214844 16.554688 32.214844 17.527344 C 32.214844 18.5 31.433594 19.28125 30.464844 19.28125 Z M 44.535156 19.28125 C 43.5625 19.28125 42.78125 18.5 42.78125 17.527344 C 42.78125 16.554688 43.5625 15.773438 44.535156 15.773438 C 45.503906 15.773438 46.289062 16.554688 46.289062 17.527344 C 46.3125 18.5 45.53125 19.28125 44.535156 19.28125 Z M 44.535156 19.28125 " fill-opacity="1" fill-rule="nonzero"/></g><g clip-path="url(#be322fb2dd)"><path fill="#0f172a" d="M 21.320312 26.316406 L 21.058594 26.339844 L 21.058594 52.160156 C 21.058594 54.222656 22.714844 55.878906 24.777344 55.878906 L 27.453125 55.878906 C 27.359375 56.1875 27.3125 56.519531 27.3125 56.851562 L 27.3125 64.289062 C 27.3125 66.234375 28.898438 67.820312 30.84375 67.820312 C 32.785156 67.820312 34.371094 66.234375 34.371094 64.289062 L 34.371094 56.851562 C 34.371094 56.519531 34.324219 56.1875 34.230469 55.878906 L 40.769531 55.878906 C 40.671875 56.1875 40.625 56.519531 40.625 56.851562 L 40.625 64.289062 C 40.625 66.234375 42.214844 67.820312 44.15625 67.820312 C 46.097656 67.820312 47.683594 66.234375 47.683594 64.289062 L 47.683594 56.851562 C 47.683594 56.519531 47.636719 56.1875 47.542969 55.878906 L 50.21875 55.878906 C 52.28125 55.878906 53.9375 54.222656 53.9375 52.160156 L 53.9375 26.316406 Z M 21.320312 26.316406 " fill-opacity="1" fill-rule="nonzero"/></g><g clip-path="url(#cd8c2a3122)"><path fill="#0f172a" d="M 15.207031 26.339844 C 13.265625 26.339844 11.675781 27.925781 11.675781 29.871094 L 11.675781 44.9375 C 11.675781 46.878906 13.265625 48.464844 15.207031 48.464844 C 17.148438 48.464844 18.738281 46.878906 18.738281 44.9375 L 18.738281 29.871094 C 18.714844 27.902344 17.148438 26.339844 15.207031 26.339844 Z M 15.207031 26.339844 " fill-opacity="1" fill-rule="nonzero"/></g><g clip-path="url(#c96074d8c9)"><path fill="#0f172a" d="M 59.8125 26.339844 C 57.871094 26.339844 56.285156 27.925781 56.285156 29.871094 L 56.285156 44.9375 C 56.285156 46.878906 57.871094 48.464844 59.8125 48.464844 C 61.757812 48.464844 63.34375 46.878906 63.34375 44.9375 L 63.34375 29.871094 C 63.320312 27.902344 61.757812 26.339844 59.8125 26.339844 Z M 59.8125 26.339844 " fill-opacity="1" fill-rule="nonzero"/></g></svg>