<svg xmlns="http://www.w3.org/2000/svg" xmlns:xlink="http://www.w3.org/1999/xlink" width="100" zoomAndPan="magnify" viewBox="0 0 75 74.999997" height="100" preserveAspectRatio="xMidYMid meet" version="1.0"><defs><clipPath id="abb487396d"><path d="M 0.824219 1.351562 L 74.253906 1.351562 L 74.253906 73.648438 L 0.824219 73.648438 Z M 0.824219 1.351562 " clip-rule="nonzero"/></clipPath><clipPath id="05a6123e4a"><path d="M 16.574219 1.351562 L 58.425781 1.351562 C 62.601562 1.351562 66.609375 3.007812 69.5625 5.964844 C 72.515625 8.917969 74.175781 12.921875 74.175781 17.101562 L 74.175781 57.898438 C 74.175781 62.078125 72.515625 66.082031 69.5625 69.035156 C 66.609375 71.992188 62.601562 73.648438 58.425781 73.648438 L 16.574219 73.648438 C 7.875 73.648438 0.824219 66.597656 0.824219 57.898438 L 0.824219 17.101562 C 0.824219 8.402344 7.875 1.351562 16.574219 1.351562 Z M 16.574219 1.351562 " clip-rule="nonzero"/></clipPath><clipPath id="f38431b800"><path d="M 9.324219 23.128906 L 65.574219 23.128906 L 65.574219 51.628906 L 9.324219 51.628906 Z M 9.324219 23.128906 " clip-rule="nonzero"/></clipPath></defs><g clip-path="url(#abb487396d)"><g clip-path="url(#05a6123e4a)"><path fill="#00c16a" d="M 0.824219 1.351562 L 74.253906 1.351562 L 74.253906 73.648438 L 0.824219 73.648438 Z M 0.824219 1.351562 " fill-opacity="1" fill-rule="nonzero"/></g></g><g clip-path="url(#f38431b800)"><path fill="#0f172a" d="M 57.613281 50.941406 L 53.351562 50.941406 L 45.511719 29.335938 L 49.347656 29.335938 L 54.089844 43.390625 C 54.265625 43.933594 54.730469 45.503906 55.464844 48.113281 L 56.160156 45.773438 L 56.9375 43.410156 L 61.851562 29.316406 L 65.667969 29.316406 Z M 45.070312 50.785156 C 43.878906 51.113281 42.664062 51.273438 41.429688 51.269531 C 38.542969 51.269531 37.109375 49.644531 37.109375 46.371094 L 37.109375 31.949219 L 34.613281 31.949219 L 34.613281 29.335938 L 37.246094 29.335938 L 37.246094 25.929688 L 40.710938 24.515625 L 40.710938 29.355469 L 44.71875 29.355469 L 44.71875 31.96875 L 40.734375 31.96875 L 40.734375 45.597656 C 40.734375 46.644531 40.910156 47.359375 41.238281 47.785156 C 41.566406 48.210938 42.167969 48.40625 42.996094 48.40625 C 43.484375 48.40625 44.160156 48.308594 45.070312 48.132812 Z M 27.953125 38.242188 C 27.992188 42.382812 31.59375 43.777344 31.632812 43.796875 C 31.59375 43.894531 31.050781 45.773438 29.734375 47.6875 C 28.59375 49.355469 27.410156 51.015625 25.535156 51.058594 C 23.695312 51.09375 23.117188 49.972656 21.003906 49.972656 C 18.914062 49.972656 18.257812 51.015625 16.511719 51.09375 C 14.730469 51.152344 13.355469 49.277344 12.195312 47.609375 C 9.855469 44.203125 8.054688 37.992188 10.472656 33.808594 C 11.671875 31.71875 13.820312 30.398438 16.144531 30.378906 C 17.90625 30.339844 19.589844 31.582031 20.675781 31.582031 C 21.757812 31.582031 23.792969 30.109375 25.921875 30.324219 C 26.8125 30.359375 29.328125 30.691406 30.9375 33.03125 C 30.800781 33.109375 27.933594 34.777344 27.953125 38.242188 M 24.507812 28.058594 C 25.457031 26.894531 26.117188 25.289062 25.941406 23.679688 C 24.566406 23.738281 22.902344 24.59375 21.894531 25.753906 C 21.003906 26.78125 20.226562 28.425781 20.441406 29.996094 C 21.972656 30.113281 23.558594 29.199219 24.507812 28.058594 Z M 24.507812 28.058594 " fill-opacity="1" fill-rule="nonzero"/></g></svg>