<svg xmlns="http://www.w3.org/2000/svg" xmlns:xlink="http://www.w3.org/1999/xlink" width="100" zoomAndPan="magnify" viewBox="0 0 75 74.999997" height="100" preserveAspectRatio="xMidYMid meet" version="1.0"><defs><clipPath id="c725a706b8"><path d="M 0.824219 1.351562 L 74.253906 1.351562 L 74.253906 73.648438 L 0.824219 73.648438 Z M 0.824219 1.351562 " clip-rule="nonzero"/></clipPath><clipPath id="adec4d81e7"><path d="M 16.574219 1.351562 L 58.425781 1.351562 C 62.601562 1.351562 66.609375 3.007812 69.5625 5.964844 C 72.515625 8.917969 74.175781 12.921875 74.175781 17.101562 L 74.175781 57.898438 C 74.175781 62.078125 72.515625 66.082031 69.5625 69.035156 C 66.609375 71.992188 62.601562 73.648438 58.425781 73.648438 L 16.574219 73.648438 C 7.875 73.648438 0.824219 66.597656 0.824219 57.898438 L 0.824219 17.101562 C 0.824219 8.402344 7.875 1.351562 16.574219 1.351562 Z M 16.574219 1.351562 " clip-rule="nonzero"/></clipPath><clipPath id="f27b1adcf7"><path d="M 15 11.675781 L 60 11.675781 L 60 63.425781 L 15 63.425781 Z M 15 11.675781 " clip-rule="nonzero"/></clipPath></defs><g clip-path="url(#c725a706b8)"><g clip-path="url(#adec4d81e7)"><path fill="#00c16a" d="M 0.824219 1.351562 L 74.253906 1.351562 L 74.253906 73.648438 L 0.824219 73.648438 Z M 0.824219 1.351562 " fill-opacity="1" fill-rule="nonzero"/></g></g><g clip-path="url(#f27b1adcf7)"><path fill="#0f172a" d="M 45.429688 19.921875 C 47.3125 17.742188 48.582031 14.699219 48.234375 11.675781 C 45.519531 11.78125 42.238281 13.410156 40.292969 15.589844 C 38.546875 17.523438 37.019531 20.613281 37.429688 23.578125 C 40.457031 23.800781 43.546875 22.105469 45.429688 19.921875 M 52.214844 39.113281 C 52.289062 46.929688 59.371094 49.527344 59.449219 49.5625 C 59.390625 49.746094 58.316406 53.269531 55.71875 56.910156 C 53.472656 60.054688 51.140625 63.1875 47.464844 63.253906 C 43.855469 63.316406 42.695312 61.203125 38.566406 61.203125 C 34.441406 61.203125 33.152344 63.1875 29.734375 63.316406 C 26.191406 63.445312 23.488281 59.914062 21.222656 56.78125 C 16.589844 50.367188 13.054688 38.660156 17.804688 30.761719 C 20.164062 26.835938 24.382812 24.351562 28.960938 24.289062 C 32.445312 24.222656 35.730469 26.53125 37.859375 26.53125 C 39.988281 26.53125 43.980469 23.757812 48.179688 24.164062 C 49.9375 24.234375 54.871094 24.84375 58.039062 29.289062 C 57.785156 29.441406 52.152344 32.578125 52.214844 39.113281 " fill-opacity="1" fill-rule="evenodd"/></g></svg>