<svg xmlns="http://www.w3.org/2000/svg" xmlns:xlink="http://www.w3.org/1999/xlink" width="100" zoomAndPan="magnify" viewBox="0 0 75 74.999997" height="100" preserveAspectRatio="xMidYMid meet" version="1.0"><defs><clipPath id="edf45fcd29"><path d="M 0.824219 1.351562 L 74.253906 1.351562 L 74.253906 73.648438 L 0.824219 73.648438 Z M 0.824219 1.351562 " clip-rule="nonzero"/></clipPath><clipPath id="cc869d97ac"><path d="M 16.574219 1.351562 L 58.425781 1.351562 C 62.601562 1.351562 66.609375 3.007812 69.5625 5.964844 C 72.515625 8.917969 74.175781 12.921875 74.175781 17.101562 L 74.175781 57.898438 C 74.175781 62.078125 72.515625 66.082031 69.5625 69.035156 C 66.609375 71.992188 62.601562 73.648438 58.425781 73.648438 L 16.574219 73.648438 C 7.875 73.648438 0.824219 66.597656 0.824219 57.898438 L 0.824219 17.101562 C 0.824219 8.402344 7.875 1.351562 16.574219 1.351562 Z M 16.574219 1.351562 " clip-rule="nonzero"/></clipPath><clipPath id="ab39d93b56"><path d="M 29 41 L 47 41 L 47 58.75 L 29 58.75 Z M 29 41 " clip-rule="nonzero"/></clipPath></defs><g clip-path="url(#edf45fcd29)"><g clip-path="url(#cc869d97ac)"><path fill="#00c16a" d="M 0.824219 1.351562 L 74.253906 1.351562 L 74.253906 73.648438 L 0.824219 73.648438 Z M 0.824219 1.351562 " fill-opacity="1" fill-rule="nonzero"/></g></g><path fill="#0f172a" d="M 37.480469 16.027344 C 36.910156 16.027344 36.425781 16.226562 36.023438 16.632812 L 30.433594 22.222656 C 29.714844 23.003906 29.335938 23.925781 29.289062 24.984375 L 29.289062 40.910156 C 29.289062 41.855469 29.828125 42.277344 30.367188 42.277344 C 30.769531 42.25 31.105469 42.085938 31.371094 41.785156 L 46.390625 26.933594 C 46.578125 26.746094 46.722656 26.527344 46.824219 26.28125 C 46.925781 26.035156 46.976562 25.78125 46.976562 25.511719 C 46.976562 25.246094 46.925781 24.988281 46.824219 24.742188 C 46.722656 24.496094 46.578125 24.277344 46.390625 24.089844 L 38.933594 16.632812 C 38.535156 16.226562 38.046875 16.027344 37.480469 16.027344 Z M 37.480469 16.027344 " fill-opacity="1" fill-rule="nonzero"/><path fill="#0f172a" d="M 52.210938 29.90625 C 52.023438 29.714844 51.804688 29.570312 51.558594 29.46875 C 51.308594 29.363281 51.054688 29.3125 50.785156 29.3125 C 50.519531 29.3125 50.261719 29.363281 50.015625 29.46875 C 49.769531 29.570312 49.550781 29.714844 49.363281 29.90625 L 42.558594 36.648438 C 42.371094 36.835938 42.222656 37.054688 42.121094 37.300781 C 42.019531 37.546875 41.96875 37.804688 41.96875 38.070312 C 41.96875 38.339844 42.019531 38.597656 42.121094 38.84375 C 42.222656 39.089844 42.371094 39.308594 42.558594 39.496094 L 48.703125 45.746094 C 48.894531 45.933594 49.109375 46.082031 49.355469 46.183594 C 49.605469 46.285156 49.859375 46.335938 50.128906 46.335938 C 50.394531 46.335938 50.652344 46.285156 50.898438 46.183594 C 51.144531 46.082031 51.359375 45.933594 51.550781 45.746094 L 58.351562 38.945312 C 58.542969 38.753906 58.691406 38.53125 58.796875 38.277344 C 58.902344 38.023438 58.953125 37.761719 58.953125 37.488281 C 58.953125 37.214844 58.902344 36.953125 58.796875 36.699219 C 58.691406 36.445312 58.542969 36.222656 58.351562 36.03125 Z M 52.210938 29.90625 " fill-opacity="1" fill-rule="nonzero"/><path fill="#0f172a" d="M 24.019531 29.15625 C 23.613281 29.183594 23.277344 29.351562 23.011719 29.65625 L 16.636719 36.03125 C 16.445312 36.222656 16.296875 36.445312 16.191406 36.699219 C 16.085938 36.953125 16.035156 37.214844 16.035156 37.488281 C 16.035156 37.761719 16.085938 38.023438 16.191406 38.277344 C 16.296875 38.53125 16.445312 38.753906 16.636719 38.945312 L 23.011719 45.320312 C 23.277344 45.625 23.613281 45.792969 24.019531 45.820312 C 24.40625 45.820312 24.695312 45.652344 24.886719 45.316406 C 25.035156 45.046875 25.101562 44.761719 25.09375 44.453125 L 25.09375 30.523438 C 25.09375 29.578125 24.554688 29.15625 24.019531 29.15625 Z M 24.019531 29.15625 " fill-opacity="1" fill-rule="nonzero"/><g clip-path="url(#ab39d93b56)"><path fill="#0f172a" d="M 39.558594 42.441406 C 39.371094 42.253906 39.15625 42.105469 38.910156 42 C 38.664062 41.898438 38.40625 41.84375 38.140625 41.84375 C 37.875 41.839844 37.617188 41.890625 37.371094 41.992188 C 37.121094 42.089844 36.902344 42.234375 36.714844 42.421875 L 29.785156 49.261719 C 29.597656 49.449219 29.453125 49.667969 29.351562 49.914062 C 29.25 50.160156 29.199219 50.417969 29.199219 50.683594 C 29.199219 50.953125 29.25 51.207031 29.351562 51.453125 C 29.453125 51.699219 29.597656 51.917969 29.785156 52.109375 L 36.023438 58.367188 C 36.214844 58.5625 36.4375 58.710938 36.691406 58.816406 C 36.945312 58.917969 37.207031 58.972656 37.480469 58.972656 C 37.753906 58.972656 38.015625 58.917969 38.269531 58.816406 C 38.523438 58.710938 38.746094 58.5625 38.9375 58.367188 L 45.738281 51.566406 C 45.929688 51.378906 46.074219 51.160156 46.175781 50.914062 C 46.28125 50.667969 46.332031 50.410156 46.332031 50.140625 C 46.332031 49.875 46.28125 49.617188 46.175781 49.371094 C 46.074219 49.121094 45.929688 48.90625 45.738281 48.714844 Z M 39.558594 42.441406 " fill-opacity="1" fill-rule="nonzero"/></g></svg>