<svg xmlns="http://www.w3.org/2000/svg" xmlns:xlink="http://www.w3.org/1999/xlink" width="100" zoomAndPan="magnify" viewBox="0 0 75 74.999997" height="100" preserveAspectRatio="xMidYMid meet" version="1.0"><defs><clipPath id="83cfb2d227"><path d="M 0.824219 1.351562 L 74.253906 1.351562 L 74.253906 73.648438 L 0.824219 73.648438 Z M 0.824219 1.351562 " clip-rule="nonzero"/></clipPath><clipPath id="33fd9c99ac"><path d="M 16.574219 1.351562 L 58.425781 1.351562 C 62.601562 1.351562 66.609375 3.007812 69.5625 5.964844 C 72.515625 8.917969 74.175781 12.921875 74.175781 17.101562 L 74.175781 57.898438 C 74.175781 62.078125 72.515625 66.082031 69.5625 69.035156 C 66.609375 71.992188 62.601562 73.648438 58.425781 73.648438 L 16.574219 73.648438 C 7.875 73.648438 0.824219 66.597656 0.824219 57.898438 L 0.824219 17.101562 C 0.824219 8.402344 7.875 1.351562 16.574219 1.351562 Z M 16.574219 1.351562 " clip-rule="nonzero"/></clipPath><clipPath id="f7edae53dd"><path d="M 19.125 19.125 L 36 19.125 L 36 36 L 19.125 36 Z M 19.125 19.125 " clip-rule="nonzero"/></clipPath><clipPath id="8f3bc2743f"><path d="M 39 19.125 L 55.875 19.125 L 55.875 36 L 39 36 Z M 39 19.125 " clip-rule="nonzero"/></clipPath><clipPath id="65be1c174d"><path d="M 19.125 39 L 36 39 L 36 55.875 L 19.125 55.875 Z M 19.125 39 " clip-rule="nonzero"/></clipPath><clipPath id="4d9896a226"><path d="M 39 39 L 55.875 39 L 55.875 55.875 L 39 55.875 Z M 39 39 " clip-rule="nonzero"/></clipPath></defs><g clip-path="url(#83cfb2d227)"><g clip-path="url(#33fd9c99ac)"><path fill="#00c16a" d="M 0.824219 1.351562 L 74.253906 1.351562 L 74.253906 73.648438 L 0.824219 73.648438 Z M 0.824219 1.351562 " fill-opacity="1" fill-rule="nonzero"/></g></g><g clip-path="url(#f7edae53dd)"><path fill="#0f172a" d="M 34.558594 19.125 L 19.859375 19.125 C 19.453125 19.125 19.125 19.453125 19.125 19.859375 L 19.125 34.558594 C 19.125 34.964844 19.453125 35.296875 19.859375 35.296875 L 34.558594 35.296875 C 34.964844 35.296875 35.296875 34.964844 35.296875 34.558594 L 35.296875 19.859375 C 35.296875 19.453125 34.964844 19.125 34.558594 19.125 Z M 34.558594 19.125 " fill-opacity="1" fill-rule="nonzero"/></g><g clip-path="url(#8f3bc2743f)"><path fill="#0f172a" d="M 55.140625 19.125 L 40.441406 19.125 C 40.035156 19.125 39.703125 19.453125 39.703125 19.859375 L 39.703125 34.558594 C 39.703125 34.964844 40.035156 35.296875 40.441406 35.296875 L 55.140625 35.296875 C 55.546875 35.296875 55.875 34.964844 55.875 34.558594 L 55.875 19.859375 C 55.875 19.453125 55.546875 19.125 55.140625 19.125 Z M 55.140625 19.125 " fill-opacity="1" fill-rule="nonzero"/></g><g clip-path="url(#65be1c174d)"><path fill="#0f172a" d="M 34.558594 39.703125 L 19.859375 39.703125 C 19.453125 39.703125 19.125 40.035156 19.125 40.441406 L 19.125 55.140625 C 19.125 55.546875 19.453125 55.875 19.859375 55.875 L 34.558594 55.875 C 34.964844 55.875 35.296875 55.546875 35.296875 55.140625 L 35.296875 40.441406 C 35.296875 40.035156 34.964844 39.703125 34.558594 39.703125 Z M 34.558594 39.703125 " fill-opacity="1" fill-rule="nonzero"/></g><g clip-path="url(#4d9896a226)"><path fill="#0f172a" d="M 55.140625 39.703125 L 40.441406 39.703125 C 40.035156 39.703125 39.703125 40.035156 39.703125 40.441406 L 39.703125 55.140625 C 39.703125 55.546875 40.035156 55.875 40.441406 55.875 L 55.140625 55.875 C 55.546875 55.875 55.875 55.546875 55.875 55.140625 L 55.875 40.441406 C 55.875 40.035156 55.546875 39.703125 55.140625 39.703125 Z M 55.140625 39.703125 " fill-opacity="1" fill-rule="nonzero"/></g></svg>