<svg xmlns="http://www.w3.org/2000/svg" xmlns:xlink="http://www.w3.org/1999/xlink" width="100" zoomAndPan="magnify" viewBox="0 0 75 74.999997" height="100" preserveAspectRatio="xMidYMid meet" version="1.0"><defs><clipPath id="bdb8664b44"><path d="M 0.824219 1.351562 L 74.253906 1.351562 L 74.253906 73.648438 L 0.824219 73.648438 Z M 0.824219 1.351562 " clip-rule="nonzero"/></clipPath><clipPath id="0e015286a4"><path d="M 16.574219 1.351562 L 58.425781 1.351562 C 62.601562 1.351562 66.609375 3.007812 69.5625 5.964844 C 72.515625 8.917969 74.175781 12.921875 74.175781 17.101562 L 74.175781 57.898438 C 74.175781 62.078125 72.515625 66.082031 69.5625 69.035156 C 66.609375 71.992188 62.601562 73.648438 58.425781 73.648438 L 16.574219 73.648438 C 7.875 73.648438 0.824219 66.597656 0.824219 57.898438 L 0.824219 17.101562 C 0.824219 8.402344 7.875 1.351562 16.574219 1.351562 Z M 16.574219 1.351562 " clip-rule="nonzero"/></clipPath><clipPath id="4d1d1d2064"><path d="M 11.398438 23 L 63.898438 23 L 63.898438 52 L 11.398438 52 Z M 11.398438 23 " clip-rule="nonzero"/></clipPath></defs><g clip-path="url(#bdb8664b44)"><g clip-path="url(#0e015286a4)"><path fill="#00c16a" d="M 0.824219 1.351562 L 74.253906 1.351562 L 74.253906 73.648438 L 0.824219 73.648438 Z M 0.824219 1.351562 " fill-opacity="1" fill-rule="nonzero"/></g></g><g clip-path="url(#4d1d1d2064)"><path fill="#0f172a" d="M 55.324219 44.28125 C 55.898438 45.015625 54.683594 48.046875 54.144531 49.398438 C 53.976562 49.8125 54.328125 49.980469 54.703125 49.667969 C 57.109375 47.652344 57.726562 43.433594 57.238281 42.820312 C 56.746094 42.21875 52.539062 41.695312 49.972656 43.503906 C 49.574219 43.777344 49.644531 44.164062 50.082031 44.109375 C 51.527344 43.933594 54.75 43.550781 55.324219 44.28125 M 53.457031 46.417969 C 48.96875 49.730469 42.460938 51.492188 36.859375 51.492188 C 29.003906 51.492188 21.933594 48.589844 16.585938 43.757812 C 16.164062 43.375 16.542969 42.859375 17.042969 43.148438 C 22.816406 46.511719 29.957031 48.535156 37.328125 48.535156 C 42.300781 48.535156 47.773438 47.5 52.800781 45.367188 C 53.558594 45.046875 54.199219 45.867188 53.453125 46.417969 M 57.878906 39.554688 C 57.722656 39.566406 57.578125 39.535156 57.441406 39.46875 C 57.351562 39.410156 57.25 39.25 57.152344 38.980469 L 53.378906 29.507812 C 53.351562 29.421875 53.316406 29.335938 53.28125 29.253906 C 53.246094 29.179688 53.230469 29.101562 53.230469 29.019531 C 53.230469 28.835938 53.335938 28.738281 53.546875 28.738281 L 54.808594 28.738281 C 55.023438 28.738281 55.167969 28.769531 55.253906 28.828125 C 55.34375 28.882812 55.433594 29.046875 55.53125 29.316406 L 58.453125 37.632812 L 61.375 29.316406 C 61.476562 29.046875 61.570312 28.882812 61.652344 28.828125 C 61.792969 28.757812 61.941406 28.730469 62.097656 28.738281 L 63.273438 28.738281 C 63.492188 28.738281 63.59375 28.835938 63.59375 29.019531 C 63.59375 29.101562 63.574219 29.179688 63.539062 29.253906 C 63.507812 29.339844 63.472656 29.421875 63.445312 29.507812 L 59.6875 38.980469 C 59.589844 39.25 59.492188 39.410156 59.402344 39.46875 C 59.265625 39.535156 59.117188 39.566406 58.964844 39.554688 Z M 49.953125 39.703125 C 47.933594 39.703125 46.925781 38.695312 46.925781 36.675781 L 46.925781 30.40625 L 45.390625 30.40625 C 45.105469 30.40625 44.960938 30.261719 44.960938 29.980469 L 44.960938 29.445312 C 44.953125 29.324219 44.988281 29.21875 45.058594 29.125 C 45.125 29.058594 45.246094 29.003906 45.429688 28.980469 L 46.992188 28.785156 L 47.265625 26.140625 C 47.296875 25.859375 47.445312 25.714844 47.71875 25.714844 L 48.609375 25.714844 C 48.890625 25.714844 49.035156 25.859375 49.035156 26.140625 L 49.035156 28.742188 L 51.808594 28.742188 C 52.09375 28.742188 52.234375 28.882812 52.234375 29.171875 L 52.234375 29.980469 C 52.234375 30.261719 52.09375 30.40625 51.808594 30.40625 L 49.035156 30.40625 L 49.035156 36.570312 C 49.035156 37.097656 49.15625 37.460938 49.386719 37.679688 C 49.621094 37.890625 50.023438 37.996094 50.59375 37.996094 C 50.863281 37.996094 51.195312 37.964844 51.59375 37.890625 C 51.808594 37.847656 51.953125 37.824219 52.023438 37.824219 C 52.136719 37.824219 52.214844 37.855469 52.257812 37.921875 C 52.300781 37.988281 52.320312 38.089844 52.320312 38.230469 L 52.320312 38.808594 C 52.328125 38.953125 52.300781 39.09375 52.234375 39.222656 C 52.175781 39.316406 52.066406 39.390625 51.894531 39.445312 C 51.257812 39.628906 50.613281 39.714844 49.953125 39.703125 M 39.808594 33.230469 C 39.820312 33.117188 39.832031 32.933594 39.832031 32.675781 C 39.832031 31.808594 39.625 31.15625 39.222656 30.714844 C 38.816406 30.273438 38.222656 30.050781 37.441406 30.050781 C 36.546875 30.050781 35.851562 30.320312 35.351562 30.855469 C 34.855469 31.386719 34.566406 32.179688 34.5 33.230469 Z M 37.757812 39.90625 C 36.011719 39.90625 34.691406 39.425781 33.792969 38.457031 C 32.894531 37.492188 32.453125 36.058594 32.453125 34.167969 C 32.453125 32.363281 32.894531 30.960938 33.792969 29.957031 C 34.691406 28.953125 35.941406 28.453125 37.550781 28.453125 C 38.898438 28.453125 39.9375 28.835938 40.664062 29.59375 C 41.386719 30.355469 41.75 31.433594 41.75 32.824219 C 41.75 33.28125 41.714844 33.742188 41.644531 34.214844 C 41.613281 34.382812 41.570312 34.496094 41.503906 34.554688 C 41.441406 34.613281 41.335938 34.640625 41.195312 34.640625 L 34.496094 34.640625 C 34.523438 35.863281 34.832031 36.765625 35.40625 37.347656 C 35.980469 37.929688 36.871094 38.222656 38.082031 38.222656 C 38.507812 38.222656 38.917969 38.195312 39.308594 38.136719 C 39.808594 38.050781 40.304688 37.929688 40.789062 37.777344 L 41.042969 37.699219 C 41.109375 37.675781 41.171875 37.667969 41.242188 37.664062 C 41.425781 37.664062 41.511719 37.796875 41.511719 38.050781 L 41.511719 38.648438 C 41.511719 38.835938 41.484375 38.964844 41.433594 39.042969 C 41.332031 39.152344 41.210938 39.234375 41.070312 39.289062 C 40.578125 39.492188 40.070312 39.640625 39.542969 39.734375 C 38.957031 39.851562 38.359375 39.90625 37.761719 39.90625 M 25.964844 39.585938 C 25.683594 39.585938 25.539062 39.445312 25.539062 39.160156 L 25.539062 29.199219 C 25.539062 28.914062 25.679688 28.773438 25.964844 28.773438 L 26.902344 28.773438 C 27.042969 28.773438 27.15625 28.800781 27.238281 28.859375 C 27.316406 28.914062 27.367188 29.023438 27.394531 29.175781 L 27.546875 30.371094 C 27.929688 29.960938 28.292969 29.632812 28.632812 29.390625 C 29.292969 28.914062 30.035156 28.679688 30.847656 28.6875 C 31.019531 28.6875 31.191406 28.695312 31.359375 28.710938 C 31.605469 28.738281 31.726562 28.867188 31.726562 29.09375 L 31.726562 30.246094 C 31.726562 30.5 31.597656 30.628906 31.339844 30.628906 C 31.210938 30.628906 31.089844 30.621094 30.96875 30.609375 C 30.839844 30.59375 30.707031 30.585938 30.578125 30.585938 C 29.4375 30.585938 28.460938 30.925781 27.648438 31.609375 L 27.648438 39.160156 C 27.648438 39.445312 27.507812 39.585938 27.226562 39.585938 Z M 21.074219 39.585938 C 20.789062 39.585938 20.648438 39.445312 20.648438 39.160156 L 20.648438 29.199219 C 20.648438 28.914062 20.789062 28.773438 21.074219 28.773438 L 22.332031 28.773438 C 22.617188 28.773438 22.757812 28.914062 22.757812 29.199219 L 22.757812 39.160156 C 22.757812 39.445312 22.617188 39.585938 22.332031 39.585938 Z M 21.714844 26.851562 C 21.300781 26.851562 20.976562 26.734375 20.742188 26.503906 C 20.492188 26.242188 20.375 25.933594 20.394531 25.574219 C 20.394531 25.191406 20.511719 24.882812 20.742188 24.648438 C 20.980469 24.410156 21.300781 24.292969 21.714844 24.292969 C 22.125 24.292969 22.449219 24.410156 22.683594 24.648438 C 22.917969 24.882812 23.03125 25.191406 23.03125 25.574219 C 23.050781 25.933594 22.933594 26.242188 22.683594 26.5 C 22.410156 26.753906 22.085938 26.871094 21.714844 26.851562 M 13.832031 39.585938 C 13.542969 39.585938 13.402344 39.445312 13.402344 39.160156 L 13.402344 30.4375 L 11.824219 30.4375 C 11.542969 30.4375 11.398438 30.292969 11.398438 30.011719 L 11.398438 29.476562 C 11.398438 29.335938 11.429688 29.230469 11.492188 29.15625 C 11.558594 29.085938 11.683594 29.039062 11.871094 29.003906 L 13.402344 28.816406 L 13.402344 27.066406 C 13.402344 24.695312 14.539062 23.503906 16.816406 23.503906 C 17.355469 23.503906 17.925781 23.582031 18.523438 23.742188 C 18.679688 23.785156 18.789062 23.84375 18.851562 23.933594 C 18.917969 24.015625 18.949219 24.167969 18.949219 24.378906 L 18.949219 24.933594 C 18.949219 25.203125 18.84375 25.339844 18.625 25.339844 C 18.5 25.339844 18.324219 25.316406 18.085938 25.273438 C 17.847656 25.230469 17.585938 25.210938 17.285156 25.210938 C 16.632812 25.210938 16.175781 25.332031 15.910156 25.585938 C 15.644531 25.835938 15.515625 26.242188 15.515625 26.8125 L 15.515625 28.773438 L 18.394531 28.773438 C 18.679688 28.773438 18.824219 28.914062 18.824219 29.199219 L 18.824219 30.011719 C 18.824219 30.292969 18.679688 30.4375 18.394531 30.4375 L 15.515625 30.4375 L 15.515625 39.160156 C 15.515625 39.445312 15.375 39.585938 15.089844 39.585938 Z M 13.832031 39.585938 " fill-opacity="1" fill-rule="nonzero"/></g></svg>