<svg xmlns="http://www.w3.org/2000/svg" xmlns:xlink="http://www.w3.org/1999/xlink" width="100" zoomAndPan="magnify" viewBox="0 0 75 74.999997" height="100" preserveAspectRatio="xMidYMid meet" version="1.0"><defs><clipPath id="b0e82e9597"><path d="M 0.824219 1.351562 L 74.253906 1.351562 L 74.253906 73.648438 L 0.824219 73.648438 Z M 0.824219 1.351562 " clip-rule="nonzero"/></clipPath><clipPath id="0fbf6ac4e6"><path d="M 16.574219 1.351562 L 58.425781 1.351562 C 62.601562 1.351562 66.609375 3.007812 69.5625 5.964844 C 72.515625 8.917969 74.175781 12.921875 74.175781 17.101562 L 74.175781 57.898438 C 74.175781 62.078125 72.515625 66.082031 69.5625 69.035156 C 66.609375 71.992188 62.601562 73.648438 58.425781 73.648438 L 16.574219 73.648438 C 7.875 73.648438 0.824219 66.597656 0.824219 57.898438 L 0.824219 17.101562 C 0.824219 8.402344 7.875 1.351562 16.574219 1.351562 Z M 16.574219 1.351562 " clip-rule="nonzero"/></clipPath><clipPath id="a8db5a7f4b"><path d="M 11.628906 26 L 63.378906 26 L 63.378906 49 L 11.628906 49 Z M 11.628906 26 " clip-rule="nonzero"/></clipPath></defs><g clip-path="url(#b0e82e9597)"><g clip-path="url(#0fbf6ac4e6)"><path fill="#00c16a" d="M 0.824219 1.351562 L 74.253906 1.351562 L 74.253906 73.648438 L 0.824219 73.648438 Z M 0.824219 1.351562 " fill-opacity="1" fill-rule="nonzero"/></g></g><g clip-path="url(#a8db5a7f4b)"><path fill="#0f172a" d="M 23.023438 26.101562 C 22.273438 26.101562 21.535156 26.175781 20.800781 26.320312 C 20.066406 26.464844 19.351562 26.683594 18.660156 26.96875 C 17.96875 27.253906 17.3125 27.605469 16.691406 28.019531 C 16.066406 28.4375 15.492188 28.910156 14.964844 29.4375 C 14.433594 29.96875 13.960938 30.542969 13.546875 31.164062 C 13.128906 31.785156 12.777344 32.445312 12.492188 33.136719 C 12.207031 33.828125 11.988281 34.539062 11.84375 35.273438 C 11.695312 36.007812 11.625 36.75 11.625 37.496094 C 11.625 38.246094 11.695312 38.988281 11.84375 39.71875 C 11.988281 40.453125 12.207031 41.167969 12.492188 41.859375 C 12.777344 42.550781 13.128906 43.207031 13.546875 43.828125 C 13.960938 44.453125 14.433594 45.027344 14.964844 45.554688 C 15.492188 46.085938 16.066406 46.558594 16.691406 46.972656 C 17.3125 47.390625 17.96875 47.738281 18.660156 48.027344 C 19.351562 48.3125 20.066406 48.527344 20.800781 48.675781 C 21.535156 48.820312 22.273438 48.894531 23.023438 48.890625 C 23.761719 48.878906 24.492188 48.792969 25.214844 48.636719 C 25.9375 48.480469 26.636719 48.253906 27.316406 47.960938 C 27.996094 47.667969 28.640625 47.3125 29.25 46.894531 C 29.859375 46.476562 30.421875 46.003906 30.9375 45.476562 C 31.457031 44.949219 31.917969 44.378906 32.324219 43.761719 C 32.730469 43.140625 33.074219 42.492188 33.351562 41.808594 C 33.632812 41.125 33.84375 40.417969 33.984375 39.695312 C 34.128906 38.96875 34.199219 38.234375 34.199219 37.496094 C 34.199219 36.757812 34.128906 36.027344 33.984375 35.300781 C 33.84375 34.574219 33.632812 33.871094 33.351562 33.1875 C 33.074219 32.503906 32.730469 31.851562 32.324219 31.234375 C 31.917969 30.617188 31.457031 30.042969 30.9375 29.515625 C 30.421875 28.988281 29.859375 28.515625 29.25 28.097656 C 28.640625 27.679688 27.996094 27.324219 27.316406 27.03125 C 26.636719 26.738281 25.9375 26.515625 25.214844 26.359375 C 24.492188 26.203125 23.761719 26.117188 23.023438 26.101562 Z M 23.023438 27.957031 C 23.132812 27.957031 23.359375 27.957031 23.476562 27.960938 L 23.476562 28.851562 C 23.324219 28.847656 23.175781 28.84375 23.023438 28.84375 C 21.875 28.839844 20.773438 29.058594 19.710938 29.5 C 18.652344 29.9375 17.71875 30.5625 16.910156 31.375 C 16.097656 32.1875 15.46875 33.121094 15.03125 34.179688 C 14.589844 35.238281 14.375 36.34375 14.375 37.492188 C 14.375 39.800781 15.277344 41.972656 16.910156 43.605469 C 17.71875 44.417969 18.652344 45.042969 19.710938 45.484375 C 20.773438 45.921875 21.875 46.140625 23.023438 46.136719 C 23.566406 46.136719 24.105469 46.085938 24.636719 45.984375 C 25.171875 45.878906 25.691406 45.730469 26.195312 45.53125 C 26.699219 45.328125 27.183594 45.085938 27.640625 44.792969 C 28.101562 44.503906 28.527344 44.171875 28.925781 43.800781 C 29.320312 43.433594 29.679688 43.027344 30 42.589844 C 30.320312 42.152344 30.597656 41.6875 30.832031 41.195312 C 31.066406 40.707031 31.25 40.199219 31.390625 39.671875 C 31.527344 39.148438 31.613281 38.613281 31.652344 38.074219 L 31.652344 37.941406 L 25.75 37.941406 L 25.75 37.058594 L 32.558594 37.058594 L 32.558594 37.492188 C 32.5625 38.753906 32.324219 39.972656 31.839844 41.140625 C 31.355469 42.308594 30.664062 43.339844 29.769531 44.234375 C 28.875 45.132812 27.84375 45.820312 26.675781 46.304688 C 25.503906 46.789062 24.285156 47.03125 23.019531 47.027344 C 20.476562 47.027344 18.085938 46.035156 16.273438 44.234375 C 15.378906 43.339844 14.6875 42.308594 14.203125 41.140625 C 13.722656 39.972656 13.480469 38.753906 13.484375 37.492188 C 13.488281 36.863281 13.546875 36.246094 13.671875 35.628906 C 13.792969 35.015625 13.976562 34.421875 14.214844 33.84375 C 14.453125 33.265625 14.75 32.714844 15.097656 32.195312 C 15.445312 31.671875 15.839844 31.191406 16.28125 30.75 C 16.726562 30.304688 17.207031 29.910156 17.726562 29.5625 C 18.246094 29.214844 18.796875 28.921875 19.375 28.679688 C 19.953125 28.441406 20.550781 28.257812 21.164062 28.136719 C 21.777344 28.015625 22.398438 27.953125 23.023438 27.953125 Z M 57.652344 29.847656 C 52.886719 29.847656 50.382812 32.449219 50.382812 37.410156 C 50.382812 42.347656 52.644531 45.019531 57.625 45.019531 C 59.910156 45.019531 62.148438 44.4375 63.367188 43.585938 L 63.367188 36.4375 L 57.460938 36.4375 L 57.460938 39.183594 L 60.230469 39.183594 L 60.230469 41.761719 C 59.71875 41.957031 58.71875 42.152344 57.773438 42.152344 C 54.710938 42.152344 53.6875 40.59375 53.6875 37.433594 C 53.6875 34.421875 54.660156 32.644531 57.722656 32.644531 C 59.425781 32.644531 60.398438 33.179688 61.203125 34.199219 L 63.320312 32.257812 C 62.03125 30.410156 59.769531 29.847656 57.648438 29.847656 Z M 39.515625 30.066406 L 39.515625 44.800781 L 49.96875 44.800781 L 49.96875 41.933594 L 42.921875 41.933594 L 42.921875 30.066406 Z M 19.382812 32.488281 C 19.566406 32.488281 19.742188 32.523438 19.910156 32.59375 C 20.078125 32.664062 20.226562 32.761719 20.351562 32.890625 C 20.480469 33.019531 20.582031 33.167969 20.648438 33.332031 C 20.71875 33.5 20.753906 33.675781 20.753906 33.859375 C 20.753906 34.039062 20.71875 34.214844 20.648438 34.382812 C 20.582031 34.550781 20.480469 34.699219 20.351562 34.828125 C 20.226562 34.953125 20.078125 35.054688 19.910156 35.125 C 19.742188 35.191406 19.566406 35.226562 19.382812 35.226562 C 19.203125 35.226562 19.027344 35.191406 18.859375 35.121094 C 18.691406 35.054688 18.546875 34.953125 18.417969 34.824219 C 18.289062 34.695312 18.191406 34.550781 18.121094 34.382812 C 18.050781 34.214844 18.015625 34.039062 18.015625 33.859375 C 18.015625 33.675781 18.050781 33.503906 18.121094 33.335938 C 18.191406 33.167969 18.289062 33.019531 18.417969 32.890625 C 18.546875 32.761719 18.691406 32.664062 18.859375 32.59375 C 19.027344 32.523438 19.203125 32.488281 19.382812 32.488281 Z M 22.570312 32.492188 L 23.476562 32.492188 L 23.476562 41.589844 L 25.742188 41.589844 L 25.742188 42.484375 L 22.570312 42.484375 Z M 22.570312 32.492188 " fill-opacity="1" fill-rule="nonzero"/></g></svg>