<svg xmlns="http://www.w3.org/2000/svg" xmlns:xlink="http://www.w3.org/1999/xlink" width="100" zoomAndPan="magnify" viewBox="0 0 75 74.999997" height="100" preserveAspectRatio="xMidYMid meet" version="1.0"><defs><g/><clipPath id="e6e1b2e77b"><path d="M 0.824219 1.351562 L 74.253906 1.351562 L 74.253906 73.648438 L 0.824219 73.648438 Z M 0.824219 1.351562 " clip-rule="nonzero"/></clipPath><clipPath id="3b096ddd42"><path d="M 16.574219 1.351562 L 58.425781 1.351562 C 62.601562 1.351562 66.609375 3.007812 69.5625 5.964844 C 72.515625 8.917969 74.175781 12.921875 74.175781 17.101562 L 74.175781 57.898438 C 74.175781 62.078125 72.515625 66.082031 69.5625 69.035156 C 66.609375 71.992188 62.601562 73.648438 58.425781 73.648438 L 16.574219 73.648438 C 7.875 73.648438 0.824219 66.597656 0.824219 57.898438 L 0.824219 17.101562 C 0.824219 8.402344 7.875 1.351562 16.574219 1.351562 Z M 16.574219 1.351562 " clip-rule="nonzero"/></clipPath></defs><g clip-path="url(#e6e1b2e77b)"><g clip-path="url(#3b096ddd42)"><path fill="#00c16a" d="M 0.824219 1.351562 L 74.253906 1.351562 L 74.253906 73.648438 L 0.824219 73.648438 Z M 0.824219 1.351562 " fill-opacity="1" fill-rule="nonzero"/></g></g><g fill="#0f172a" fill-opacity="1"><g transform="translate(7.063053, 43.317994)"><g><path d="M 10.015625 0 L 5.625 -14.3125 L 5.515625 -14.3125 C 5.671875 -11.40625 5.75 -9.460938 5.75 -8.484375 L 5.75 0 L 2.296875 0 L 2.296875 -18.25 L 7.5625 -18.25 L 11.875 -4.296875 L 11.953125 -4.296875 L 16.53125 -18.25 L 21.8125 -18.25 L 21.8125 0 L 18.203125 0 L 18.203125 -8.640625 C 18.203125 -9.046875 18.207031 -9.515625 18.21875 -10.046875 C 18.226562 -10.578125 18.285156 -11.992188 18.390625 -14.296875 L 18.265625 -14.296875 L 13.5625 0 Z M 10.015625 0 "/></g></g></g><g fill="#0f172a" fill-opacity="1"><g transform="translate(31.165939, 43.317994)"><g><path d="M 13.46875 0 L 12.140625 -4.34375 L 5.484375 -4.34375 L 4.171875 0 L 0 0 L 6.4375 -18.328125 L 11.171875 -18.328125 L 17.640625 0 Z M 11.21875 -7.59375 C 10 -11.53125 9.3125 -13.753906 9.15625 -14.265625 C 9 -14.785156 8.890625 -15.191406 8.828125 -15.484375 C 8.546875 -14.421875 7.757812 -11.789062 6.46875 -7.59375 Z M 11.21875 -7.59375 "/></g></g></g><g fill="#0f172a" fill-opacity="1"><g transform="translate(48.803111, 43.317994)"><g><path d="M 9.21875 -10.25 L 16.46875 -10.25 L 16.46875 -0.78125 C 15.289062 -0.40625 14.179688 -0.140625 13.140625 0.015625 C 12.109375 0.171875 11.050781 0.25 9.96875 0.25 C 7.21875 0.25 5.113281 -0.554688 3.65625 -2.171875 C 2.207031 -3.796875 1.484375 -6.125 1.484375 -9.15625 C 1.484375 -12.09375 2.328125 -14.382812 4.015625 -16.03125 C 5.703125 -17.6875 8.035156 -18.515625 11.015625 -18.515625 C 12.890625 -18.515625 14.695312 -18.140625 16.4375 -17.390625 L 15.15625 -14.296875 C 13.820312 -14.960938 12.4375 -15.296875 11 -15.296875 C 9.320312 -15.296875 7.976562 -14.734375 6.96875 -13.609375 C 5.96875 -12.484375 5.46875 -10.972656 5.46875 -9.078125 C 5.46875 -7.097656 5.875 -5.582031 6.6875 -4.53125 C 7.5 -3.488281 8.675781 -2.96875 10.21875 -2.96875 C 11.03125 -2.96875 11.851562 -3.050781 12.6875 -3.21875 L 12.6875 -7.03125 L 9.21875 -7.03125 Z M 9.21875 -10.25 "/></g></g></g><g fill="#0f172a" fill-opacity="1"><g transform="translate(8.725523, 54.796893)"><g><path d="M 3.96875 0 L 0.296875 0 L 0.296875 -0.765625 L 1.609375 -2.109375 C 2.003906 -2.503906 2.257812 -2.78125 2.375 -2.9375 C 2.5 -3.09375 2.585938 -3.234375 2.640625 -3.359375 C 2.691406 -3.492188 2.71875 -3.632812 2.71875 -3.78125 C 2.71875 -3.988281 2.660156 -4.144531 2.546875 -4.25 C 2.429688 -4.351562 2.273438 -4.40625 2.078125 -4.40625 C 1.867188 -4.40625 1.671875 -4.359375 1.484375 -4.265625 C 1.296875 -4.171875 1.097656 -4.035156 0.890625 -3.859375 L 0.28125 -4.578125 C 0.539062 -4.796875 0.753906 -4.953125 0.921875 -5.046875 C 1.085938 -5.140625 1.269531 -5.207031 1.46875 -5.25 C 1.675781 -5.300781 1.90625 -5.328125 2.15625 -5.328125 C 2.476562 -5.328125 2.765625 -5.265625 3.015625 -5.140625 C 3.273438 -5.023438 3.472656 -4.859375 3.609375 -4.640625 C 3.742188 -4.429688 3.8125 -4.1875 3.8125 -3.90625 C 3.8125 -3.664062 3.769531 -3.4375 3.6875 -3.21875 C 3.601562 -3.007812 3.472656 -2.789062 3.296875 -2.5625 C 3.117188 -2.34375 2.804688 -2.03125 2.359375 -1.625 L 1.671875 -0.984375 L 1.671875 -0.9375 L 3.96875 -0.9375 Z M 3.96875 0 "/></g></g></g><g fill="#0f172a" fill-opacity="1"><g transform="translate(12.923915, 54.796893)"><g><path d="M 2.203125 -3.359375 C 2.710938 -3.359375 3.117188 -3.210938 3.421875 -2.921875 C 3.722656 -2.640625 3.875 -2.25 3.875 -1.75 C 3.875 -1.164062 3.691406 -0.710938 3.328125 -0.390625 C 2.960938 -0.078125 2.445312 0.078125 1.78125 0.078125 C 1.1875 0.078125 0.710938 -0.0195312 0.359375 -0.21875 L 0.359375 -1.171875 C 0.546875 -1.066406 0.765625 -0.984375 1.015625 -0.921875 C 1.265625 -0.859375 1.503906 -0.828125 1.734375 -0.828125 C 2.410156 -0.828125 2.75 -1.101562 2.75 -1.65625 C 2.75 -2.1875 2.398438 -2.453125 1.703125 -2.453125 C 1.578125 -2.453125 1.4375 -2.4375 1.28125 -2.40625 C 1.125 -2.382812 1 -2.363281 0.90625 -2.34375 L 0.46875 -2.578125 L 0.65625 -5.25 L 3.515625 -5.25 L 3.515625 -4.3125 L 1.640625 -4.3125 L 1.53125 -3.28125 L 1.65625 -3.3125 C 1.8125 -3.34375 1.992188 -3.359375 2.203125 -3.359375 Z M 2.203125 -3.359375 "/></g></g></g><g fill="#0f172a" fill-opacity="1"><g transform="translate(17.122308, 54.796893)"><g><path d="M 3.9375 -2.625 C 3.9375 -1.707031 3.785156 -1.023438 3.484375 -0.578125 C 3.179688 -0.140625 2.71875 0.078125 2.09375 0.078125 C 1.488281 0.078125 1.03125 -0.148438 0.71875 -0.609375 C 0.414062 -1.066406 0.265625 -1.738281 0.265625 -2.625 C 0.265625 -3.550781 0.414062 -4.234375 0.71875 -4.671875 C 1.019531 -5.117188 1.476562 -5.34375 2.09375 -5.34375 C 2.695312 -5.34375 3.15625 -5.109375 3.46875 -4.640625 C 3.78125 -4.179688 3.9375 -3.507812 3.9375 -2.625 Z M 1.375 -2.625 C 1.375 -1.976562 1.425781 -1.515625 1.53125 -1.234375 C 1.644531 -0.960938 1.832031 -0.828125 2.09375 -0.828125 C 2.351562 -0.828125 2.539062 -0.96875 2.65625 -1.25 C 2.769531 -1.53125 2.828125 -1.988281 2.828125 -2.625 C 2.828125 -3.269531 2.769531 -3.734375 2.65625 -4.015625 C 2.539062 -4.296875 2.351562 -4.4375 2.09375 -4.4375 C 1.832031 -4.4375 1.644531 -4.296875 1.53125 -4.015625 C 1.425781 -3.734375 1.375 -3.269531 1.375 -2.625 Z M 1.375 -2.625 "/></g></g></g><g fill="#0f172a" fill-opacity="1"><g transform="translate(30.762245, 54.796893)"><g><path d="M 3.96875 0 L 0.296875 0 L 0.296875 -0.765625 L 1.609375 -2.109375 C 2.003906 -2.503906 2.257812 -2.78125 2.375 -2.9375 C 2.5 -3.09375 2.585938 -3.234375 2.640625 -3.359375 C 2.691406 -3.492188 2.71875 -3.632812 2.71875 -3.78125 C 2.71875 -3.988281 2.660156 -4.144531 2.546875 -4.25 C 2.429688 -4.351562 2.273438 -4.40625 2.078125 -4.40625 C 1.867188 -4.40625 1.671875 -4.359375 1.484375 -4.265625 C 1.296875 -4.171875 1.097656 -4.035156 0.890625 -3.859375 L 0.28125 -4.578125 C 0.539062 -4.796875 0.753906 -4.953125 0.921875 -5.046875 C 1.085938 -5.140625 1.269531 -5.207031 1.46875 -5.25 C 1.675781 -5.300781 1.90625 -5.328125 2.15625 -5.328125 C 2.476562 -5.328125 2.765625 -5.265625 3.015625 -5.140625 C 3.273438 -5.023438 3.472656 -4.859375 3.609375 -4.640625 C 3.742188 -4.429688 3.8125 -4.1875 3.8125 -3.90625 C 3.8125 -3.664062 3.769531 -3.4375 3.6875 -3.21875 C 3.601562 -3.007812 3.472656 -2.789062 3.296875 -2.5625 C 3.117188 -2.34375 2.804688 -2.03125 2.359375 -1.625 L 1.671875 -0.984375 L 1.671875 -0.9375 L 3.96875 -0.9375 Z M 3.96875 0 "/></g></g></g><g fill="#0f172a" fill-opacity="1"><g transform="translate(34.960638, 54.796893)"><g><path d="M 2.203125 -3.359375 C 2.710938 -3.359375 3.117188 -3.210938 3.421875 -2.921875 C 3.722656 -2.640625 3.875 -2.25 3.875 -1.75 C 3.875 -1.164062 3.691406 -0.710938 3.328125 -0.390625 C 2.960938 -0.078125 2.445312 0.078125 1.78125 0.078125 C 1.1875 0.078125 0.710938 -0.0195312 0.359375 -0.21875 L 0.359375 -1.171875 C 0.546875 -1.066406 0.765625 -0.984375 1.015625 -0.921875 C 1.265625 -0.859375 1.503906 -0.828125 1.734375 -0.828125 C 2.410156 -0.828125 2.75 -1.101562 2.75 -1.65625 C 2.75 -2.1875 2.398438 -2.453125 1.703125 -2.453125 C 1.578125 -2.453125 1.4375 -2.4375 1.28125 -2.40625 C 1.125 -2.382812 1 -2.363281 0.90625 -2.34375 L 0.46875 -2.578125 L 0.65625 -5.25 L 3.515625 -5.25 L 3.515625 -4.3125 L 1.640625 -4.3125 L 1.53125 -3.28125 L 1.65625 -3.3125 C 1.8125 -3.34375 1.992188 -3.359375 2.203125 -3.359375 Z M 2.203125 -3.359375 "/></g></g></g><g fill="#0f172a" fill-opacity="1"><g transform="translate(39.15903, 54.796893)"><g><path d="M 4.078125 -1.09375 L 3.453125 -1.09375 L 3.453125 0 L 2.375 0 L 2.375 -1.09375 L 0.125 -1.09375 L 0.125 -1.859375 L 2.421875 -5.25 L 3.453125 -5.25 L 3.453125 -1.953125 L 4.078125 -1.953125 Z M 2.375 -1.953125 L 2.375 -2.84375 C 2.375 -2.988281 2.378906 -3.203125 2.390625 -3.484375 C 2.398438 -3.765625 2.410156 -3.929688 2.421875 -3.984375 L 2.390625 -3.984375 C 2.296875 -3.785156 2.1875 -3.59375 2.0625 -3.40625 L 1.109375 -1.953125 Z M 2.375 -1.953125 "/></g></g></g><g fill="#0f172a" fill-opacity="1"><g transform="translate(53.059264, 54.796893)"><g><path d="M 3.96875 0 L 0.296875 0 L 0.296875 -0.765625 L 1.609375 -2.109375 C 2.003906 -2.503906 2.257812 -2.78125 2.375 -2.9375 C 2.5 -3.09375 2.585938 -3.234375 2.640625 -3.359375 C 2.691406 -3.492188 2.71875 -3.632812 2.71875 -3.78125 C 2.71875 -3.988281 2.660156 -4.144531 2.546875 -4.25 C 2.429688 -4.351562 2.273438 -4.40625 2.078125 -4.40625 C 1.867188 -4.40625 1.671875 -4.359375 1.484375 -4.265625 C 1.296875 -4.171875 1.097656 -4.035156 0.890625 -3.859375 L 0.28125 -4.578125 C 0.539062 -4.796875 0.753906 -4.953125 0.921875 -5.046875 C 1.085938 -5.140625 1.269531 -5.207031 1.46875 -5.25 C 1.675781 -5.300781 1.90625 -5.328125 2.15625 -5.328125 C 2.476562 -5.328125 2.765625 -5.265625 3.015625 -5.140625 C 3.273438 -5.023438 3.472656 -4.859375 3.609375 -4.640625 C 3.742188 -4.429688 3.8125 -4.1875 3.8125 -3.90625 C 3.8125 -3.664062 3.769531 -3.4375 3.6875 -3.21875 C 3.601562 -3.007812 3.472656 -2.789062 3.296875 -2.5625 C 3.117188 -2.34375 2.804688 -2.03125 2.359375 -1.625 L 1.671875 -0.984375 L 1.671875 -0.9375 L 3.96875 -0.9375 Z M 3.96875 0 "/></g></g></g><g fill="#0f172a" fill-opacity="1"><g transform="translate(57.257657, 54.796893)"><g><path d="M 2.203125 -3.359375 C 2.710938 -3.359375 3.117188 -3.210938 3.421875 -2.921875 C 3.722656 -2.640625 3.875 -2.25 3.875 -1.75 C 3.875 -1.164062 3.691406 -0.710938 3.328125 -0.390625 C 2.960938 -0.078125 2.445312 0.078125 1.78125 0.078125 C 1.1875 0.078125 0.710938 -0.0195312 0.359375 -0.21875 L 0.359375 -1.171875 C 0.546875 -1.066406 0.765625 -0.984375 1.015625 -0.921875 C 1.265625 -0.859375 1.503906 -0.828125 1.734375 -0.828125 C 2.410156 -0.828125 2.75 -1.101562 2.75 -1.65625 C 2.75 -2.1875 2.398438 -2.453125 1.703125 -2.453125 C 1.578125 -2.453125 1.4375 -2.4375 1.28125 -2.40625 C 1.125 -2.382812 1 -2.363281 0.90625 -2.34375 L 0.46875 -2.578125 L 0.65625 -5.25 L 3.515625 -5.25 L 3.515625 -4.3125 L 1.640625 -4.3125 L 1.53125 -3.28125 L 1.65625 -3.3125 C 1.8125 -3.34375 1.992188 -3.359375 2.203125 -3.359375 Z M 2.203125 -3.359375 "/></g></g></g><g fill="#0f172a" fill-opacity="1"><g transform="translate(61.456049, 54.796893)"><g><path d="M 0.265625 -2.234375 C 0.265625 -3.273438 0.484375 -4.046875 0.921875 -4.546875 C 1.359375 -5.054688 2.015625 -5.3125 2.890625 -5.3125 C 3.191406 -5.3125 3.425781 -5.296875 3.59375 -5.265625 L 3.59375 -4.375 C 3.382812 -4.414062 3.175781 -4.4375 2.96875 -4.4375 C 2.582031 -4.4375 2.269531 -4.378906 2.03125 -4.265625 C 1.789062 -4.148438 1.609375 -3.976562 1.484375 -3.75 C 1.367188 -3.53125 1.300781 -3.210938 1.28125 -2.796875 L 1.328125 -2.796875 C 1.566406 -3.203125 1.945312 -3.40625 2.46875 -3.40625 C 2.9375 -3.40625 3.300781 -3.257812 3.5625 -2.96875 C 3.832031 -2.675781 3.96875 -2.269531 3.96875 -1.75 C 3.96875 -1.1875 3.804688 -0.738281 3.484375 -0.40625 C 3.171875 -0.0820312 2.734375 0.078125 2.171875 0.078125 C 1.785156 0.078125 1.445312 -0.0078125 1.15625 -0.1875 C 0.875 -0.375 0.65625 -0.640625 0.5 -0.984375 C 0.34375 -1.328125 0.265625 -1.742188 0.265625 -2.234375 Z M 2.15625 -0.8125 C 2.394531 -0.8125 2.578125 -0.890625 2.703125 -1.046875 C 2.828125 -1.210938 2.890625 -1.441406 2.890625 -1.734375 C 2.890625 -1.992188 2.828125 -2.195312 2.703125 -2.34375 C 2.585938 -2.488281 2.410156 -2.5625 2.171875 -2.5625 C 1.953125 -2.5625 1.757812 -2.488281 1.59375 -2.34375 C 1.4375 -2.195312 1.359375 -2.023438 1.359375 -1.828125 C 1.359375 -1.546875 1.429688 -1.304688 1.578125 -1.109375 C 1.734375 -0.910156 1.925781 -0.8125 2.15625 -0.8125 Z M 2.15625 -0.8125 "/></g></g></g></svg>