<svg xmlns="http://www.w3.org/2000/svg" xmlns:xlink="http://www.w3.org/1999/xlink" width="100" zoomAndPan="magnify" viewBox="0 0 75 74.999997" height="100" preserveAspectRatio="xMidYMid meet" version="1.0"><defs><clipPath id="d7266a09bb"><path d="M 0.824219 1.351562 L 74.253906 1.351562 L 74.253906 73.648438 L 0.824219 73.648438 Z M 0.824219 1.351562 " clip-rule="nonzero"/></clipPath><clipPath id="b254518f34"><path d="M 16.574219 1.351562 L 58.425781 1.351562 C 62.601562 1.351562 66.609375 3.007812 69.5625 5.964844 C 72.515625 8.917969 74.175781 12.921875 74.175781 17.101562 L 74.175781 57.898438 C 74.175781 62.078125 72.515625 66.082031 69.5625 69.035156 C 66.609375 71.992188 62.601562 73.648438 58.425781 73.648438 L 16.574219 73.648438 C 7.875 73.648438 0.824219 66.597656 0.824219 57.898438 L 0.824219 17.101562 C 0.824219 8.402344 7.875 1.351562 16.574219 1.351562 Z M 16.574219 1.351562 " clip-rule="nonzero"/></clipPath><clipPath id="0e07bdeb10"><path d="M 13.273438 46 L 62.023438 46 L 62.023438 57 L 13.273438 57 Z M 13.273438 46 " clip-rule="nonzero"/></clipPath></defs><g clip-path="url(#d7266a09bb)"><g clip-path="url(#b254518f34)"><path fill="#00c16a" d="M 0.824219 1.351562 L 74.253906 1.351562 L 74.253906 73.648438 L 0.824219 73.648438 Z M 0.824219 1.351562 " fill-opacity="1" fill-rule="nonzero"/></g></g><g clip-path="url(#0e07bdeb10)"><path fill="#0f172a" d="M 64.253906 54.878906 C 64.253906 55.429688 63.847656 55.800781 63.371094 55.800781 L 63.371094 55.796875 C 62.878906 55.800781 62.480469 55.429688 62.480469 54.878906 C 62.480469 54.328125 62.878906 53.960938 63.371094 53.960938 C 63.847656 53.960938 64.253906 54.328125 64.253906 54.878906 Z M 64.613281 54.878906 C 64.613281 54.125 64.023438 53.683594 63.371094 53.683594 C 62.710938 53.683594 62.125 54.125 62.125 54.878906 C 62.125 55.636719 62.710938 56.074219 63.371094 56.074219 C 64.023438 56.074219 64.613281 55.636719 64.613281 54.878906 M 63.164062 54.980469 L 63.296875 54.980469 L 63.605469 55.523438 L 63.941406 55.523438 L 63.601562 54.957031 C 63.777344 54.945312 63.921875 54.863281 63.921875 54.625 C 63.921875 54.328125 63.71875 54.234375 63.375 54.234375 L 62.878906 54.234375 L 62.878906 55.523438 L 63.164062 55.523438 L 63.164062 54.980469 M 63.164062 54.761719 L 63.164062 54.453125 L 63.363281 54.453125 C 63.472656 54.453125 63.621094 54.460938 63.621094 54.59375 C 63.621094 54.738281 63.542969 54.761719 63.414062 54.761719 L 63.164062 54.761719 M 56.25 48.292969 L 57.796875 52.53125 L 54.652344 52.53125 Z M 54.59375 46.644531 L 51.023438 55.683594 L 53.542969 55.683594 L 54.109375 54.085938 L 58.328125 54.085938 L 58.863281 55.683594 L 61.597656 55.683594 L 58.003906 46.644531 Z M 47.429688 55.6875 L 49.984375 55.6875 L 49.984375 46.644531 L 47.429688 46.640625 Z M 29.6875 46.640625 L 27.554688 53.8125 L 25.511719 46.644531 L 22.753906 46.640625 L 25.671875 55.6875 L 29.351562 55.6875 L 32.292969 46.640625 Z M 40.015625 48.613281 L 41.117188 48.613281 C 42.710938 48.613281 43.742188 49.328125 43.742188 51.183594 C 43.742188 53.042969 42.710938 53.757812 41.117188 53.757812 L 40.015625 53.757812 Z M 37.484375 46.640625 L 37.484375 55.6875 L 41.625 55.6875 C 43.832031 55.6875 44.554688 55.320312 45.335938 54.496094 C 45.886719 53.921875 46.242188 52.652344 46.242188 51.265625 C 46.242188 49.992188 45.941406 48.859375 45.414062 48.152344 C 44.46875 46.890625 43.105469 46.640625 41.070312 46.640625 Z M 13.273438 46.628906 L 13.273438 55.6875 L 15.847656 55.6875 L 15.847656 48.808594 L 17.847656 48.808594 C 18.507812 48.808594 18.980469 48.976562 19.296875 49.316406 C 19.703125 49.746094 19.867188 50.441406 19.867188 51.710938 L 19.867188 55.6875 L 22.363281 55.6875 L 22.363281 50.683594 C 22.363281 47.109375 20.085938 46.628906 17.859375 46.628906 Z M 33.371094 46.640625 L 33.371094 55.6875 L 35.925781 55.6875 L 35.925781 46.640625 Z M 33.371094 46.640625 " fill-opacity="1" fill-rule="nonzero"/></g><path fill="#0f172a" d="M 20.140625 28.632812 C 20.140625 28.632812 23.429688 23.78125 29.992188 23.277344 L 29.992188 21.519531 C 22.722656 22.101562 16.425781 28.261719 16.425781 28.261719 C 16.425781 28.261719 19.992188 38.566406 29.992188 39.511719 L 29.992188 37.640625 C 22.652344 36.71875 20.140625 28.632812 20.140625 28.632812 Z M 29.992188 33.921875 L 29.992188 35.636719 C 24.445312 34.644531 22.90625 28.882812 22.90625 28.882812 C 22.90625 28.882812 25.570312 25.929688 29.992188 25.453125 L 29.992188 27.332031 C 29.988281 27.332031 29.984375 27.332031 29.984375 27.332031 C 27.660156 27.050781 25.847656 29.222656 25.847656 29.222656 C 25.847656 29.222656 26.863281 32.871094 29.992188 33.921875 M 29.992188 18.273438 L 29.992188 21.519531 C 30.203125 21.503906 30.417969 21.488281 30.632812 21.480469 C 38.898438 21.203125 44.285156 28.261719 44.285156 28.261719 C 44.285156 28.261719 38.097656 35.78125 31.65625 35.78125 C 31.0625 35.78125 30.511719 35.726562 29.992188 35.636719 L 29.992188 37.640625 C 30.453125 37.699219 30.914062 37.730469 31.375 37.730469 C 37.375 37.730469 41.710938 34.667969 45.910156 31.042969 C 46.605469 31.601562 49.457031 32.957031 50.042969 33.550781 C 46.046875 36.894531 36.742188 39.589844 31.46875 39.589844 C 30.960938 39.589844 30.472656 39.558594 29.992188 39.511719 L 29.992188 42.332031 L 52.785156 42.332031 L 52.785156 18.273438 Z M 29.992188 25.453125 L 29.992188 23.277344 C 30.203125 23.265625 30.414062 23.253906 30.632812 23.246094 C 36.578125 23.058594 40.476562 28.355469 40.476562 28.355469 C 40.476562 28.355469 36.265625 34.203125 31.75 34.203125 C 31.097656 34.203125 30.515625 34.097656 29.992188 33.921875 L 29.992188 27.332031 C 32.304688 27.613281 32.769531 28.632812 34.160156 30.953125 L 37.257812 28.34375 C 37.257812 28.34375 34.996094 25.382812 31.191406 25.382812 C 30.777344 25.382812 30.378906 25.410156 29.992188 25.453125 " fill-opacity="1" fill-rule="nonzero"/></svg>