<svg xmlns="http://www.w3.org/2000/svg" xmlns:xlink="http://www.w3.org/1999/xlink" width="100" zoomAndPan="magnify" viewBox="0 0 75 74.999997" height="100" preserveAspectRatio="xMidYMid meet" version="1.0"><defs><clipPath id="c69e9c2f95"><path d="M 0.824219 1.351562 L 74.253906 1.351562 L 74.253906 73.648438 L 0.824219 73.648438 Z M 0.824219 1.351562 " clip-rule="nonzero"/></clipPath><clipPath id="7a6ebd27ad"><path d="M 16.574219 1.351562 L 58.425781 1.351562 C 62.601562 1.351562 66.609375 3.007812 69.5625 5.964844 C 72.515625 8.917969 74.175781 12.921875 74.175781 17.101562 L 74.175781 57.898438 C 74.175781 62.078125 72.515625 66.082031 69.5625 69.035156 C 66.609375 71.992188 62.601562 73.648438 58.425781 73.648438 L 16.574219 73.648438 C 7.875 73.648438 0.824219 66.597656 0.824219 57.898438 L 0.824219 17.101562 C 0.824219 8.402344 7.875 1.351562 16.574219 1.351562 Z M 16.574219 1.351562 " clip-rule="nonzero"/></clipPath></defs><g clip-path="url(#c69e9c2f95)"><g clip-path="url(#7a6ebd27ad)"><path fill="#00c16a" d="M 0.824219 1.351562 L 74.253906 1.351562 L 74.253906 73.648438 L 0.824219 73.648438 Z M 0.824219 1.351562 " fill-opacity="1" fill-rule="nonzero"/></g></g><path fill="#0f172a" d="M 20.96875 48.511719 C 17.851562 47.621094 17.335938 45.777344 18.75 44.707031 C 19.769531 44.039062 20.941406 43.457031 22.179688 43.015625 L 22.292969 42.980469 L 31.503906 39.679688 L 31.503906 43.472656 L 24.902344 45.886719 C 23.746094 46.332031 23.546875 46.921875 24.507812 47.242188 C 24.988281 47.363281 25.535156 47.433594 26.101562 47.433594 C 26.910156 47.433594 27.683594 47.292969 28.398438 47.03125 L 28.351562 47.042969 L 31.53125 45.886719 L 31.53125 49.289062 C 31.332031 49.335938 31.109375 49.359375 30.890625 49.40625 C 29.875 49.585938 28.703125 49.6875 27.507812 49.6875 C 25.175781 49.6875 22.933594 49.296875 20.84375 48.578125 L 20.988281 48.621094 Z M 40.375 48.902344 L 50.703125 45.171875 C 51.875 44.746094 52.058594 44.144531 51.105469 43.828125 C 50.628906 43.710938 50.085938 43.644531 49.519531 43.644531 C 48.703125 43.644531 47.917969 43.785156 47.191406 44.046875 L 47.242188 44.03125 L 40.34375 46.492188 L 40.34375 42.574219 L 40.738281 42.4375 C 42.117188 41.976562 43.734375 41.621094 45.40625 41.4375 L 45.515625 41.425781 C 46.128906 41.359375 46.839844 41.324219 47.5625 41.324219 C 50.023438 41.324219 52.386719 41.757812 54.574219 42.558594 L 54.433594 42.511719 C 57.464844 43.496094 57.777344 44.925781 57.015625 45.910156 C 56.28125 46.640625 55.394531 47.21875 54.40625 47.589844 L 54.355469 47.609375 L 40.34375 52.707031 L 40.34375 48.941406 Z M 32.742188 22.261719 L 32.742188 51.042969 L 39.160156 53.109375 L 39.160156 28.972656 C 39.160156 27.84375 39.660156 27.085938 40.464844 27.347656 C 41.507812 27.644531 41.710938 28.683594 41.710938 29.816406 L 41.710938 39.453125 C 45.714844 41.410156 48.863281 39.449219 48.863281 34.285156 C 48.863281 28.976562 47.019531 26.617188 41.585938 24.726562 C 39.242188 23.875 36.28125 23.027344 33.253906 22.359375 L 32.746094 22.261719 Z M 32.742188 22.261719 " fill-opacity="1" fill-rule="nonzero"/></svg>