<svg xmlns="http://www.w3.org/2000/svg" xmlns:xlink="http://www.w3.org/1999/xlink" width="100" zoomAndPan="magnify" viewBox="0 0 75 74.999997" height="100" preserveAspectRatio="xMidYMid meet" version="1.0"><defs><clipPath id="7e19dd016c"><path d="M 0.824219 1.351562 L 74.253906 1.351562 L 74.253906 73.648438 L 0.824219 73.648438 Z M 0.824219 1.351562 " clip-rule="nonzero"/></clipPath><clipPath id="0c32c170ab"><path d="M 16.574219 1.351562 L 58.425781 1.351562 C 62.601562 1.351562 66.609375 3.007812 69.5625 5.964844 C 72.515625 8.917969 74.175781 12.921875 74.175781 17.101562 L 74.175781 57.898438 C 74.175781 62.078125 72.515625 66.082031 69.5625 69.035156 C 66.609375 71.992188 62.601562 73.648438 58.425781 73.648438 L 16.574219 73.648438 C 7.875 73.648438 0.824219 66.597656 0.824219 57.898438 L 0.824219 17.101562 C 0.824219 8.402344 7.875 1.351562 16.574219 1.351562 Z M 16.574219 1.351562 " clip-rule="nonzero"/></clipPath><clipPath id="51413e952b"><path d="M 12 29.359375 L 27 29.359375 L 27 45.859375 L 12 45.859375 Z M 12 29.359375 " clip-rule="nonzero"/></clipPath><clipPath id="3b7105a6ac"><path d="M 24 32 L 63.378906 32 L 63.378906 45.859375 L 24 45.859375 Z M 24 32 " clip-rule="nonzero"/></clipPath></defs><g clip-path="url(#7e19dd016c)"><g clip-path="url(#0c32c170ab)"><path fill="#00c16a" d="M 0.824219 1.351562 L 74.253906 1.351562 L 74.253906 73.648438 L 0.824219 73.648438 Z M 0.824219 1.351562 " fill-opacity="1" fill-rule="nonzero"/></g></g><g clip-path="url(#51413e952b)"><path fill="#0f172a" d="M 20.125 34.675781 C 20.125 34.328125 20.0625 33.992188 19.929688 33.667969 C 19.796875 33.347656 19.609375 33.058594 19.363281 32.8125 C 19.117188 32.566406 18.835938 32.375 18.511719 32.238281 C 18.191406 32.105469 17.855469 32.035156 17.507812 32.035156 L 16.210938 32.035156 L 16.210938 37.292969 L 17.507812 37.292969 C 17.855469 37.292969 18.1875 37.226562 18.507812 37.09375 C 18.828125 36.960938 19.109375 36.769531 19.355469 36.523438 C 19.601562 36.277344 19.789062 35.996094 19.921875 35.675781 C 20.054688 35.355469 20.121094 35.023438 20.125 34.675781 Z M 26.023438 45.160156 L 21.261719 45.160156 L 17.480469 39.914062 L 16.210938 39.914062 L 16.210938 45.148438 L 12.011719 45.148438 L 12.011719 29.417969 L 18.023438 29.417969 C 21.492188 29.417969 24.320312 31.773438 24.320312 34.675781 C 24.320312 36.445312 23.234375 38.023438 21.585938 38.992188 Z M 26.023438 45.160156 " fill-opacity="1" fill-rule="nonzero"/></g><g clip-path="url(#3b7105a6ac)"><path fill="#0f172a" d="M 30.757812 35.617188 C 29.648438 35.617188 28.703125 37.125 28.703125 38.992188 C 28.703125 40.859375 29.648438 42.363281 30.757812 42.363281 C 31.890625 42.363281 32.832031 40.855469 32.832031 38.992188 C 32.832031 37.128906 31.890625 35.617188 30.757812 35.617188 Z M 37.21875 38.992188 C 37.21875 39.414062 37.175781 39.832031 37.09375 40.246094 C 37.007812 40.660156 36.886719 41.0625 36.722656 41.453125 C 36.558594 41.84375 36.359375 42.214844 36.125 42.566406 C 35.886719 42.917969 35.621094 43.242188 35.320312 43.539062 C 35.019531 43.835938 34.691406 44.101562 34.339844 44.335938 C 33.988281 44.570312 33.617188 44.765625 33.222656 44.925781 C 32.832031 45.085938 32.429688 45.207031 32.015625 45.289062 C 31.597656 45.367188 31.179688 45.40625 30.757812 45.40625 C 30.335938 45.40625 29.917969 45.367188 29.503906 45.285156 C 29.089844 45.203125 28.6875 45.085938 28.296875 44.925781 C 27.90625 44.761719 27.535156 44.566406 27.183594 44.332031 C 26.832031 44.097656 26.503906 43.832031 26.207031 43.535156 C 25.90625 43.238281 25.640625 42.914062 25.40625 42.5625 C 25.171875 42.210938 24.972656 41.839844 24.808594 41.453125 C 24.648438 41.0625 24.527344 40.660156 24.445312 40.246094 C 24.359375 39.832031 24.320312 39.414062 24.320312 38.992188 C 24.320312 38.570312 24.359375 38.152344 24.441406 37.738281 C 24.527344 37.324219 24.648438 36.921875 24.808594 36.53125 C 24.972656 36.140625 25.167969 35.769531 25.402344 35.417969 C 25.640625 35.066406 25.90625 34.742188 26.207031 34.445312 C 26.503906 34.148438 26.828125 33.882812 27.179688 33.648438 C 27.53125 33.414062 27.902344 33.214844 28.292969 33.054688 C 28.683594 32.894531 29.085938 32.773438 29.503906 32.695312 C 29.917969 32.613281 30.335938 32.574219 30.757812 32.574219 C 31.179688 32.574219 31.597656 32.613281 32.015625 32.691406 C 32.429688 32.773438 32.832031 32.894531 33.222656 33.054688 C 33.617188 33.214844 33.988281 33.410156 34.339844 33.644531 C 34.695312 33.878906 35.019531 34.144531 35.320312 34.441406 C 35.621094 34.738281 35.886719 35.0625 36.125 35.414062 C 36.359375 35.765625 36.558594 36.136719 36.722656 36.527344 C 36.886719 36.917969 37.007812 37.320312 37.09375 37.734375 C 37.175781 38.148438 37.21875 38.566406 37.21875 38.992188 Z M 47.066406 32.835938 L 42.230469 37.671875 L 42.230469 32.820312 L 38.03125 32.820312 L 38.03125 45.148438 L 42.230469 45.148438 L 42.230469 40.144531 L 47.277344 45.148438 L 52.558594 45.148438 L 46.144531 38.730469 L 51.457031 33.421875 L 51.457031 40.734375 C 51.457031 43.164062 52.917969 45.40625 56.597656 45.40625 C 58.34375 45.40625 59.945312 44.417969 60.722656 43.519531 L 62.609375 45.148438 L 63.507812 45.148438 L 63.507812 32.835938 L 59.308594 32.835938 L 59.308594 40.808594 C 58.839844 41.632812 58.179688 42.152344 57.164062 42.152344 C 56.128906 42.152344 55.65625 41.539062 55.65625 39.582031 L 55.65625 32.835938 Z M 47.066406 32.835938 " fill-opacity="1" fill-rule="nonzero"/></g></svg>