<svg xmlns="http://www.w3.org/2000/svg" xmlns:xlink="http://www.w3.org/1999/xlink" width="100" zoomAndPan="magnify" viewBox="0 0 75 74.999997" height="100" preserveAspectRatio="xMidYMid meet" version="1.0"><defs><clipPath id="e2ff20f042"><path d="M 0.824219 1.351562 L 74.253906 1.351562 L 74.253906 73.648438 L 0.824219 73.648438 Z M 0.824219 1.351562 " clip-rule="nonzero"/></clipPath><clipPath id="374951fbbf"><path d="M 16.574219 1.351562 L 58.425781 1.351562 C 62.601562 1.351562 66.609375 3.007812 69.5625 5.964844 C 72.515625 8.917969 74.175781 12.921875 74.175781 17.101562 L 74.175781 57.898438 C 74.175781 62.078125 72.515625 66.082031 69.5625 69.035156 C 66.609375 71.992188 62.601562 73.648438 58.425781 73.648438 L 16.574219 73.648438 C 7.875 73.648438 0.824219 66.597656 0.824219 57.898438 L 0.824219 17.101562 C 0.824219 8.402344 7.875 1.351562 16.574219 1.351562 Z M 16.574219 1.351562 " clip-rule="nonzero"/></clipPath><clipPath id="e255a721ac"><path d="M 3.75 22 L 12 22 L 12 36 L 3.75 36 Z M 3.75 22 " clip-rule="nonzero"/></clipPath><clipPath id="a878944c3b"><path d="M 16 38.628906 L 23 38.628906 L 23 42 L 16 42 Z M 16 38.628906 " clip-rule="nonzero"/></clipPath><clipPath id="3340a7e9aa"><path d="M 22 38.628906 L 28 38.628906 L 28 42 L 22 42 Z M 22 38.628906 " clip-rule="nonzero"/></clipPath><clipPath id="bc03f0ef65"><path d="M 17 49 L 23 49 L 23 52.863281 L 17 52.863281 Z M 17 49 " clip-rule="nonzero"/></clipPath><clipPath id="5388886879"><path d="M 22 49 L 28 49 L 28 52.863281 L 22 52.863281 Z M 22 49 " clip-rule="nonzero"/></clipPath><clipPath id="1bfaea8c3f"><path d="M 8.699219 41 L 16 41 L 16 51 L 8.699219 51 Z M 8.699219 41 " clip-rule="nonzero"/></clipPath><clipPath id="fa875d541e"><path d="M 53 41 L 66.300781 41 L 66.300781 51 L 53 51 Z M 53 41 " clip-rule="nonzero"/></clipPath></defs><g clip-path="url(#e2ff20f042)"><g clip-path="url(#374951fbbf)"><path fill="#00c16a" d="M 0.824219 1.351562 L 74.253906 1.351562 L 74.253906 73.648438 L 0.824219 73.648438 Z M 0.824219 1.351562 " fill-opacity="1" fill-rule="nonzero"/></g></g><g clip-path="url(#e255a721ac)"><path fill="#11182a" d="M 5.804688 28.800781 C 4.28125 28.265625 3.859375 27.035156 3.859375 25.851562 L 3.859375 25.546875 C 3.859375 23.523438 4.984375 22.414062 7.257812 22.414062 L 8.378906 22.414062 C 10.171875 22.414062 11.28125 23.195312 11.28125 25.058594 C 11.28125 25.484375 11.066406 25.886719 10.460938 25.886719 C 9.890625 25.886719 9.636719 25.484375 9.636719 25.058594 C 9.636719 24.328125 9.117188 24 8.394531 24 L 7.269531 24 C 6.035156 24 5.515625 24.472656 5.515625 25.546875 L 5.515625 25.851562 C 5.515625 26.582031 5.949219 27.035156 6.484375 27.242188 L 9.675781 28.398438 C 11.027344 28.886719 11.730469 29.886719 11.730469 31.433594 L 11.730469 32.070312 C 11.730469 34.09375 10.605469 35.382812 8.332031 35.382812 L 6.652344 35.382812 C 4.863281 35.382812 3.761719 34.617188 3.761719 32.738281 C 3.761719 32.3125 3.96875 31.910156 4.585938 31.910156 C 5.152344 31.910156 5.394531 32.3125 5.394531 32.738281 C 5.394531 33.496094 5.914062 33.800781 6.652344 33.800781 L 8.332031 33.800781 C 9.566406 33.800781 10.097656 33.152344 10.097656 32.070312 L 10.097656 31.433594 C 10.097656 30.640625 9.746094 30.203125 9.203125 30.007812 Z M 5.804688 28.800781 " fill-opacity="1" fill-rule="nonzero"/></g><path fill="#11182a" d="M 17.570312 25.828125 C 19.335938 25.828125 20.421875 26.960938 20.421875 28.605469 L 20.421875 34.371094 C 20.421875 34.800781 20.167969 35.203125 19.601562 35.203125 L 16.3125 35.203125 C 14.667969 35.203125 13.617188 34.433594 13.617188 32.761719 L 13.617188 31.375 C 13.617188 29.714844 14.679688 28.960938 16.3125 28.960938 L 18.816406 28.960938 L 18.816406 28.617188 C 18.816406 27.714844 18.292969 27.339844 17.570312 27.339844 L 15.261719 27.339844 C 14.8125 27.339844 14.460938 27.121094 14.460938 26.582031 C 14.460938 26.046875 14.824219 25.828125 15.261719 25.828125 Z M 18.816406 33.691406 L 18.816406 30.484375 L 16.3125 30.484375 C 15.585938 30.484375 15.222656 30.851562 15.222656 31.421875 L 15.222656 32.777344 C 15.222656 33.3125 15.585938 33.691406 16.3125 33.691406 Z M 18.816406 33.691406 " fill-opacity="1" fill-rule="nonzero"/><path fill="#11182a" d="M 31.605469 29.117188 C 31.605469 28.035156 31.109375 27.386719 29.914062 27.386719 L 28.886719 27.386719 L 28.886719 34.554688 C 28.886719 34.996094 28.667969 35.382812 28.074219 35.382812 C 27.484375 35.382812 27.265625 34.996094 27.265625 34.554688 L 27.265625 27.386719 L 24.546875 27.386719 L 24.546875 34.554688 C 24.546875 34.996094 24.339844 35.382812 23.746094 35.382812 C 23.15625 35.382812 22.9375 34.996094 22.9375 34.554688 L 22.9375 26.667969 C 22.9375 26.21875 23.179688 25.839844 23.746094 25.839844 L 29.902344 25.839844 C 32.125 25.839844 33.203125 27.09375 33.203125 29.117188 L 33.203125 34.554688 C 33.203125 34.996094 32.996094 35.382812 32.402344 35.382812 C 31.8125 35.382812 31.59375 34.996094 31.59375 34.554688 L 31.59375 29.117188 Z M 31.605469 29.117188 " fill-opacity="1" fill-rule="nonzero"/><path fill="#11182a" d="M 38.109375 35.382812 C 36.464844 35.382812 35.488281 34.714844 35.488281 33.203125 C 35.488281 32.738281 35.667969 32.359375 36.285156 32.359375 C 36.902344 32.359375 37.035156 32.738281 37.070312 33.203125 C 37.09375 33.617188 37.457031 33.921875 38.109375 33.921875 L 39.5625 33.921875 C 40.421875 33.921875 40.6875 33.484375 40.6875 32.945312 L 40.6875 32.3125 C 40.6875 31.886719 40.457031 31.640625 40.035156 31.519531 L 37.226562 30.726562 C 36.152344 30.421875 35.609375 29.679688 35.609375 28.507812 L 35.609375 28.082031 C 35.609375 26.425781 36.539062 25.644531 38.328125 25.644531 L 39.332031 25.644531 C 40.976562 25.644531 41.96875 26.316406 41.96875 27.828125 C 41.96875 28.300781 41.785156 28.667969 41.183594 28.667969 C 40.578125 28.667969 40.421875 28.289062 40.382812 27.828125 C 40.359375 27.410156 40.007812 27.105469 39.367188 27.105469 L 38.351562 27.105469 C 37.480469 27.105469 37.214844 27.535156 37.214844 28.082031 L 37.214844 28.507812 C 37.214844 28.910156 37.433594 29.179688 37.867188 29.300781 L 40.660156 30.082031 C 41.75 30.386719 42.304688 31.105469 42.304688 32.3125 L 42.304688 32.945312 C 42.304688 34.605469 41.363281 35.382812 39.609375 35.382812 Z M 38.109375 35.382812 " fill-opacity="1" fill-rule="nonzero"/><path fill="#11182a" d="M 46.019531 31.921875 C 46.019531 33.007812 46.527344 33.652344 47.722656 33.652344 L 49.863281 33.652344 L 49.863281 26.484375 C 49.863281 26.058594 50.054688 25.65625 50.660156 25.65625 C 51.230469 25.65625 51.457031 26.058594 51.457031 26.484375 L 51.457031 34.386719 C 51.457031 34.824219 51.230469 35.214844 50.660156 35.214844 L 47.710938 35.214844 C 45.472656 35.214844 44.398438 33.957031 44.398438 31.933594 L 44.398438 26.496094 C 44.398438 26.070312 44.617188 25.667969 45.195312 25.667969 C 45.8125 25.667969 46.007812 26.070312 46.007812 26.496094 L 46.007812 31.933594 Z M 46.019531 31.921875 " fill-opacity="1" fill-rule="nonzero"/><path fill="#11182a" d="M 59.558594 29.117188 C 59.558594 28.035156 59.0625 27.386719 57.855469 27.386719 L 55.714844 27.386719 L 55.714844 34.554688 C 55.714844 34.996094 55.519531 35.382812 54.90625 35.382812 C 54.335938 35.382812 54.105469 34.996094 54.105469 34.554688 L 54.105469 26.667969 C 54.105469 26.21875 54.335938 25.839844 54.90625 25.839844 L 57.855469 25.839844 C 60.089844 25.839844 61.15625 27.09375 61.15625 29.117188 L 61.15625 34.554688 C 61.15625 34.996094 60.949219 35.382812 60.355469 35.382812 C 59.765625 35.382812 59.558594 34.996094 59.558594 34.554688 Z M 59.558594 29.117188 " fill-opacity="1" fill-rule="nonzero"/><path fill="#11182a" d="M 70.550781 36.1875 C 70.550781 38.1875 69.425781 39.699219 67.1875 39.699219 L 65.195312 39.699219 C 64.78125 39.699219 64.40625 39.492188 64.40625 38.917969 C 64.40625 38.382812 64.78125 38.152344 65.195312 38.152344 L 67.1875 38.152344 C 68.398438 38.152344 68.941406 37.335938 68.941406 36.1875 L 68.941406 35.203125 L 66.777344 35.203125 C 64.539062 35.203125 63.488281 33.945312 63.488281 31.921875 L 63.488281 29.363281 C 63.488281 27.351562 64.601562 25.828125 66.835938 25.828125 L 69.726562 25.828125 C 70.320312 25.828125 70.550781 26.230469 70.550781 26.65625 Z M 66.835938 27.386719 C 65.640625 27.386719 65.097656 28.214844 65.097656 29.363281 L 65.097656 31.921875 C 65.097656 33.007812 65.582031 33.652344 66.777344 33.652344 L 68.941406 33.652344 L 68.941406 27.386719 Z M 66.835938 27.386719 " fill-opacity="1" fill-rule="nonzero"/><path fill="#244a9a" d="M 25.984375 43.675781 L 25.984375 48.597656 L 22.058594 45.84375 Z M 25.984375 43.675781 " fill-opacity="1" fill-rule="nonzero"/><path fill="#95a948" d="M 18.148438 43.675781 L 18.148438 48.597656 L 22.074219 45.84375 Z M 18.148438 43.675781 " fill-opacity="1" fill-rule="nonzero"/><g clip-path="url(#a878944c3b)"><path fill="#ffde14" d="M 22.074219 38.6875 L 16.996094 41.527344 L 22.074219 41.515625 Z M 22.074219 38.6875 " fill-opacity="1" fill-rule="nonzero"/></g><g clip-path="url(#3340a7e9aa)"><path fill="#f0c3c0" d="M 22.070312 38.6875 L 27.148438 41.527344 L 22.070312 41.515625 Z M 22.070312 38.6875 " fill-opacity="1" fill-rule="nonzero"/></g><path fill="#d3d80e" d="M 22.074219 45.84375 L 17.011719 49.367188 L 22.074219 49.367188 Z M 22.074219 45.84375 " fill-opacity="1" fill-rule="nonzero"/><path fill="#2dafe6" d="M 22.070312 45.84375 L 27.144531 49.367188 L 22.070312 49.367188 Z M 22.070312 45.84375 " fill-opacity="1" fill-rule="nonzero"/><g clip-path="url(#bc03f0ef65)"><path fill="#fbef82" d="M 17.011719 49.367188 L 22.070312 49.367188 L 22.070312 52.804688 Z M 17.011719 49.367188 " fill-opacity="1" fill-rule="nonzero"/></g><g clip-path="url(#5388886879)"><path fill="#afdff9" d="M 27.128906 49.367188 L 22.070312 49.367188 L 22.070312 52.804688 Z M 27.128906 49.367188 " fill-opacity="1" fill-rule="nonzero"/></g><path fill="#f18825" d="M 17.011719 41.515625 L 22.089844 41.515625 L 22.089844 44.3125 Z M 17.011719 41.515625 " fill-opacity="1" fill-rule="nonzero"/><path fill="#e94287" d="M 27.15625 41.515625 L 22.078125 41.515625 L 22.078125 44.3125 Z M 27.15625 41.515625 " fill-opacity="1" fill-rule="nonzero"/><path fill="#11182a" d="M 27.144531 49.378906 L 27.144531 41.515625 L 22.074219 44.3125 L 17.011719 41.515625 L 17.011719 49.375 L 18.148438 50.144531 L 18.148438 43.675781 L 22.074219 45.824219 L 25.984375 43.664062 L 25.984375 50.144531 Z M 27.144531 49.378906 " fill-opacity="1" fill-rule="nonzero"/><path fill="#11182a" d="M 42.082031 46.515625 C 42.523438 46.347656 42.886719 46.089844 43.167969 45.734375 C 43.511719 45.304688 43.691406 44.78125 43.691406 44.191406 C 43.691406 43.808594 43.625 43.453125 43.492188 43.136719 C 43.355469 42.8125 43.152344 42.535156 42.886719 42.300781 C 42.625 42.074219 42.296875 41.894531 41.921875 41.777344 C 41.550781 41.660156 41.125 41.597656 40.644531 41.597656 L 37.363281 41.597656 L 37.363281 50.214844 L 38.511719 50.214844 L 38.511719 42.691406 L 40.644531 42.691406 C 41.261719 42.691406 41.734375 42.824219 42.0625 43.078125 C 42.371094 43.328125 42.523438 43.691406 42.523438 44.1875 C 42.523438 44.683594 42.371094 45.046875 42.0625 45.292969 C 41.734375 45.550781 41.261719 45.683594 40.644531 45.683594 L 39.242188 45.683594 L 39.242188 46.769531 L 40.9375 46.769531 L 42.550781 50.207031 L 43.820312 50.207031 L 42.09375 46.511719 Z M 42.082031 46.515625 " fill-opacity="1" fill-rule="nonzero"/><path fill="#11182a" d="M 44.667969 41.597656 L 44.667969 42.703125 L 47.28125 42.703125 L 47.28125 50.210938 L 48.433594 50.210938 L 48.433594 42.703125 L 51.058594 42.703125 L 51.058594 41.597656 Z M 44.667969 41.597656 " fill-opacity="1" fill-rule="nonzero"/><path fill="#11182a" d="M 32.644531 41.597656 L 31.675781 41.597656 L 28.34375 50.214844 L 29.558594 50.214844 L 30.609375 47.515625 L 33.769531 47.527344 L 34.820312 50.210938 L 36.023438 50.210938 L 32.652344 41.59375 Z M 30.984375 46.496094 L 32.160156 43.4375 L 33.359375 46.5 L 30.984375 46.5 Z M 30.984375 46.496094 " fill-opacity="1" fill-rule="nonzero"/><g clip-path="url(#1bfaea8c3f)"><path fill="#11182a" d="M 15.292969 46.855469 C 15.171875 46.578125 15.007812 46.324219 14.792969 46.105469 C 14.578125 45.890625 14.328125 45.710938 14.039062 45.566406 C 13.746094 45.425781 13.421875 45.332031 13.082031 45.289062 L 11.523438 45.097656 C 11.351562 45.078125 11.1875 45.039062 11.03125 44.984375 C 10.886719 44.933594 10.757812 44.867188 10.652344 44.777344 C 10.546875 44.691406 10.46875 44.585938 10.402344 44.449219 C 10.339844 44.320312 10.3125 44.15625 10.3125 43.949219 C 10.3125 43.726562 10.347656 43.546875 10.4375 43.402344 C 10.535156 43.234375 10.644531 43.09375 10.777344 42.980469 C 10.945312 42.835938 11.148438 42.726562 11.386719 42.660156 C 11.632812 42.59375 11.894531 42.558594 12.164062 42.558594 C 12.507812 42.558594 12.828125 42.613281 13.113281 42.71875 C 13.386719 42.820312 13.597656 42.96875 13.75 43.15625 C 13.863281 43.289062 13.953125 43.421875 14.007812 43.558594 C 14.066406 43.703125 14.113281 43.867188 14.140625 44.050781 L 14.171875 44.277344 L 15.324219 44.277344 L 15.300781 43.988281 C 15.273438 43.664062 15.199219 43.375 15.074219 43.125 C 14.957031 42.875 14.796875 42.644531 14.605469 42.429688 C 14.347656 42.132812 13.992188 41.894531 13.542969 41.710938 C 13.105469 41.535156 12.640625 41.449219 12.164062 41.449219 C 11.746094 41.449219 11.34375 41.515625 10.964844 41.644531 C 10.574219 41.78125 10.230469 41.972656 9.949219 42.226562 C 9.71875 42.429688 9.527344 42.675781 9.378906 42.941406 C 9.222656 43.222656 9.140625 43.558594 9.140625 43.945312 C 9.140625 44.296875 9.199219 44.605469 9.3125 44.871094 C 9.425781 45.144531 9.589844 45.378906 9.796875 45.566406 C 10 45.761719 10.242188 45.917969 10.523438 46.03125 C 10.785156 46.132812 11.082031 46.210938 11.398438 46.257812 L 12.933594 46.449219 C 13.148438 46.476562 13.347656 46.53125 13.511719 46.609375 C 13.683594 46.691406 13.824219 46.789062 13.945312 46.910156 C 14.058594 47.023438 14.148438 47.15625 14.207031 47.304688 C 14.265625 47.449219 14.296875 47.601562 14.296875 47.753906 C 14.296875 47.972656 14.261719 48.164062 14.191406 48.3125 C 14.113281 48.472656 14.015625 48.609375 13.898438 48.722656 C 13.703125 48.902344 13.460938 49.035156 13.167969 49.121094 C 12.863281 49.207031 12.542969 49.25 12.210938 49.25 C 11.882812 49.25 11.589844 49.199219 11.304688 49.097656 C 11.027344 49.003906 10.789062 48.855469 10.597656 48.671875 C 10.464844 48.53125 10.347656 48.367188 10.25 48.179688 C 10.160156 47.992188 10.097656 47.796875 10.070312 47.582031 L 10.035156 47.347656 L 8.867188 47.347656 L 8.890625 47.640625 C 8.925781 47.980469 9.019531 48.308594 9.164062 48.609375 C 9.304688 48.90625 9.488281 49.171875 9.710938 49.40625 C 10.011719 49.726562 10.382812 49.96875 10.816406 50.125 C 11.238281 50.277344 11.707031 50.359375 12.210938 50.359375 C 12.714844 50.359375 13.1875 50.289062 13.617188 50.148438 C 14.054688 50.007812 14.429688 49.789062 14.742188 49.488281 C 14.953125 49.28125 15.128906 49.035156 15.265625 48.765625 C 15.402344 48.484375 15.472656 48.144531 15.472656 47.75 C 15.472656 47.4375 15.414062 47.132812 15.296875 46.851562 " fill-opacity="1" fill-rule="nonzero"/></g><g clip-path="url(#fa875d541e)"><path fill="#11182a" d="M 62.320312 50.242188 L 63.082031 50.242188 L 66.445312 41.5625 L 65.566406 41.5625 L 62.707031 49.007812 L 59.789062 41.5625 L 53.390625 41.5625 L 53.390625 42.351562 L 56.136719 42.351562 L 56.136719 50.242188 L 56.972656 50.242188 L 56.972656 42.351562 L 59.234375 42.351562 Z M 62.320312 50.242188 " fill-opacity="1" fill-rule="nonzero"/></g><path fill="#11182a" d="M 25.984375 43.664062 L 25.984375 50.144531 L 27.144531 49.378906 L 27.144531 41.515625 L 22.074219 44.3125 L 22.074219 45.824219 Z M 25.984375 43.664062 " fill-opacity="1" fill-rule="nonzero"/></svg>