<svg xmlns="http://www.w3.org/2000/svg" xmlns:xlink="http://www.w3.org/1999/xlink" width="100" zoomAndPan="magnify" viewBox="0 0 75 74.999997" height="100" preserveAspectRatio="xMidYMid meet" version="1.0"><defs><clipPath id="cd8c953c40"><path d="M 0.824219 1.351562 L 74.253906 1.351562 L 74.253906 73.648438 L 0.824219 73.648438 Z M 0.824219 1.351562 " clip-rule="nonzero"/></clipPath><clipPath id="ee1afa2065"><path d="M 16.574219 1.351562 L 58.425781 1.351562 C 62.601562 1.351562 66.609375 3.007812 69.5625 5.964844 C 72.515625 8.917969 74.175781 12.921875 74.175781 17.101562 L 74.175781 57.898438 C 74.175781 62.078125 72.515625 66.082031 69.5625 69.035156 C 66.609375 71.992188 62.601562 73.648438 58.425781 73.648438 L 16.574219 73.648438 C 7.875 73.648438 0.824219 66.597656 0.824219 57.898438 L 0.824219 17.101562 C 0.824219 8.402344 7.875 1.351562 16.574219 1.351562 Z M 16.574219 1.351562 " clip-rule="nonzero"/></clipPath><clipPath id="68aa4ea2d7"><path d="M 4.726562 32 L 69.976562 32 L 69.976562 43 L 4.726562 43 Z M 4.726562 32 " clip-rule="nonzero"/></clipPath></defs><g clip-path="url(#cd8c953c40)"><g clip-path="url(#ee1afa2065)"><path fill="#00c16a" d="M 0.824219 1.351562 L 74.253906 1.351562 L 74.253906 73.648438 L 0.824219 73.648438 Z M 0.824219 1.351562 " fill-opacity="1" fill-rule="nonzero"/></g></g><g clip-path="url(#68aa4ea2d7)"><path fill="#0f172a" d="M 58.84375 32.800781 L 58.972656 40.152344 L 58.910156 40.152344 L 56.773438 32.800781 L 53.277344 32.800781 L 53.277344 42.0625 L 55.589844 42.0625 L 55.460938 34.453125 L 55.523438 34.453125 L 57.808594 42.0625 L 61.15625 42.0625 L 61.15625 32.800781 Z M 14.742188 32.800781 L 12.992188 42.160156 L 15.519531 42.160156 L 16.8125 33.644531 L 16.863281 33.644531 L 18.125 42.160156 L 20.632812 42.160156 L 18.902344 32.800781 Z M 28.886719 32.800781 L 27.734375 39.9375 L 27.671875 39.9375 L 26.507812 32.800781 L 22.6875 32.800781 L 22.503906 42.160156 L 24.851562 42.160156 L 24.917969 33.742188 L 24.9375 33.742188 L 26.503906 42.160156 L 28.882812 42.160156 L 30.453125 33.742188 L 30.515625 33.742188 L 30.578125 42.160156 L 32.925781 42.160156 L 32.703125 32.800781 Z M 9.042969 39.5 C 9.140625 39.714844 9.109375 40.035156 9.078125 40.183594 C 9.015625 40.503906 8.789062 40.8125 8.171875 40.8125 C 7.570312 40.8125 7.230469 40.46875 7.230469 39.972656 L 7.230469 39.0625 L 4.726562 39.0625 L 4.726562 39.777344 C 4.726562 41.878906 6.378906 42.5 8.140625 42.5 C 9.824219 42.5 11.230469 41.914062 11.457031 40.375 C 11.585938 39.566406 11.492188 39.03125 11.457031 38.839844 C 11.019531 36.867188 7.445312 36.3125 7.203125 35.210938 C 7.167969 35.019531 7.167969 34.839844 7.203125 34.710938 C 7.265625 34.402344 7.476562 34.082031 8.042969 34.082031 C 8.609375 34.082031 8.917969 34.425781 8.917969 34.925781 L 8.917969 35.488281 L 11.265625 35.488281 L 11.265625 34.839844 C 11.265625 32.800781 9.417969 32.492188 8.105469 32.492188 C 6.441406 32.492188 5.066406 33.046875 4.820312 34.550781 C 4.757812 34.953125 4.726562 35.335938 4.855469 35.808594 C 5.226562 37.738281 8.578125 38.304688 9.046875 39.5 Z M 39.5 39.5 C 39.597656 39.714844 39.566406 40.003906 39.535156 40.183594 C 39.472656 40.503906 39.246094 40.8125 38.628906 40.8125 C 38.027344 40.8125 37.6875 40.46875 37.6875 39.972656 L 37.6875 39.0625 L 35.183594 39.0625 L 35.183594 39.777344 C 35.183594 41.847656 36.804688 42.476562 38.5625 42.476562 C 40.25 42.476562 41.625 41.914062 41.847656 40.34375 C 41.976562 39.53125 41.882812 39.03125 41.847656 38.808594 C 41.476562 36.867188 37.933594 36.28125 37.6875 35.210938 C 37.65625 35.019531 37.65625 34.839844 37.6875 34.710938 C 37.742188 34.402344 37.964844 34.082031 38.53125 34.082031 C 39.0625 34.082031 39.40625 34.425781 39.40625 34.925781 L 39.40625 35.488281 L 41.71875 35.488281 L 41.71875 34.839844 C 41.71875 32.800781 39.90625 32.492188 38.59375 32.492188 C 36.929688 32.492188 35.585938 33.011719 35.339844 34.550781 C 35.277344 34.953125 35.277344 35.335938 35.359375 35.808594 C 35.746094 37.738281 39.03125 38.273438 39.5 39.5 Z M 47.386719 40.75 C 48.046875 40.75 48.226562 40.3125 48.292969 40.070312 C 48.324219 39.972656 48.324219 39.8125 48.324219 39.714844 L 48.324219 32.804688 L 50.703125 32.804688 L 50.703125 39.535156 C 50.703125 39.714844 50.703125 40.066406 50.671875 40.152344 C 50.519531 41.914062 49.132812 42.476562 47.414062 42.476562 C 45.699219 42.476562 44.324219 41.914062 44.160156 40.152344 C 44.160156 40.066406 44.128906 39.714844 44.128906 39.535156 L 44.128906 32.804688 L 46.507812 32.804688 L 46.507812 39.714844 C 46.507812 39.847656 46.507812 39.972656 46.539062 40.070312 C 46.539062 40.316406 46.730469 40.75 47.382812 40.75 Z M 66.917969 40.65625 C 67.613281 40.65625 67.828125 40.214844 67.890625 39.972656 C 67.921875 39.875 67.921875 39.714844 67.921875 39.628906 L 67.921875 38.277344 L 66.953125 38.277344 L 66.953125 36.902344 L 70.269531 36.902344 L 70.269531 39.40625 C 70.269531 39.601562 70.269531 39.714844 70.238281 40.035156 C 70.078125 41.753906 68.605469 42.351562 66.953125 42.351562 C 65.285156 42.351562 63.828125 41.753906 63.667969 40.035156 C 63.632812 39.714844 63.632812 39.597656 63.632812 39.40625 L 63.632812 35.460938 C 63.632812 35.3125 63.667969 34.992188 63.667969 34.84375 C 63.878906 33.082031 65.289062 32.515625 66.953125 32.515625 C 68.605469 32.515625 70.042969 33.082031 70.238281 34.84375 C 70.269531 35.117188 70.269531 35.460938 70.269531 35.460938 L 70.269531 35.78125 L 67.921875 35.78125 L 67.921875 35.246094 C 67.921875 35.246094 67.921875 35.023438 67.890625 34.894531 C 67.855469 34.683594 67.667969 34.214844 66.953125 34.214844 C 66.257812 34.214844 66.078125 34.652344 66.015625 34.894531 C 65.980469 35.023438 65.980469 35.183594 65.980469 35.34375 L 65.980469 39.632812 C 65.980469 39.75 65.980469 39.878906 66.015625 39.976562 C 66.015625 40.21875 66.257812 40.65625 66.921875 40.65625 Z M 66.917969 40.65625 " fill-opacity="1" fill-rule="nonzero"/></g></svg>