<svg xmlns="http://www.w3.org/2000/svg" xmlns:xlink="http://www.w3.org/1999/xlink" width="100" zoomAndPan="magnify" viewBox="0 0 75 74.999997" height="100" preserveAspectRatio="xMidYMid meet" version="1.0"><defs><clipPath id="a12447a347"><path d="M 0.824219 1.351562 L 74.253906 1.351562 L 74.253906 73.648438 L 0.824219 73.648438 Z M 0.824219 1.351562 " clip-rule="nonzero"/></clipPath><clipPath id="3c6f4a7060"><path d="M 16.574219 1.351562 L 58.425781 1.351562 C 62.601562 1.351562 66.609375 3.007812 69.5625 5.964844 C 72.515625 8.917969 74.175781 12.921875 74.175781 17.101562 L 74.175781 57.898438 C 74.175781 62.078125 72.515625 66.082031 69.5625 69.035156 C 66.609375 71.992188 62.601562 73.648438 58.425781 73.648438 L 16.574219 73.648438 C 7.875 73.648438 0.824219 66.597656 0.824219 57.898438 L 0.824219 17.101562 C 0.824219 8.402344 7.875 1.351562 16.574219 1.351562 Z M 16.574219 1.351562 " clip-rule="nonzero"/></clipPath><clipPath id="2097c2ef2c"><path d="M 13.703125 12.296875 L 60.953125 12.296875 L 60.953125 62.546875 L 13.703125 62.546875 Z M 13.703125 12.296875 " clip-rule="nonzero"/></clipPath><clipPath id="7bba5d76be"><path d="M 27.171875 32.039062 L 47.878906 32.039062 L 47.878906 39.554688 L 27.171875 39.554688 Z M 27.171875 32.039062 " clip-rule="nonzero"/></clipPath></defs><g clip-path="url(#a12447a347)"><g clip-path="url(#3c6f4a7060)"><path fill="#00c16a" d="M 0.824219 1.351562 L 74.253906 1.351562 L 74.253906 73.648438 L 0.824219 73.648438 Z M 0.824219 1.351562 " fill-opacity="1" fill-rule="nonzero"/></g></g><g clip-path="url(#2097c2ef2c)"><path fill="#0f172a" d="M 26.980469 -0.210938 C 26.707031 -0.0742188 27.726562 -0.0820312 27.566406 -0.179688 M 34.414062 12.550781 C 28.960938 13.4375 23.601562 16.425781 19.980469 20.59375 C 17.921875 22.960938 16.054688 26.207031 15 29.25 C 14.441406 30.863281 13.871094 33.453125 13.941406 34.054688 C 13.984375 34.445312 14 34.441406 14.539062 33.683594 C 19.390625 26.894531 25.128906 22.652344 31.675781 21.015625 C 33.429688 20.574219 37.109375 20.40625 38.964844 20.671875 C 44.839844 21.53125 49.433594 25.164062 51.144531 30.316406 C 51.722656 32.070312 51.863281 34.707031 51.488281 36.945312 C 51.160156 38.929688 50.652344 40.878906 50.21875 41.851562 C 49.902344 42.566406 49.890625 42.613281 50.164062 42.257812 C 50.324219 42.039062 51.007812 41.210938 51.667969 40.429688 C 52.328125 39.640625 53.078125 38.671875 53.328125 38.28125 C 54.777344 36.011719 55.875 32.859375 56.273438 29.792969 C 56.304688 29.558594 56.335938 30.230469 56.351562 31.28125 C 56.386719 34.578125 55.628906 36.808594 53.003906 41.105469 C 50.828125 44.675781 48.300781 47.078125 44.984375 48.742188 C 42.683594 49.894531 41.648438 50.136719 38.96875 50.132812 C 37.046875 50.132812 36.601562 50.082031 35.363281 49.753906 C 33.699219 49.308594 32.21875 48.636719 30.925781 47.734375 C 29.59375 46.800781 30.132812 47.359375 31.890625 48.734375 C 34.277344 50.597656 35.359375 51.21875 37.417969 51.898438 C 38.871094 52.378906 40.171875 52.621094 42.179688 52.769531 C 47.042969 53.132812 52.066406 51.933594 55.050781 49.710938 C 57.585938 47.816406 59.179688 45.570312 60.203125 42.425781 C 62.046875 36.796875 61.554688 30.878906 58.804688 25.457031 C 57.574219 23.03125 56.292969 21.289062 54.265625 19.273438 C 50.898438 15.925781 47.296875 13.945312 42.535156 12.824219 C 41.269531 12.519531 35.277344 12.417969 34.425781 12.554688 M 33.242188 21.683594 C 31.316406 22.074219 29.757812 22.597656 28.632812 23.039062 C 28.042969 23.269531 27.15625 23.617188 26.054688 24.214844 C 25.089844 24.742188 24.164062 25.375 22.910156 26.316406 C 19.296875 29.027344 16.46875 32.402344 14.519531 36.320312 L 13.699219 37.964844 C 13.703125 38.511719 13.710938 39.058594 13.714844 39.605469 C 13.800781 41.691406 14.199219 44.769531 15.691406 48.132812 C 17.441406 52.082031 19.820312 54.519531 21.003906 55.664062 C 22.105469 56.730469 23 57.507812 23.953125 58.199219 C 24.3125 58.460938 25.480469 59.285156 26.9375 60.023438 C 29.773438 61.460938 32.605469 62.007812 34.5625 62.226562 C 35.683594 62.359375 40.527344 62.90625 44.753906 62.277344 C 46.875 61.960938 48.308594 61.425781 49.375 61.015625 C 50.730469 60.5 51.414062 60.242188 51.402344 59.957031 C 51.375 59.082031 45.960938 59.347656 39.554688 56.859375 C 37.8125 56.179688 36.445312 55.472656 35.558594 54.984375 C 33.605469 53.84375 32.152344 52.652344 31.15625 51.734375 C 31.113281 51.691406 31.050781 51.636719 30.976562 51.566406 C 27.097656 47.902344 25.679688 43.921875 25.679688 43.921875 C 24.265625 39.949219 24.816406 36.335938 25.203125 34.605469 C 25.386719 33.832031 26.761719 28.457031 32.121094 25.789062 C 32.878906 25.410156 37.199219 23.390625 42.078125 25.148438 C 47.210938 26.996094 50.726562 31.828125 50.175781 36.273438 C 50.101562 36.910156 50.050781 37.453125 50.070312 37.472656 C 50.164062 37.597656 50.570312 36.027344 50.707031 35.039062 C 51.070312 32.402344 49.773438 29.460938 49.480469 28.878906 C 46.703125 23.355469 40.363281 21.929688 39.398438 21.726562 C 36.769531 21.179688 34.546875 21.433594 33.230469 21.679688 Z M 33.242188 21.683594 " fill-opacity="1" fill-rule="nonzero"/></g><path fill="#0f172a" d="M 34.785156 33.339844 C 34.957031 33.453125 35.128906 33.574219 35.289062 33.699219 C 37.570312 35.382812 39.214844 37.03125 41.917969 37.886719 C 42.203125 37.976562 42.472656 38.046875 42.738281 38.101562 C 42.585938 40.859375 40.304688 43.046875 37.507812 43.046875 C 34.710938 43.046875 32.273438 40.699219 32.273438 37.8125 C 32.273438 34.921875 33.277344 34.261719 34.785156 33.339844 Z M 34.785156 33.339844 " fill-opacity="1" fill-rule="nonzero"/><path stroke-linecap="butt" transform="matrix(0.051227, 0, 0, 0.051227, 13.703965, 12.295234)" fill-opacity="1" fill="#0f172a" fill-rule="nonzero" stroke-linejoin="miter" d="M 431.73264 425.60453 C 469.325766 454.428468 499.369765 481.72733 544.435764 497.511868 L 544.435764 498.198152 C 544.435764 542.196598 508.67273 577.883378 464.674284 577.883378 C 420.675838 577.883378 384.989058 542.196598 384.989058 498.198152 C 384.989058 466.019046 404.128763 438.186408 431.73264 425.680783 Z M 431.73264 425.60453 " stroke="#101221" stroke-width="0.4" stroke-opacity="1" stroke-miterlimit="4.4"/><path fill="#0f172a" d="M 34.949219 37.8125 C 34.949219 37.894531 34.949219 37.980469 34.957031 38.0625 C 34.96875 38.144531 34.980469 38.226562 34.992188 38.3125 C 35.007812 38.394531 35.03125 38.476562 35.054688 38.558594 C 35.082031 38.640625 35.105469 38.71875 35.140625 38.796875 C 35.171875 38.871094 35.210938 38.949219 35.25 39.019531 C 35.289062 39.09375 35.332031 39.164062 35.378906 39.234375 C 35.425781 39.308594 35.476562 39.375 35.527344 39.433594 C 35.578125 39.5 35.632812 39.5625 35.695312 39.621094 C 35.757812 39.675781 35.820312 39.738281 35.878906 39.789062 C 35.945312 39.839844 36.011719 39.890625 36.078125 39.9375 C 36.152344 39.984375 36.222656 40.03125 36.296875 40.066406 C 36.367188 40.101562 36.445312 40.140625 36.519531 40.171875 C 36.597656 40.203125 36.679688 40.234375 36.757812 40.261719 C 36.839844 40.285156 36.921875 40.304688 37.003906 40.320312 C 37.082031 40.335938 37.164062 40.351562 37.253906 40.355469 C 37.335938 40.367188 37.421875 40.367188 37.503906 40.367188 C 37.585938 40.367188 37.671875 40.367188 37.753906 40.355469 C 37.835938 40.347656 37.925781 40.335938 38.007812 40.320312 C 38.089844 40.304688 38.171875 40.285156 38.25 40.261719 C 38.332031 40.234375 38.410156 40.207031 38.488281 40.171875 C 38.5625 40.140625 38.640625 40.105469 38.714844 40.066406 C 38.785156 40.023438 38.855469 39.984375 38.929688 39.9375 C 39 39.890625 39.066406 39.839844 39.128906 39.789062 C 39.195312 39.738281 39.257812 39.679688 39.3125 39.621094 C 39.375 39.558594 39.429688 39.496094 39.480469 39.433594 C 39.53125 39.367188 39.582031 39.300781 39.628906 39.234375 C 39.675781 39.164062 39.722656 39.09375 39.757812 39.019531 C 39.800781 38.949219 39.835938 38.871094 39.867188 38.796875 C 39.894531 38.71875 39.925781 38.636719 39.953125 38.558594 C 39.976562 38.476562 40 38.394531 40.015625 38.3125 C 40.03125 38.230469 40.042969 38.148438 40.050781 38.0625 C 40.054688 37.976562 40.058594 37.894531 40.058594 37.8125 C 40.058594 37.730469 40.058594 37.640625 40.050781 37.558594 C 40.039062 37.476562 40.03125 37.394531 40.015625 37.308594 C 40 37.226562 39.976562 37.144531 39.953125 37.0625 C 39.925781 36.980469 39.902344 36.90625 39.867188 36.828125 C 39.835938 36.75 39.800781 36.675781 39.757812 36.601562 C 39.71875 36.53125 39.675781 36.460938 39.628906 36.386719 C 39.582031 36.316406 39.53125 36.25 39.480469 36.1875 C 39.429688 36.121094 39.375 36.058594 39.3125 36.003906 C 39.25 35.941406 39.1875 35.886719 39.128906 35.835938 C 39.0625 35.78125 38.996094 35.730469 38.929688 35.683594 C 38.855469 35.640625 38.785156 35.59375 38.714844 35.558594 C 38.640625 35.523438 38.5625 35.480469 38.488281 35.449219 C 38.410156 35.417969 38.328125 35.386719 38.25 35.363281 C 38.171875 35.335938 38.089844 35.316406 38.007812 35.300781 C 37.925781 35.285156 37.84375 35.269531 37.753906 35.265625 C 37.671875 35.253906 37.585938 35.253906 37.503906 35.253906 C 37.421875 35.253906 37.335938 35.253906 37.253906 35.265625 C 37.171875 35.277344 37.082031 35.285156 37.003906 35.300781 C 36.921875 35.316406 36.839844 35.335938 36.757812 35.363281 C 36.675781 35.386719 36.597656 35.414062 36.519531 35.449219 C 36.445312 35.480469 36.367188 35.515625 36.296875 35.558594 C 36.222656 35.597656 36.152344 35.640625 36.078125 35.683594 C 36.007812 35.730469 35.941406 35.78125 35.878906 35.835938 C 35.8125 35.886719 35.753906 35.941406 35.695312 36.003906 C 35.640625 36.066406 35.578125 36.125 35.527344 36.1875 C 35.476562 36.253906 35.425781 36.320312 35.378906 36.386719 C 35.332031 36.460938 35.285156 36.53125 35.25 36.601562 C 35.210938 36.675781 35.171875 36.75 35.140625 36.828125 C 35.113281 36.90625 35.082031 36.988281 35.054688 37.0625 C 35.03125 37.140625 35.007812 37.226562 34.992188 37.308594 C 34.980469 37.390625 34.964844 37.472656 34.957031 37.558594 C 34.953125 37.648438 34.949219 37.730469 34.949219 37.8125 Z M 34.949219 37.8125 " fill-opacity="1" fill-rule="nonzero"/><g clip-path="url(#7bba5d76be)"><path fill="#0f172a" d="M 47.835938 36.140625 C 48.125 37.851562 46.035156 40.460938 41.917969 39.160156 C 39.214844 38.296875 37.570312 36.660156 35.289062 34.96875 C 32.734375 33.078125 29.804688 32.238281 27.15625 33.363281 C 30.921875 30.945312 34.710938 32.226562 38.550781 34.554688 C 39.925781 35.386719 41.351562 36.257812 42.851562 36.859375 C 45.089844 37.753906 46.949219 37.636719 47.839844 36.140625 Z M 47.835938 36.140625 " fill-opacity="1" fill-rule="nonzero"/></g><path fill="#ffffff" d="M 34.625 36.839844 C 34.625 36.882812 34.625 36.929688 34.640625 36.972656 C 34.652344 37.015625 34.660156 37.058594 34.679688 37.105469 C 34.695312 37.144531 34.722656 37.1875 34.746094 37.222656 C 34.773438 37.257812 34.804688 37.292969 34.835938 37.328125 C 34.867188 37.367188 34.902344 37.390625 34.941406 37.417969 C 34.980469 37.441406 35.019531 37.464844 35.058594 37.484375 C 35.101562 37.5 35.148438 37.515625 35.195312 37.523438 C 35.238281 37.535156 35.285156 37.539062 35.328125 37.539062 C 35.367188 37.539062 35.417969 37.539062 35.464844 37.523438 C 35.511719 37.515625 35.550781 37.503906 35.59375 37.484375 C 35.632812 37.46875 35.675781 37.441406 35.710938 37.417969 C 35.746094 37.390625 35.78125 37.359375 35.820312 37.328125 C 35.855469 37.300781 35.878906 37.261719 35.90625 37.222656 C 35.929688 37.1875 35.953125 37.144531 35.972656 37.105469 C 35.988281 37.0625 36.003906 37.015625 36.011719 36.972656 C 36.023438 36.925781 36.027344 36.878906 36.027344 36.839844 C 36.027344 36.796875 36.027344 36.746094 36.011719 36.699219 C 36.003906 36.652344 35.992188 36.613281 35.972656 36.570312 C 35.957031 36.53125 35.929688 36.488281 35.90625 36.453125 C 35.878906 36.417969 35.847656 36.382812 35.820312 36.347656 C 35.789062 36.308594 35.753906 36.285156 35.710938 36.257812 C 35.675781 36.234375 35.632812 36.214844 35.59375 36.191406 C 35.550781 36.175781 35.507812 36.160156 35.464844 36.152344 C 35.417969 36.140625 35.371094 36.136719 35.328125 36.136719 C 35.28125 36.136719 35.234375 36.136719 35.195312 36.152344 C 35.148438 36.160156 35.105469 36.171875 35.058594 36.191406 C 35.019531 36.207031 34.980469 36.234375 34.941406 36.257812 C 34.90625 36.285156 34.871094 36.316406 34.835938 36.347656 C 34.800781 36.378906 34.773438 36.414062 34.746094 36.453125 C 34.722656 36.488281 34.703125 36.53125 34.679688 36.570312 C 34.667969 36.613281 34.652344 36.660156 34.640625 36.699219 C 34.628906 36.742188 34.625 36.792969 34.625 36.839844 Z M 34.625 36.839844 " fill-opacity="1" fill-rule="nonzero"/><path fill="#0f172a" d="M 43.472656 41.46875 C 39.164062 43.636719 33.304688 43.050781 29.667969 35.25 C 31.285156 41.167969 34.25 43.601562 36.636719 43.832031 C 39.09375 44.066406 41.535156 42.992188 43.472656 41.46875 Z M 43.472656 41.46875 " fill-opacity="1" fill-rule="nonzero"/></svg>