<svg xmlns="http://www.w3.org/2000/svg" xmlns:xlink="http://www.w3.org/1999/xlink" width="100" zoomAndPan="magnify" viewBox="0 0 75 74.999997" height="100" preserveAspectRatio="xMidYMid meet" version="1.0"><defs><clipPath id="21d83fb9ec"><path d="M 0.824219 1.351562 L 74.253906 1.351562 L 74.253906 73.648438 L 0.824219 73.648438 Z M 0.824219 1.351562 " clip-rule="nonzero"/></clipPath><clipPath id="84a7be1c2e"><path d="M 16.574219 1.351562 L 58.425781 1.351562 C 62.601562 1.351562 66.609375 3.007812 69.5625 5.964844 C 72.515625 8.917969 74.175781 12.921875 74.175781 17.101562 L 74.175781 57.898438 C 74.175781 62.078125 72.515625 66.082031 69.5625 69.035156 C 66.609375 71.992188 62.601562 73.648438 58.425781 73.648438 L 16.574219 73.648438 C 7.875 73.648438 0.824219 66.597656 0.824219 57.898438 L 0.824219 17.101562 C 0.824219 8.402344 7.875 1.351562 16.574219 1.351562 Z M 16.574219 1.351562 " clip-rule="nonzero"/></clipPath><clipPath id="5416174b57"><path d="M 11.769531 19.035156 L 49 19.035156 L 49 55.785156 L 11.769531 55.785156 Z M 11.769531 19.035156 " clip-rule="nonzero"/></clipPath><clipPath id="791ad33970"><path d="M 53 19.035156 L 63.519531 19.035156 L 63.519531 41 L 53 41 Z M 53 19.035156 " clip-rule="nonzero"/></clipPath><clipPath id="4f9e5129dd"><path d="M 53 41 L 63.519531 41 L 63.519531 55.785156 L 53 55.785156 Z M 53 41 " clip-rule="nonzero"/></clipPath></defs><g clip-path="url(#21d83fb9ec)"><g clip-path="url(#84a7be1c2e)"><path fill="#00c16a" d="M 0.824219 1.351562 L 74.253906 1.351562 L 74.253906 73.648438 L 0.824219 73.648438 Z M 0.824219 1.351562 " fill-opacity="1" fill-rule="nonzero"/></g></g><g clip-path="url(#5416174b57)"><path fill="#0f172a" d="M 18.707031 31.390625 C 18.707031 31.195312 18.863281 31.039062 19.058594 31.039062 L 28.632812 31.039062 C 28.824219 31.039062 28.984375 31.195312 28.984375 31.390625 L 28.984375 34.144531 C 28.984375 34.339844 28.824219 34.496094 28.632812 34.496094 L 25.808594 34.496094 L 25.808594 43.609375 C 25.808594 43.804688 25.652344 43.960938 25.457031 43.960938 L 22.175781 43.960938 C 21.984375 43.960938 21.828125 43.804688 21.828125 43.609375 L 21.828125 34.496094 L 19.058594 34.496094 C 18.863281 34.496094 18.707031 34.339844 18.707031 34.144531 Z M 29.367188 31.183594 C 29.433594 31.09375 29.539062 31.039062 29.648438 31.039062 L 33.238281 31.039062 C 33.398438 31.039062 33.535156 31.144531 33.578125 31.296875 L 34.882812 36.101562 C 35.148438 37.066406 35.375 37.957031 35.578125 38.863281 C 35.777344 37.984375 36 37.089844 36.257812 36.15625 L 37.582031 31.296875 C 37.621094 31.144531 37.761719 31.039062 37.917969 31.039062 L 41.398438 31.039062 C 41.511719 31.039062 41.617188 31.09375 41.683594 31.183594 C 41.75 31.273438 41.765625 31.390625 41.734375 31.496094 L 37.742188 43.71875 C 37.695312 43.863281 37.5625 43.960938 37.410156 43.960938 L 33.53125 43.960938 C 33.378906 43.960938 33.242188 43.863281 33.195312 43.71875 L 29.316406 31.496094 C 29.28125 31.386719 29.300781 31.273438 29.367188 31.183594 Z M 16.425781 55.960938 L 44.03125 55.960938 C 46.601562 55.960938 48.691406 53.871094 48.691406 51.300781 L 48.691406 23.699219 C 48.691406 21.128906 46.601562 19.039062 44.03125 19.039062 L 16.425781 19.039062 C 13.859375 19.039062 11.769531 21.128906 11.769531 23.699219 L 11.769531 51.300781 C 11.769531 53.871094 13.859375 55.960938 16.425781 55.960938 " fill-opacity="1" fill-rule="nonzero"/></g><path fill="#0f172a" d="M 58.453125 37.003906 C 57.515625 37.003906 56.75 36.242188 56.75 35.304688 C 56.75 34.363281 57.515625 33.601562 58.453125 33.601562 C 59.394531 33.601562 60.15625 34.363281 60.15625 35.304688 C 60.15625 36.242188 59.394531 37.003906 58.453125 37.003906 Z M 58.453125 32.515625 C 56.917969 32.515625 55.667969 33.765625 55.667969 35.304688 C 55.667969 36.839844 56.917969 38.089844 58.453125 38.089844 C 59.992188 38.089844 61.238281 36.839844 61.238281 35.304688 C 61.238281 33.765625 59.992188 32.515625 58.453125 32.515625 " fill-opacity="1" fill-rule="nonzero"/><g clip-path="url(#791ad33970)"><path fill="#0f172a" d="M 58.453125 38.789062 C 56.53125 38.789062 54.96875 37.226562 54.96875 35.304688 C 54.96875 33.378906 56.53125 31.816406 58.453125 31.816406 C 60.375 31.816406 61.941406 33.378906 61.941406 35.304688 C 61.941406 37.226562 60.375 38.789062 58.453125 38.789062 Z M 58.453125 26.417969 C 59.5 26.417969 60.351562 27.269531 60.351562 28.316406 C 60.351562 29.363281 59.5 30.214844 58.453125 30.214844 C 57.40625 30.214844 56.554688 29.363281 56.554688 28.316406 C 56.554688 27.269531 57.40625 26.417969 58.453125 26.417969 Z M 58.453125 21.402344 C 59.5 21.402344 60.351562 22.253906 60.351562 23.304688 C 60.351562 24.351562 59.5 25.203125 58.453125 25.203125 C 57.40625 25.203125 56.554688 24.351562 56.554688 23.304688 C 56.554688 22.253906 57.40625 21.402344 58.453125 21.402344 Z M 63.226562 21.378906 C 63.226562 20.089844 62.175781 19.039062 60.886719 19.039062 L 56.023438 19.039062 C 54.734375 19.039062 53.683594 20.089844 53.683594 21.378906 L 53.683594 40.710938 L 63.226562 40.710938 L 63.226562 21.378906 " fill-opacity="1" fill-rule="nonzero"/></g><g clip-path="url(#4f9e5129dd)"><path fill="#0f172a" d="M 53.683594 53.621094 C 53.683594 54.910156 54.734375 55.960938 56.023438 55.960938 L 60.886719 55.960938 C 62.175781 55.960938 63.226562 54.910156 63.226562 53.621094 L 63.226562 41.761719 L 53.683594 41.761719 L 53.683594 53.621094 " fill-opacity="1" fill-rule="nonzero"/></g></svg>