<svg xmlns="http://www.w3.org/2000/svg" xmlns:xlink="http://www.w3.org/1999/xlink" width="100" zoomAndPan="magnify" viewBox="0 0 75 74.999997" height="100" preserveAspectRatio="xMidYMid meet" version="1.0"><defs><clipPath id="d1cc8b15c2"><path d="M 0.824219 1.351562 L 74.253906 1.351562 L 74.253906 73.648438 L 0.824219 73.648438 Z M 0.824219 1.351562 " clip-rule="nonzero"/></clipPath><clipPath id="7a79cc6784"><path d="M 16.574219 1.351562 L 58.425781 1.351562 C 62.601562 1.351562 66.609375 3.007812 69.5625 5.964844 C 72.515625 8.917969 74.175781 12.921875 74.175781 17.101562 L 74.175781 57.898438 C 74.175781 62.078125 72.515625 66.082031 69.5625 69.035156 C 66.609375 71.992188 62.601562 73.648438 58.425781 73.648438 L 16.574219 73.648438 C 7.875 73.648438 0.824219 66.597656 0.824219 57.898438 L 0.824219 17.101562 C 0.824219 8.402344 7.875 1.351562 16.574219 1.351562 Z M 16.574219 1.351562 " clip-rule="nonzero"/></clipPath></defs><g clip-path="url(#d1cc8b15c2)"><g clip-path="url(#7a79cc6784)"><path fill="#00c16a" d="M 0.824219 1.351562 L 74.253906 1.351562 L 74.253906 73.648438 L 0.824219 73.648438 Z M 0.824219 1.351562 " fill-opacity="1" fill-rule="nonzero"/></g></g><path fill="#0f172a" d="M 34.425781 25.566406 L 35.5625 21.640625 C 36.195312 19.617188 39.109375 19.617188 39.742188 21.640625 L 40.878906 25.566406 C 39.992188 25.820312 38.980469 26.070312 37.714844 26.070312 C 36.449219 26.070312 35.4375 25.820312 34.425781 25.566406 Z M 31.007812 37.460938 C 32.527344 38.601562 34.804688 39.613281 37.714844 39.613281 C 40.625 39.613281 42.90625 38.476562 44.421875 37.460938 L 42.652344 31.386719 C 41.511719 32.148438 39.867188 32.652344 37.714844 32.652344 C 35.5625 32.652344 33.917969 32.019531 32.78125 31.386719 Z M 45.5625 41.132812 L 46.195312 43.03125 C 44.296875 44.421875 41.386719 45.6875 37.84375 45.6875 C 34.171875 45.6875 31.386719 44.421875 29.488281 43.03125 L 30.121094 41.132812 L 27.210938 41.132812 C 26.578125 41.132812 26.199219 41.511719 25.945312 42.019531 L 23.160156 52.648438 C 22.90625 53.410156 23.539062 54.296875 24.425781 54.296875 L 51.132812 54.296875 C 52.015625 54.296875 52.523438 53.535156 52.398438 52.648438 L 49.484375 42.019531 C 49.359375 41.511719 48.851562 41.132812 48.21875 41.132812 Z M 45.5625 41.132812 " fill-opacity="1" fill-rule="evenodd"/></svg>