<svg xmlns="http://www.w3.org/2000/svg" xmlns:xlink="http://www.w3.org/1999/xlink" width="100" zoomAndPan="magnify" viewBox="0 0 75 74.999997" height="100" preserveAspectRatio="xMidYMid meet" version="1.0"><defs><clipPath id="1f9c26a62a"><path d="M 0.824219 1.351562 L 74.253906 1.351562 L 74.253906 73.648438 L 0.824219 73.648438 Z M 0.824219 1.351562 " clip-rule="nonzero"/></clipPath><clipPath id="60cb761c36"><path d="M 16.574219 1.351562 L 58.425781 1.351562 C 62.601562 1.351562 66.609375 3.007812 69.5625 5.964844 C 72.515625 8.917969 74.175781 12.921875 74.175781 17.101562 L 74.175781 57.898438 C 74.175781 62.078125 72.515625 66.082031 69.5625 69.035156 C 66.609375 71.992188 62.601562 73.648438 58.425781 73.648438 L 16.574219 73.648438 C 7.875 73.648438 0.824219 66.597656 0.824219 57.898438 L 0.824219 17.101562 C 0.824219 8.402344 7.875 1.351562 16.574219 1.351562 Z M 16.574219 1.351562 " clip-rule="nonzero"/></clipPath><clipPath id="401974518e"><path d="M 42 21 L 59.207031 21 L 59.207031 51 L 42 51 Z M 42 21 " clip-rule="nonzero"/></clipPath><clipPath id="eeada4eb89"><path d="M 26 15.707031 L 50 15.707031 L 50 24 L 26 24 Z M 26 15.707031 " clip-rule="nonzero"/></clipPath><clipPath id="5db498265b"><path d="M 15.707031 21 L 33 21 L 33 52 L 15.707031 52 Z M 15.707031 21 " clip-rule="nonzero"/></clipPath><clipPath id="fd499fbc1a"><path d="M 21 32 L 54 32 L 54 59.207031 L 21 59.207031 Z M 21 32 " clip-rule="nonzero"/></clipPath></defs><g clip-path="url(#1f9c26a62a)"><g clip-path="url(#60cb761c36)"><path fill="#00c16a" d="M 0.824219 1.351562 L 74.253906 1.351562 L 74.253906 73.648438 L 0.824219 73.648438 Z M 0.824219 1.351562 " fill-opacity="1" fill-rule="nonzero"/></g></g><g clip-path="url(#401974518e)"><path fill="#0f172a" d="M 59.207031 37.457031 C 59.207031 37.457031 59.207031 37.457031 59.207031 37.453125 C 59.207031 30.894531 56.296875 25.019531 51.695312 21.042969 L 51.667969 21.019531 C 48.207031 22.875 45.238281 25.117188 42.667969 27.75 L 42.660156 27.757812 C 42.738281 27.839844 42.816406 27.910156 42.898438 27.996094 C 49.636719 35.269531 55.777344 45.632812 54.761719 50.601562 C 57.535156 47.003906 59.207031 42.429688 59.207031 37.464844 C 59.207031 37.464844 59.207031 37.460938 59.207031 37.457031 Z M 59.207031 37.457031 " fill-opacity="1" fill-rule="nonzero"/></g><g clip-path="url(#eeada4eb89)"><path fill="#0f172a" d="M 38.527344 22.875 C 41.574219 20.875 45.234375 19.554688 49.171875 19.210938 L 49.257812 19.207031 C 45.929688 17.011719 41.847656 15.710938 37.457031 15.710938 C 33.523438 15.710938 29.832031 16.757812 26.652344 18.59375 L 26.757812 18.535156 C 27.949219 19.566406 31.898438 19.953125 36.695312 22.886719 C 36.957031 23.046875 37.269531 23.144531 37.605469 23.144531 C 37.949219 23.144531 38.269531 23.042969 38.535156 22.875 L 38.527344 22.878906 Z M 38.527344 22.875 " fill-opacity="1" fill-rule="nonzero"/></g><g clip-path="url(#5db498265b)"><path fill="#0f172a" d="M 32.320312 27.992188 C 32.40625 27.902344 32.488281 27.828125 32.570312 27.742188 C 30.449219 25.6875 28.136719 23.800781 25.671875 22.125 L 25.492188 22.007812 C 24.945312 21.605469 24.257812 21.367188 23.515625 21.367188 C 23.25 21.367188 22.992188 21.398438 22.746094 21.457031 L 22.769531 21.453125 C 18.421875 25.433594 15.707031 31.136719 15.707031 37.472656 C 15.707031 42.746094 17.585938 47.582031 20.714844 51.339844 L 20.683594 51.304688 C 18.816406 46.6875 25.175781 35.585938 32.320312 27.992188 Z M 32.320312 27.992188 " fill-opacity="1" fill-rule="nonzero"/></g><g clip-path="url(#fd499fbc1a)"><path fill="#0f172a" d="M 37.609375 32.378906 C 30.429688 38.726562 20.433594 48.203125 21.964844 52.710938 C 25.90625 56.722656 31.386719 59.207031 37.445312 59.207031 C 43.777344 59.207031 49.476562 56.496094 53.445312 52.167969 L 53.457031 52.152344 C 54.339844 47.410156 44.839844 38.855469 37.609375 32.378906 Z M 37.609375 32.378906 " fill-opacity="1" fill-rule="nonzero"/></g></svg>