<svg xmlns="http://www.w3.org/2000/svg" xmlns:xlink="http://www.w3.org/1999/xlink" width="545" zoomAndPan="magnify" viewBox="0 0 408.75 96.749999" height="129" preserveAspectRatio="xMidYMid meet" version="1.0"><defs><g/><clipPath id="3c5f436234"><path d="M 15.121094 16.023438 L 81.699219 16.023438 L 81.699219 87 L 15.121094 87 Z M 15.121094 16.023438 " clip-rule="nonzero"/></clipPath><clipPath id="2bd1af827b"><path d="M 33.960938 43.847656 L 62.929688 43.847656 L 62.929688 54.4375 L 33.960938 54.4375 Z M 33.960938 43.847656 " clip-rule="nonzero"/></clipPath></defs><g fill="#00c16a" fill-opacity="1"><g transform="translate(87.964201, 86.126609)"><g><path d="M 67.296875 -69.234375 L 44.609375 0 L 22.59375 0 L 0 -69.234375 L 21.03125 -69.234375 L 30.453125 -34.140625 C 30.796875 -32.816406 31.195312 -31.117188 31.65625 -29.046875 C 32.113281 -26.984375 32.539062 -24.925781 32.9375 -22.875 C 33.332031 -20.820312 33.578125 -19.148438 33.671875 -17.859375 C 33.796875 -19.148438 34.03125 -20.804688 34.375 -22.828125 C 34.726562 -24.847656 35.117188 -26.875 35.546875 -28.90625 C 35.972656 -30.945312 36.375 -32.628906 36.75 -33.953125 L 46.359375 -69.234375 Z M 67.296875 -69.234375 "/></g></g></g><g fill="#00c16a" fill-opacity="1"><g transform="translate(155.245346, 86.126609)"><g><path d="M 48.59375 0 L 7.484375 0 L 7.484375 -69.234375 L 48.59375 -69.234375 L 48.59375 -54.21875 L 26.1875 -54.21875 L 26.1875 -43.328125 L 46.921875 -43.328125 L 46.921875 -28.3125 L 26.1875 -28.3125 L 26.1875 -15.25 L 48.59375 -15.25 Z M 48.59375 0 "/></g></g></g><g fill="#00c16a" fill-opacity="1"><g transform="translate(208.464211, 86.126609)"><g><path d="M 52.75 -21.03125 C 52.75 -17.269531 51.800781 -13.707031 49.90625 -10.34375 C 48.019531 -6.976562 45.078125 -4.253906 41.078125 -2.171875 C 37.085938 -0.0859375 31.9375 0.953125 25.625 0.953125 C 22.46875 0.953125 19.695312 0.804688 17.3125 0.515625 C 14.925781 0.234375 12.707031 -0.226562 10.65625 -0.875 C 8.601562 -1.519531 6.472656 -2.363281 4.265625 -3.40625 L 4.265625 -20.078125 C 8.015625 -18.179688 11.800781 -16.734375 15.625 -15.734375 C 19.445312 -14.742188 22.90625 -14.25 26 -14.25 C 27.863281 -14.25 29.382812 -14.46875 30.5625 -14.90625 C 31.75 -15.351562 32.625 -15.960938 33.1875 -16.734375 C 33.757812 -17.515625 34.046875 -18.410156 34.046875 -19.421875 C 34.046875 -20.617188 33.625 -21.632812 32.78125 -22.46875 C 31.945312 -23.300781 30.613281 -24.175781 28.78125 -25.09375 C 26.957031 -26.007812 24.546875 -27.148438 21.546875 -28.515625 C 18.992188 -29.710938 16.679688 -30.941406 14.609375 -32.203125 C 12.535156 -33.460938 10.765625 -34.90625 9.296875 -36.53125 C 7.835938 -38.15625 6.710938 -40.054688 5.921875 -42.234375 C 5.128906 -44.421875 4.734375 -46.992188 4.734375 -49.953125 C 4.734375 -54.410156 5.828125 -58.144531 8.015625 -61.15625 C 10.210938 -64.175781 13.273438 -66.441406 17.203125 -67.953125 C 21.140625 -69.472656 25.679688 -70.234375 30.828125 -70.234375 C 35.335938 -70.234375 39.398438 -69.726562 43.015625 -68.71875 C 46.628906 -67.707031 49.875 -66.550781 52.75 -65.25 L 47.03125 -50.8125 C 44.0625 -52.164062 41.140625 -53.242188 38.265625 -54.046875 C 35.390625 -54.859375 32.722656 -55.265625 30.265625 -55.265625 C 28.648438 -55.265625 27.328125 -55.066406 26.296875 -54.671875 C 25.273438 -54.273438 24.519531 -53.742188 24.03125 -53.078125 C 23.539062 -52.421875 23.296875 -51.664062 23.296875 -50.8125 C 23.296875 -49.738281 23.710938 -48.773438 24.546875 -47.921875 C 25.390625 -47.066406 26.796875 -46.140625 28.765625 -45.140625 C 30.742188 -44.148438 33.4375 -42.867188 36.84375 -41.296875 C 40.21875 -39.773438 43.085938 -38.140625 45.453125 -36.390625 C 47.828125 -34.640625 49.632812 -32.539062 50.875 -30.09375 C 52.125 -27.644531 52.75 -24.625 52.75 -21.03125 Z M 52.75 -21.03125 "/></g></g></g><g fill="#00c16a" fill-opacity="1"><g transform="translate(264.429245, 86.126609)"><g><path d="M 38.03125 0 L 19.328125 0 L 19.328125 -53.9375 L 2.421875 -53.9375 L 2.421875 -69.234375 L 54.890625 -69.234375 L 54.890625 -53.9375 L 38.03125 -53.9375 Z M 38.03125 0 "/></g></g></g><g fill="#00c16a" fill-opacity="1"><g transform="translate(321.720016, 86.126609)"><g><path d="M 67.296875 -69.234375 L 44.609375 0 L 22.59375 0 L 0 -69.234375 L 21.03125 -69.234375 L 30.453125 -34.140625 C 30.796875 -32.816406 31.195312 -31.117188 31.65625 -29.046875 C 32.113281 -26.984375 32.539062 -24.925781 32.9375 -22.875 C 33.332031 -20.820312 33.578125 -19.148438 33.671875 -17.859375 C 33.796875 -19.148438 34.03125 -20.804688 34.375 -22.828125 C 34.726562 -24.847656 35.117188 -26.875 35.546875 -28.90625 C 35.972656 -30.945312 36.375 -32.628906 36.75 -33.953125 L 46.359375 -69.234375 Z M 67.296875 -69.234375 "/></g></g></g><g clip-path="url(#3c5f436234)"><path fill="#00c16a" d="M 33.695312 -1.597656 C 33.308594 -1.410156 34.734375 -1.417969 34.511719 -1.554688 M 44.09375 16.382812 C 36.460938 17.632812 28.964844 21.84375 23.898438 27.71875 C 21.019531 31.054688 18.410156 35.632812 16.933594 39.917969 C 16.152344 42.195312 15.355469 45.839844 15.449219 46.691406 C 15.515625 47.238281 15.535156 47.234375 16.289062 46.164062 C 23.074219 36.597656 31.101562 30.621094 40.261719 28.308594 C 42.71875 27.691406 47.863281 27.453125 50.457031 27.828125 C 58.679688 29.039062 65.105469 34.160156 67.5 41.421875 C 68.308594 43.890625 68.503906 47.609375 67.980469 50.761719 C 67.523438 53.558594 66.8125 56.308594 66.203125 57.679688 C 65.757812 58.683594 65.746094 58.746094 66.125 58.25 C 66.355469 57.9375 67.308594 56.777344 68.230469 55.671875 C 69.15625 54.558594 70.203125 53.195312 70.554688 52.648438 C 72.582031 49.449219 74.117188 45 74.675781 40.683594 C 74.71875 40.351562 74.761719 41.296875 74.78125 42.777344 C 74.832031 47.425781 73.773438 50.566406 70.101562 56.625 C 67.054688 61.65625 63.523438 65.042969 58.878906 67.390625 C 55.660156 69.011719 54.214844 69.351562 50.464844 69.34375 C 47.777344 69.34375 47.15625 69.273438 45.421875 68.8125 C 43.089844 68.183594 41.019531 67.238281 39.214844 65.96875 C 37.351562 64.652344 38.101562 65.441406 40.5625 67.375 C 43.902344 70.003906 45.414062 70.875 48.292969 71.835938 C 50.328125 72.515625 52.148438 72.855469 54.960938 73.0625 C 61.761719 73.574219 68.789062 71.886719 72.960938 68.753906 C 76.507812 66.082031 78.738281 62.921875 80.171875 58.488281 C 82.75 50.554688 82.0625 42.214844 78.214844 34.570312 C 76.496094 31.15625 74.703125 28.699219 71.863281 25.855469 C 67.15625 21.140625 62.117188 18.347656 55.453125 16.765625 C 53.683594 16.339844 45.296875 16.195312 44.109375 16.390625 M 42.453125 29.257812 C 39.757812 29.804688 37.578125 30.542969 36.003906 31.164062 C 35.179688 31.488281 33.9375 31.976562 32.398438 32.824219 C 31.050781 33.566406 29.753906 34.453125 28 35.78125 C 22.945312 39.601562 18.988281 44.359375 16.257812 49.882812 L 15.113281 52.199219 C 15.121094 52.96875 15.128906 53.738281 15.132812 54.507812 C 15.253906 57.449219 15.808594 61.789062 17.898438 66.53125 C 20.347656 72.09375 23.675781 75.527344 25.332031 77.140625 C 26.875 78.644531 28.128906 79.742188 29.460938 80.714844 C 29.960938 81.085938 31.597656 82.246094 33.632812 83.285156 C 37.601562 85.316406 41.566406 86.078125 44.300781 86.390625 C 45.871094 86.578125 52.644531 87.351562 58.558594 86.460938 C 61.523438 86.015625 63.53125 85.265625 65.019531 84.6875 C 66.921875 83.957031 67.875 83.597656 67.859375 83.191406 C 67.824219 81.957031 60.25 82.332031 51.28125 78.824219 C 48.847656 77.871094 46.933594 76.875 45.691406 76.183594 C 42.960938 74.578125 40.925781 72.898438 39.535156 71.605469 C 39.472656 71.546875 39.386719 71.464844 39.285156 71.367188 C 33.859375 66.207031 31.875 60.59375 31.875 60.59375 C 29.894531 54.996094 30.664062 49.90625 31.207031 47.464844 C 31.464844 46.375 33.390625 38.800781 40.882812 35.039062 C 41.949219 34.503906 47.992188 31.660156 54.816406 34.136719 C 61.996094 36.742188 66.914062 43.550781 66.144531 49.816406 C 66.039062 50.710938 65.96875 51.476562 65.996094 51.507812 C 66.125 51.679688 66.699219 49.46875 66.882812 48.078125 C 67.394531 44.359375 65.578125 40.214844 65.171875 39.390625 C 61.289062 31.609375 52.414062 29.601562 51.066406 29.3125 C 47.390625 28.542969 44.28125 28.902344 42.4375 29.25 Z M 42.453125 29.257812 " fill-opacity="1" fill-rule="nonzero"/></g><path fill="#101221" d="M 44.609375 45.679688 C 44.855469 45.839844 45.089844 46.011719 45.320312 46.1875 C 48.507812 48.5625 50.808594 50.886719 54.59375 52.089844 C 54.988281 52.214844 55.367188 52.316406 55.742188 52.394531 C 55.523438 56.277344 52.335938 59.359375 48.421875 59.359375 C 44.511719 59.359375 41.097656 56.054688 41.097656 51.984375 C 41.097656 47.910156 42.503906 46.980469 44.609375 45.679688 Z M 44.609375 45.679688 " fill-opacity="1" fill-rule="nonzero"/><path stroke-linecap="butt" transform="matrix(0.0716663, 0, 0, 0.0721938, 15.119811, 16.023122)" fill-opacity="1" fill="#00c16a" fill-rule="nonzero" stroke-linejoin="miter" d="M 431.706377 425.616393 C 469.3156 454.401747 499.402978 481.72619 544.425033 497.52567 L 544.425033 498.174964 C 544.425033 542.218719 508.723525 577.875765 464.68258 577.875765 C 420.696141 577.875765 384.994632 542.218719 384.994632 498.174964 C 384.994632 465.980818 404.12628 438.223512 431.706377 425.724609 Z M 431.706377 425.616393 " stroke="#101221" stroke-width="0.4" stroke-opacity="1" stroke-miterlimit="4.4"/><path fill="#101221" d="M 44.839844 51.984375 C 44.839844 52.097656 44.839844 52.222656 44.855469 52.335938 C 44.867188 52.453125 44.882812 52.566406 44.90625 52.691406 C 44.925781 52.804688 44.953125 52.921875 44.992188 53.035156 C 45.027344 53.152344 45.0625 53.261719 45.113281 53.367188 C 45.15625 53.476562 45.207031 53.585938 45.261719 53.6875 C 45.320312 53.789062 45.378906 53.890625 45.441406 53.988281 C 45.507812 54.089844 45.578125 54.183594 45.648438 54.269531 C 45.722656 54.367188 45.800781 54.453125 45.886719 54.53125 C 45.972656 54.609375 46.058594 54.699219 46.144531 54.769531 C 46.238281 54.839844 46.332031 54.914062 46.421875 54.980469 C 46.523438 55.042969 46.625 55.109375 46.726562 55.160156 C 46.824219 55.210938 46.933594 55.269531 47.039062 55.3125 C 47.148438 55.355469 47.261719 55.398438 47.371094 55.433594 C 47.484375 55.46875 47.597656 55.5 47.714844 55.519531 C 47.828125 55.542969 47.941406 55.5625 48.066406 55.570312 C 48.179688 55.585938 48.300781 55.585938 48.414062 55.585938 C 48.53125 55.585938 48.652344 55.585938 48.765625 55.570312 C 48.882812 55.554688 49.003906 55.542969 49.117188 55.519531 C 49.234375 55.5 49.347656 55.46875 49.460938 55.433594 C 49.578125 55.398438 49.683594 55.363281 49.792969 55.3125 C 49.898438 55.269531 50.007812 55.21875 50.105469 55.160156 C 50.207031 55.101562 50.308594 55.042969 50.410156 54.980469 C 50.507812 54.914062 50.601562 54.839844 50.6875 54.769531 C 50.78125 54.699219 50.867188 54.617188 50.945312 54.53125 C 51.03125 54.445312 51.109375 54.359375 51.183594 54.269531 C 51.253906 54.175781 51.324219 54.082031 51.390625 53.988281 C 51.453125 53.890625 51.519531 53.789062 51.570312 53.6875 C 51.625 53.585938 51.675781 53.476562 51.71875 53.367188 C 51.761719 53.261719 51.804688 53.144531 51.839844 53.035156 C 51.878906 52.921875 51.90625 52.804688 51.925781 52.691406 C 51.949219 52.574219 51.96875 52.460938 51.976562 52.335938 C 51.984375 52.214844 51.992188 52.097656 51.992188 51.984375 C 51.992188 51.867188 51.992188 51.746094 51.976562 51.628906 C 51.964844 51.511719 51.949219 51.398438 51.925781 51.273438 C 51.90625 51.160156 51.878906 51.042969 51.839844 50.929688 C 51.804688 50.8125 51.769531 50.703125 51.71875 50.597656 C 51.675781 50.488281 51.625 50.378906 51.570312 50.277344 C 51.511719 50.179688 51.453125 50.078125 51.390625 49.976562 C 51.324219 49.875 51.253906 49.78125 51.183594 49.695312 C 51.109375 49.601562 51.03125 49.515625 50.945312 49.433594 C 50.859375 49.347656 50.773438 49.269531 50.6875 49.195312 C 50.59375 49.125 50.5 49.050781 50.410156 48.988281 C 50.308594 48.921875 50.207031 48.855469 50.105469 48.804688 C 50.007812 48.753906 49.898438 48.699219 49.792969 48.65625 C 49.683594 48.613281 49.570312 48.566406 49.460938 48.53125 C 49.347656 48.496094 49.234375 48.46875 49.117188 48.445312 C 49.003906 48.421875 48.890625 48.402344 48.765625 48.394531 C 48.652344 48.378906 48.53125 48.378906 48.414062 48.378906 C 48.300781 48.378906 48.179688 48.378906 48.066406 48.394531 C 47.949219 48.410156 47.828125 48.421875 47.714844 48.445312 C 47.597656 48.46875 47.484375 48.496094 47.371094 48.53125 C 47.253906 48.566406 47.148438 48.605469 47.039062 48.65625 C 46.933594 48.699219 46.824219 48.75 46.726562 48.804688 C 46.625 48.863281 46.523438 48.921875 46.421875 48.988281 C 46.324219 49.050781 46.230469 49.125 46.144531 49.195312 C 46.050781 49.269531 45.964844 49.347656 45.886719 49.433594 C 45.808594 49.519531 45.722656 49.609375 45.648438 49.695312 C 45.578125 49.789062 45.507812 49.882812 45.441406 49.976562 C 45.378906 50.078125 45.3125 50.179688 45.261719 50.277344 C 45.207031 50.378906 45.15625 50.488281 45.113281 50.597656 C 45.070312 50.703125 45.027344 50.820312 44.992188 50.929688 C 44.953125 51.039062 44.925781 51.160156 44.90625 51.273438 C 44.882812 51.390625 44.859375 51.507812 44.855469 51.628906 C 44.847656 51.75 44.839844 51.867188 44.839844 51.984375 Z M 44.839844 51.984375 " fill-opacity="1" fill-rule="nonzero"/><g clip-path="url(#2bd1af827b)"><path fill="#101221" d="M 62.871094 49.628906 C 63.273438 52.039062 60.347656 55.714844 54.59375 53.882812 C 50.808594 52.667969 48.507812 50.359375 45.320312 47.976562 C 41.742188 45.3125 37.644531 44.128906 33.9375 45.714844 C 39.207031 42.308594 44.511719 44.113281 49.878906 47.390625 C 51.804688 48.566406 53.796875 49.796875 55.898438 50.640625 C 59.03125 51.902344 61.632812 51.738281 62.878906 49.628906 Z M 62.871094 49.628906 " fill-opacity="1" fill-rule="nonzero"/></g><path fill="#f8f9fa" d="M 44.386719 50.609375 C 44.386719 50.675781 44.386719 50.742188 44.410156 50.800781 C 44.425781 50.863281 44.4375 50.921875 44.46875 50.988281 C 44.488281 51.042969 44.523438 51.101562 44.558594 51.152344 C 44.597656 51.203125 44.640625 51.253906 44.683594 51.304688 C 44.726562 51.355469 44.773438 51.390625 44.832031 51.425781 C 44.882812 51.464844 44.941406 51.492188 44.996094 51.519531 C 45.054688 51.542969 45.121094 51.5625 45.183594 51.578125 C 45.25 51.59375 45.3125 51.601562 45.371094 51.601562 C 45.425781 51.601562 45.5 51.601562 45.5625 51.578125 C 45.628906 51.5625 45.683594 51.550781 45.742188 51.519531 C 45.800781 51.5 45.859375 51.464844 45.90625 51.425781 C 45.957031 51.390625 46.007812 51.347656 46.058594 51.304688 C 46.109375 51.261719 46.144531 51.210938 46.179688 51.152344 C 46.214844 51.101562 46.246094 51.042969 46.273438 50.988281 C 46.292969 50.929688 46.316406 50.863281 46.332031 50.800781 C 46.34375 50.734375 46.351562 50.667969 46.351562 50.609375 C 46.351562 50.554688 46.351562 50.480469 46.332031 50.417969 C 46.316406 50.351562 46.300781 50.292969 46.273438 50.234375 C 46.25 50.179688 46.214844 50.121094 46.179688 50.070312 C 46.144531 50.019531 46.101562 49.96875 46.058594 49.917969 C 46.015625 49.867188 45.964844 49.832031 45.90625 49.796875 C 45.859375 49.757812 45.800781 49.730469 45.742188 49.703125 C 45.683594 49.679688 45.621094 49.660156 45.5625 49.644531 C 45.5 49.628906 45.433594 49.621094 45.371094 49.621094 C 45.304688 49.621094 45.242188 49.621094 45.183594 49.644531 C 45.121094 49.660156 45.0625 49.671875 44.996094 49.703125 C 44.941406 49.722656 44.882812 49.757812 44.832031 49.796875 C 44.78125 49.832031 44.730469 49.875 44.683594 49.917969 C 44.632812 49.960938 44.597656 50.011719 44.558594 50.070312 C 44.523438 50.121094 44.496094 50.179688 44.46875 50.234375 C 44.445312 50.292969 44.425781 50.359375 44.410156 50.417969 C 44.394531 50.472656 44.386719 50.546875 44.386719 50.609375 Z M 44.386719 50.609375 " fill-opacity="1" fill-rule="nonzero"/><path fill="#101221" d="M 56.765625 57.136719 C 50.738281 60.191406 42.539062 59.367188 37.449219 48.375 C 39.714844 56.710938 43.863281 60.140625 47.203125 60.464844 C 50.636719 60.796875 54.054688 59.28125 56.765625 57.136719 Z M 56.765625 57.136719 " fill-opacity="1" fill-rule="nonzero"/></svg>